<svg width="210" height="210" viewBox="0 0 210 210" fill="none" xmlns="http://www.w3.org/2000/svg">
<path d="M140 210H116.667V186.667H140V210ZM116.667 128.333H93.3333V186.667H116.667V128.333ZM210 105H186.667V151.667H210V105ZM186.667 81.6667H163.333V105H186.667V81.6667ZM46.6667 105H23.3333V128.333H46.6667V105ZM23.3333 81.6667H0V105H23.3333V81.6667ZM105 23.3333H128.333V0H105V23.3333ZM17.5 17.5V52.5H52.5V17.5H17.5ZM70 70H0V0H70V70ZM17.5 157.5V192.5H52.5V157.5H17.5ZM70 210H0V140H70V210ZM157.5 17.5V52.5H192.5V17.5H157.5ZM210 70H140V0H210V70ZM186.667 186.667V151.667H140V175H163.333V210H210V186.667H186.667ZM163.333 105H116.667V128.333H163.333V105ZM116.667 81.6667H46.6667V105H70V128.333H93.3333V105H116.667V81.6667ZM128.333 70V46.6667H105V23.3333H81.6667V70H128.333ZM43.75 26.25H26.25V43.75H43.75V26.25ZM43.75 166.25H26.25V183.75H43.75V166.25ZM183.75 26.25H166.25V43.75H183.75V26.25Z" fill="black"/>
</svg>
