<svg width="24" height="24" viewBox="0 0 24 24" fill="none" xmlns="http://www.w3.org/2000/svg">
<path d="M10.7651 16.5556C10.7651 17.7407 10.2998 18.7778 9.36913 19.6667C8.45638 20.5556 7.3736 21 6.12081 21C4.15213 21 2.63982 20.3241 1.58389 18.9722C0.527964 17.6204 0 15.75 0 13.3611C0 11.1389 0.903803 8.89815 2.71141 6.63889C4.53691 4.37963 6.72931 2.66667 9.28859 1.5L10.4698 3.47222C8.44743 4.49074 6.86353 5.67593 5.71812 7.02778C4.57271 8.37963 3.91051 10.0185 3.73154 11.9444H5.2349C6.34452 11.9444 7.24832 12.0741 7.94631 12.3333C8.6443 12.5926 9.20805 12.9537 9.63758 13.4167C10.0492 13.8611 10.3356 14.3519 10.4966 14.8889C10.6756 15.4259 10.7651 15.9815 10.7651 16.5556ZM24 16.5556C24 17.7407 23.5347 18.7778 22.604 19.6667C21.6913 20.5556 20.6085 21 19.3557 21C17.387 21 15.8747 20.3241 14.8188 18.9722C13.7629 17.6204 13.2349 15.75 13.2349 13.3611C13.2349 11.1389 14.1387 8.89815 15.9463 6.63889C17.7718 4.37963 19.9642 2.66667 22.5235 1.5L23.7047 3.47222C21.6823 4.49074 20.0984 5.67593 18.953 7.02778C17.8076 8.37963 17.1454 10.0185 16.9664 11.9444H18.4698C19.5794 11.9444 20.4832 12.0741 21.1812 12.3333C21.8792 12.5926 22.443 12.9537 22.8725 13.4167C23.2841 13.8611 23.5705 14.3519 23.7315 14.8889C23.9105 15.4259 24 15.9815 24 16.5556Z" fill="#030612"/>
</svg>
