<svg width="363" height="283" viewBox="0 0 363 283" fill="none" xmlns="http://www.w3.org/2000/svg">
<g clip-path="url(#clip0_371_2150)">
<path d="M75.3588 186.144C58.947 169.959 52.0154 153.075 55.8404 138.601C60.7491 120.027 82.5559 107.185 115.669 103.367L115.792 104.433C83.1392 108.197 61.665 120.751 56.8752 138.876C53.1527 152.961 59.9837 169.477 76.1099 185.38L75.3588 186.144Z" fill="#F0F0F0"/>
<path d="M233.705 243.594C213.222 243.594 190.964 240.545 168.855 234.682C141.514 227.431 116.446 216.487 96.3599 203.032L96.9546 202.141C116.944 215.53 141.901 226.425 169.129 233.645C193.734 240.171 218.524 243.194 240.809 242.396L240.847 243.467C238.494 243.552 236.113 243.594 233.705 243.594Z" fill="#F0F0F0"/>
<path d="M280.696 236.851L280.353 235.836C298.672 229.631 310.13 219.636 313.488 206.93C317.757 190.778 308.483 172.035 287.376 154.153C266.162 136.18 235.57 121.267 201.234 112.162L201.508 111.125C235.993 120.27 266.734 135.261 288.067 153.334C309.508 171.499 318.903 190.63 314.523 207.205C311.069 220.275 299.371 230.526 280.696 236.851Z" fill="#F0F0F0"/>
<path d="M112.482 244.042C72.2344 226.161 41.2204 202.962 25.1538 178.718L26.0454 178.125C42.001 202.201 72.8522 225.262 112.916 243.062L112.482 244.042Z" fill="#F0F0F0"/>
<path d="M253.991 275.022C249.839 275.022 245.617 274.929 241.324 274.743L241.37 273.672C273.408 275.061 301.677 271.221 323.124 262.562L323.524 263.557C304.815 271.109 280.969 275.022 253.991 275.022Z" fill="#F0F0F0"/>
<path d="M230.638 104.335C223.986 102.165 217.143 100.145 210.301 98.3302C170.925 87.8879 132.218 84.1803 98.3635 87.6104L98.2559 86.5434C132.237 83.102 171.076 86.8185 210.575 97.2936C217.437 99.1135 224.299 101.139 230.97 103.315L230.638 104.335Z" fill="#F0F0F0"/>
<path d="M50.2045 187.753C33.7927 171.569 26.8611 154.684 30.6861 140.211C35.5948 121.637 57.4016 108.794 90.5151 104.977L90.6374 106.042C57.9849 109.806 36.5107 122.36 31.7209 140.485C27.9984 154.571 34.8294 171.086 50.9556 186.989L50.2045 187.753Z" fill="#F0F0F0"/>
<path d="M208.551 245.203C188.068 245.203 165.81 242.154 143.701 236.291C116.361 229.04 91.2921 218.096 71.2061 204.641L71.8008 203.75C91.7902 217.14 116.748 228.034 143.975 235.254C168.58 241.78 193.37 244.803 215.655 244.006L215.693 245.077C213.34 245.162 210.959 245.204 208.551 245.203Z" fill="#F0F0F0"/>
<path d="M255.542 238.461L255.199 237.445C273.518 231.24 284.976 221.245 288.334 208.54C292.603 192.388 283.329 173.644 262.222 155.762C241.008 137.789 210.416 122.876 176.081 113.771L176.354 112.734C210.84 121.88 241.581 136.87 262.913 154.944C284.354 173.108 293.749 192.24 289.369 208.814C285.915 221.884 274.218 232.136 255.542 238.461Z" fill="#F0F0F0"/>
<path d="M87.3285 245.652C47.0807 227.77 16.0666 204.571 0 180.328L0.891639 179.734C16.8472 203.81 47.6984 226.872 87.7623 244.672L87.3285 245.652Z" fill="#F0F0F0"/>
<path d="M228.837 276.631C224.685 276.631 220.463 276.538 216.17 276.352L216.216 275.281C248.255 276.671 276.523 272.83 297.97 264.172L298.371 265.167C279.661 272.718 255.815 276.631 228.837 276.631Z" fill="#F0F0F0"/>
<path d="M205.484 105.944C198.832 103.774 191.99 101.754 185.147 99.9396C145.771 89.4973 107.065 85.7897 73.2097 89.2198L73.1021 88.1528C107.083 84.7114 145.922 88.4279 185.421 98.903C192.283 100.723 199.145 102.749 205.816 104.925L205.484 105.944Z" fill="#F0F0F0"/>
<path d="M18.2442 159.033C25.9361 150.394 38.2059 145.129 49.3252 148.281C39.0672 155.553 31.7076 166.225 28.5484 178.409C27.3471 183.113 26.4998 188.47 22.595 191.345C20.1653 193.135 16.946 193.562 13.958 193.155C10.97 192.747 8.14463 191.583 5.35743 190.43L4.60742 190.495C6.76375 179.122 10.5523 167.673 18.2442 159.033Z" fill="#F2F2F2"/>
<path d="M49.2911 148.522C39.9947 150.777 31.6438 155.909 25.4247 163.189C24.058 164.732 22.9428 166.482 22.12 168.373C21.378 170.241 21.1489 172.275 21.4566 174.262C21.7063 176.12 22.1766 177.992 21.971 179.879C21.8514 180.843 21.5298 181.771 21.027 182.602C20.5243 183.433 19.8519 184.148 19.0539 184.701C17.1013 186.129 14.7529 186.77 12.4346 187.316C9.8605 187.922 7.17727 188.511 5.079 190.225C4.82477 190.433 4.51802 190.025 4.77188 189.818C8.4225 186.836 13.4961 187.219 17.5351 185.054C19.4198 184.043 21.012 182.458 21.3991 180.282C21.7376 178.379 21.2543 176.449 20.9852 174.569C20.6567 172.635 20.8059 170.65 21.4197 168.787C22.1437 166.86 23.1898 165.07 24.5132 163.495C27.4361 159.9 30.905 156.788 34.7929 154.273C39.2142 151.378 44.0973 149.261 49.231 148.016C49.5488 147.939 49.6068 148.446 49.2911 148.522Z" fill="white"/>
<path d="M27.2895 160.73C26.2118 159.519 25.5991 157.964 25.5605 156.342C25.522 154.72 26.0602 153.137 27.0791 151.876C27.2862 151.622 27.6906 151.932 27.4833 152.187C26.5323 153.359 26.0311 154.834 26.0701 156.344C26.109 157.854 26.6856 159.301 27.6958 160.422C27.915 160.667 27.5074 160.973 27.2895 160.73Z" fill="white"/>
<path d="M21.2058 173.34C24.5092 173.56 27.7739 172.524 30.3489 170.44C30.6039 170.233 30.9107 170.64 30.656 170.847C27.9723 173.011 24.5727 174.082 21.1357 173.845C20.8081 173.822 20.88 173.317 21.2058 173.34Z" fill="white"/>
<path d="M39.3286 152.046C39.6481 152.602 40.1003 153.069 40.6447 153.406C41.1891 153.744 41.8086 153.94 42.4475 153.978C42.7752 153.997 42.703 154.502 42.3774 154.484C41.6717 154.438 40.9878 154.22 40.3855 153.849C39.7832 153.478 39.2808 152.964 38.9223 152.354C38.8837 152.299 38.8673 152.232 38.8765 152.165C38.8857 152.099 38.9198 152.039 38.9719 151.996C39.0259 151.956 39.0936 151.938 39.1604 151.948C39.2272 151.957 39.2876 151.992 39.3286 152.046Z" fill="white"/>
<path d="M65.1087 184.145C64.9037 184.14 64.6988 184.134 64.4912 184.131C61.7353 184.068 58.9788 184.229 56.249 184.613C56.0374 184.639 55.8234 184.669 55.6131 184.702C49.0461 185.697 42.7206 187.905 36.9581 191.213C34.6663 192.532 32.478 194.023 30.4121 195.674C27.5591 197.955 24.6468 200.655 21.3067 201.823C20.9596 201.949 20.605 202.053 20.245 202.135L4.74444 191.407C4.72143 191.365 4.69581 191.326 4.67262 191.284L4.03418 190.884C4.13479 190.792 4.24113 190.698 4.34174 190.605C4.39988 190.551 4.46149 190.5 4.51961 190.446C4.55946 190.41 4.59951 190.375 4.63346 190.341C4.64668 190.329 4.66008 190.318 4.67087 190.309C4.70483 190.275 4.73997 190.247 4.77148 190.217C5.36443 189.69 5.96211 189.167 6.56451 188.647C6.56695 188.644 6.56696 188.644 6.57286 188.643C11.173 184.693 16.1426 181.093 21.4998 178.363C21.661 178.281 21.8245 178.195 21.9928 178.118C24.4143 176.901 26.9312 175.884 29.5181 175.078C30.936 174.641 32.3751 174.276 33.8299 173.985C37.5902 173.24 41.4441 173.092 45.2503 173.547C52.8378 174.454 60.0512 177.782 64.7538 183.69C64.874 183.842 64.991 183.991 65.1087 184.145Z" fill="#F2F2F2"/>
<path d="M64.938 184.324C56.1602 180.518 46.4081 179.578 37.0671 181.64C35.0484 182.048 33.1064 182.773 31.3128 183.786C29.5974 184.831 28.1925 186.316 27.2439 188.088C26.3264 189.722 25.5768 191.501 24.2786 192.883C23.6036 193.581 22.7889 194.128 21.8881 194.488C20.9872 194.849 20.0205 195.014 19.0513 194.974C16.6339 194.937 14.3739 194.032 12.1946 193.069C9.77485 192.001 7.27838 190.853 4.5731 190.956C4.24532 190.968 4.24521 190.458 4.5725 190.446C9.27921 190.267 13.1001 193.633 17.6266 194.34C19.7388 194.669 21.9629 194.364 23.5797 192.86C24.9934 191.545 25.768 189.712 26.6828 188.049C27.5828 186.307 28.895 184.812 30.5048 183.695C32.2411 182.593 34.152 181.794 36.1555 181.335C40.6498 180.227 45.2898 179.835 49.9058 180.171C55.1761 180.526 60.3469 181.782 65.1946 183.883C65.4946 184.013 65.2361 184.453 64.938 184.324Z" fill="white"/>
<path d="M40.0361 180.799C39.9036 179.182 40.3491 177.57 41.2931 176.252C42.2371 174.934 43.6182 173.995 45.1896 173.602C45.5079 173.524 45.6443 174.016 45.3256 174.094C43.8616 174.457 42.5752 175.332 41.6987 176.561C40.8221 177.79 40.4131 179.293 40.5454 180.798C40.5738 181.125 40.0643 181.124 40.0361 180.799Z" fill="white"/>
<path d="M27.6002 187.191C30.1057 189.359 33.3347 190.501 36.6435 190.39C36.9713 190.378 36.9715 190.889 36.6441 190.9C33.2007 191.009 29.8428 189.814 27.2405 187.552C26.9926 187.336 27.3537 186.976 27.6002 187.191Z" fill="white"/>
<path d="M54.8667 181.122C54.7879 181.758 54.868 182.404 55.1 183.002C55.332 183.6 55.7085 184.13 56.1957 184.546C56.4462 184.758 56.0848 185.118 55.836 184.907C55.2998 184.445 54.8847 183.859 54.627 183.199C54.3692 182.539 54.2767 181.826 54.3574 181.123C54.3595 181.056 54.3869 180.992 54.4342 180.944C54.4814 180.897 54.5449 180.869 54.6118 180.867C54.6792 180.867 54.7438 180.894 54.7915 180.942C54.8393 180.99 54.8663 181.054 54.8667 181.122Z" fill="white"/>
<path d="M319.639 229.857C315.294 219.131 305.504 210.041 293.974 209.266C301.195 219.568 304.546 232.098 303.434 244.637C302.987 249.471 301.988 254.801 304.701 258.825C306.388 261.328 309.277 262.815 312.228 263.437C315.179 264.059 318.23 263.914 321.243 263.766L321.927 264.08C323.712 252.642 323.985 240.584 319.639 229.857Z" fill="#F2F2F2"/>
<path d="M293.925 209.506C301.924 214.759 308.068 222.404 311.482 231.355C312.252 233.268 312.715 235.292 312.855 237.35C312.927 239.359 312.461 241.351 311.505 243.119C310.646 244.785 309.575 246.39 309.135 248.236C308.925 249.185 308.916 250.167 309.111 251.119C309.305 252.071 309.699 252.971 310.265 253.76C311.625 255.763 313.622 257.156 315.622 258.451C317.843 259.889 320.172 261.347 321.574 263.668C321.743 263.949 322.169 263.669 321.999 263.388C319.561 259.351 314.655 258.003 311.577 254.604C310.141 253.017 309.173 250.988 309.539 248.809C309.858 246.903 310.961 245.247 311.845 243.567C312.804 241.857 313.329 239.937 313.376 237.975C313.341 235.917 312.956 233.879 312.238 231.95C310.691 227.58 308.468 223.481 305.651 219.803C302.458 215.588 298.569 211.95 294.152 209.049C293.878 208.869 293.654 209.327 293.925 209.506Z" fill="white"/>
<path d="M310.552 228.405C311.974 227.627 313.073 226.369 313.653 224.854C314.233 223.34 314.258 221.668 313.721 220.137C313.611 219.828 313.126 219.984 313.236 220.293C313.738 221.718 313.716 223.275 313.172 224.685C312.629 226.094 311.601 227.262 310.273 227.978C309.985 228.135 310.266 228.56 310.552 228.405Z" fill="white"/>
<path d="M312.051 242.332C308.866 241.427 306.139 239.353 304.413 236.523C304.242 236.242 303.817 236.522 303.987 236.802C305.789 239.744 308.631 241.897 311.948 242.832C312.264 242.921 312.366 242.421 312.051 242.332Z" fill="white"/>
<path d="M302.127 216.174C301.639 216.59 301.057 216.878 300.431 217.012C299.805 217.147 299.155 217.123 298.541 216.944C298.226 216.851 298.125 217.351 298.437 217.443C299.117 217.638 299.835 217.663 300.526 217.516C301.218 217.369 301.864 217.055 302.406 216.601C302.461 216.562 302.499 216.504 302.512 216.439C302.526 216.373 302.514 216.305 302.479 216.247C302.442 216.191 302.384 216.152 302.318 216.138C302.252 216.124 302.183 216.137 302.127 216.174Z" fill="white"/>
<path d="M267.075 237.724C267.27 237.788 267.465 237.852 267.661 237.919C270.278 238.788 272.82 239.867 275.263 241.148C275.453 241.244 275.644 241.344 275.832 241.446C281.683 244.594 286.9 248.803 291.217 253.859C292.933 255.872 294.494 258.014 295.885 260.264C297.807 263.373 299.644 266.896 302.398 269.122C302.683 269.357 302.982 269.575 303.293 269.773L321.491 264.888C321.527 264.856 321.564 264.828 321.6 264.796L322.336 264.634C322.272 264.513 322.203 264.389 322.14 264.268C322.103 264.197 322.062 264.128 322.026 264.058C322 264.011 321.974 263.965 321.954 263.921C321.945 263.906 321.936 263.89 321.929 263.879C321.908 263.835 321.885 263.797 321.865 263.758C321.483 263.062 321.096 262.368 320.703 261.676C320.702 261.671 320.702 261.671 320.697 261.668C317.69 256.399 314.217 251.336 310.087 246.961C309.963 246.829 309.838 246.694 309.705 246.564C307.833 244.603 305.804 242.798 303.638 241.167C302.449 240.278 301.216 239.45 299.943 238.686C296.652 236.719 293.072 235.282 289.334 234.428C281.884 232.728 273.974 233.434 267.562 237.415C267.398 237.517 267.238 237.618 267.075 237.724Z" fill="#F2F2F2"/>
<path d="M267.178 237.945C276.723 237.316 286.222 239.714 294.328 244.801C296.093 245.865 297.679 247.201 299.028 248.76C300.293 250.321 301.118 252.193 301.417 254.181C301.732 256.029 301.842 257.957 302.601 259.696C303.002 260.58 303.586 261.37 304.314 262.013C305.041 262.655 305.896 263.137 306.822 263.425C309.112 264.204 311.544 264.112 313.919 263.94C316.557 263.749 319.293 263.508 321.806 264.515C322.111 264.638 322.282 264.157 321.978 264.035C317.605 262.282 312.877 264.165 308.377 263.307C306.277 262.907 304.285 261.87 303.267 259.909C302.376 258.195 302.262 256.208 301.958 254.334C301.695 252.39 300.961 250.54 299.819 248.946C298.554 247.323 297.022 245.928 295.289 244.82C291.428 242.264 287.19 240.332 282.729 239.095C277.646 237.655 272.355 237.097 267.084 237.444C266.758 237.465 266.854 237.967 267.178 237.945Z" fill="white"/>
<path d="M291.814 243.01C292.482 241.532 292.603 239.865 292.156 238.305C291.709 236.746 290.724 235.396 289.375 234.498C289.102 234.317 288.808 234.734 289.082 234.915C290.339 235.75 291.257 237.007 291.67 238.46C292.084 239.913 291.965 241.466 291.335 242.838C291.199 243.137 291.679 243.307 291.814 243.01Z" fill="white"/>
<path d="M301.38 253.223C298.293 254.421 294.868 254.41 291.789 253.191C291.484 253.07 291.313 253.551 291.617 253.672C294.824 254.934 298.388 254.939 301.597 253.685C301.903 253.565 301.684 253.104 301.38 253.223Z" fill="white"/>
<path d="M277.736 238.325C277.597 238.951 277.304 239.532 276.886 240.017C276.467 240.502 275.934 240.875 275.336 241.102C275.028 241.218 275.248 241.679 275.553 241.564C276.213 241.309 276.801 240.896 277.265 240.362C277.729 239.827 278.055 239.187 278.215 238.497C278.236 238.433 278.231 238.364 278.203 238.303C278.174 238.243 278.124 238.195 278.062 238.171C277.998 238.148 277.928 238.152 277.867 238.181C277.806 238.21 277.759 238.262 277.736 238.325Z" fill="white"/>
<path d="M235.327 266.383C237.692 266.383 239.608 264.462 239.608 262.094C239.608 259.725 237.692 257.805 235.327 257.805C232.962 257.805 231.045 259.725 231.045 262.094C231.045 264.462 232.962 266.383 235.327 266.383Z" fill="#FD6584"/>
<path d="M250.492 193.328C252.857 193.328 254.774 191.408 254.774 189.039C254.774 186.67 252.857 184.75 250.492 184.75C248.128 184.75 246.211 186.67 246.211 189.039C246.211 191.408 248.128 193.328 250.492 193.328Z" fill="#E6E6E6"/>
<path d="M170.824 74.3592C173.189 74.3592 175.106 72.439 175.106 70.0702C175.106 67.7015 173.189 65.7812 170.824 65.7812C168.459 65.7812 166.542 67.7015 166.542 70.0702C166.542 72.439 168.459 74.3592 170.824 74.3592Z" fill="#E6E6E6"/>
<path d="M81.1026 234.598C81.1026 235.69 81.1385 236.781 81.2147 237.864C81.2954 239.158 81.4345 240.443 81.6229 241.719C82.2559 246.016 83.4659 250.206 85.2199 254.178C85.3096 254.376 85.3993 254.573 85.489 254.771L85.6236 255.068C85.6684 255.167 85.7178 255.265 85.7626 255.36C85.8254 255.49 85.8837 255.616 85.9465 255.742C86.0228 255.899 86.099 256.056 86.1797 256.213C86.1887 256.231 86.1977 256.254 86.2111 256.276C86.2784 256.411 86.3412 256.541 86.413 256.676C86.4262 256.706 86.4411 256.734 86.4578 256.762C86.5341 256.914 86.6148 257.072 86.6955 257.224C86.7852 257.386 86.8705 257.552 86.9602 257.714C87.1754 258.114 87.3997 258.509 87.6284 258.905C87.6957 259.021 87.763 259.138 87.8348 259.255C87.8975 259.363 87.9603 259.471 88.0276 259.579C88.0725 259.65 88.1173 259.727 88.1622 259.799C88.2339 259.92 88.3057 260.037 88.3819 260.158C88.5479 260.423 88.7183 260.688 88.8843 260.953H88.8888C88.965 261.075 89.0457 261.196 89.1265 261.313V261.317C89.3642 261.677 89.6109 262.036 89.8575 262.391L89.8593 262.392L89.8607 262.392L89.8617 262.394L89.862 262.396C90.0594 262.683 90.2657 262.962 90.4675 263.24V263.245C90.6021 263.42 90.7321 263.6 90.8667 263.775C90.9743 263.919 91.0865 264.067 91.1986 264.211C91.221 264.242 91.2479 264.269 91.2704 264.301V264.305C91.3018 264.346 91.3331 264.382 91.3645 264.422C91.84 265.033 92.3304 265.631 92.8357 266.215L92.9164 266.309C92.9433 266.34 92.9747 266.372 93.0016 266.408C93.0465 266.457 93.0868 266.507 93.1317 266.556C93.172 266.606 93.2169 266.655 93.2618 266.704C95.8959 269.677 98.8827 272.316 102.156 274.563C102.591 274.864 103.035 275.156 103.479 275.439C103.591 275.511 103.703 275.582 103.815 275.65C103.847 275.672 103.883 275.695 103.914 275.717C103.977 275.753 104.035 275.789 104.098 275.83C104.156 275.866 104.214 275.901 104.277 275.937C104.515 276.086 104.757 276.229 104.999 276.373C105.058 276.409 105.12 276.445 105.183 276.481C105.242 276.513 105.304 276.549 105.367 276.584C105.367 276.589 105.367 276.589 105.372 276.589H105.376V276.593H105.381C105.681 276.769 105.986 276.939 106.296 277.106C106.461 277.195 106.632 277.29 106.802 277.375C107.188 277.586 107.578 277.789 107.968 277.982C108.108 278.049 108.251 278.117 108.39 278.188C108.507 278.242 108.623 278.301 108.74 278.355C108.776 278.373 108.807 278.386 108.839 278.404C108.937 278.449 109.031 278.494 109.13 278.539C109.238 278.588 109.345 278.638 109.449 278.687C109.57 278.741 109.686 278.795 109.807 278.844C110.256 279.047 110.709 279.24 111.162 279.424C112.785 280.091 114.444 280.667 116.131 281.149C116.208 281.172 116.288 281.194 116.369 281.217C117.091 281.419 117.818 281.603 118.549 281.769C119.827 282.066 121.117 282.308 122.42 282.497H122.429C122.586 282.52 122.738 282.542 122.895 282.565C122.908 282.565 122.922 282.569 122.94 282.569C122.94 282.574 122.94 282.574 122.944 282.569C123.115 282.591 123.29 282.614 123.46 282.636C123.472 282.64 123.484 282.641 123.496 282.641C123.657 282.663 123.823 282.681 123.985 282.699C124.16 282.717 124.335 282.735 124.51 282.753C124.644 282.767 124.779 282.78 124.913 282.794C124.925 282.798 124.937 282.799 124.949 282.798C125.07 282.807 125.191 282.821 125.312 282.83H125.33C125.434 282.839 125.541 282.848 125.644 282.857C126.896 282.955 128.152 283 129.425 283C130.802 283 132.17 282.946 133.52 282.83H133.534C133.825 282.803 134.112 282.776 134.399 282.749C134.476 282.74 134.547 282.735 134.624 282.726C134.637 282.726 134.655 282.722 134.668 282.722C134.691 282.717 134.713 282.717 134.74 282.713C134.752 282.713 134.764 282.712 134.776 282.708C134.875 282.699 134.973 282.686 135.077 282.677L135.413 282.636C135.525 282.623 135.637 282.605 135.749 282.591C135.776 282.587 135.799 282.587 135.826 282.582C135.906 282.574 135.987 282.56 136.068 282.547C136.108 282.542 136.149 282.538 136.184 282.533C136.265 282.52 136.341 282.511 136.422 282.497H136.427C138.888 282.142 141.317 281.594 143.693 280.857C143.818 280.817 143.944 280.781 144.069 280.74C144.074 280.74 144.078 280.736 144.083 280.736C144.119 280.722 144.159 280.713 144.195 280.7C144.531 280.592 144.863 280.48 145.195 280.363C145.653 280.21 146.106 280.044 146.559 279.873C146.68 279.824 146.801 279.779 146.922 279.73C147.169 279.635 147.411 279.536 147.653 279.437C148.066 279.271 148.478 279.096 148.886 278.916C149.268 278.746 149.644 278.575 150.021 278.395C150.03 278.391 150.043 278.391 150.052 278.382C150.138 278.341 150.223 278.301 150.304 278.26H150.308C152.374 277.267 154.366 276.128 156.269 274.85C156.879 274.441 157.48 274.019 158.072 273.583C158.547 273.228 159.014 272.869 159.48 272.5C161.781 270.667 163.912 268.628 165.845 266.408V266.403C165.984 266.251 166.114 266.093 166.248 265.936C166.271 265.914 166.289 265.891 166.307 265.873C166.392 265.77 166.472 265.671 166.558 265.572V265.568C166.67 265.437 166.782 265.303 166.89 265.168C166.917 265.136 166.939 265.109 166.961 265.082V265.078C167.051 264.97 167.136 264.862 167.226 264.75C167.271 264.696 167.311 264.642 167.356 264.588V264.584C167.621 264.251 167.876 263.919 168.132 263.577C168.199 263.487 168.267 263.393 168.338 263.299C168.661 262.863 168.975 262.418 169.28 261.973V261.969C169.397 261.803 169.509 261.632 169.626 261.466C169.738 261.295 169.85 261.124 169.962 260.953C170.074 260.774 170.191 260.599 170.303 260.419L170.316 260.392C170.428 260.221 170.541 260.041 170.648 259.866C170.733 259.722 170.819 259.583 170.904 259.444C170.958 259.35 171.016 259.255 171.07 259.156C171.091 259.126 171.11 259.094 171.128 259.062C171.254 258.842 171.379 258.622 171.505 258.402C171.653 258.145 171.796 257.885 171.94 257.624C171.994 257.516 172.052 257.409 172.11 257.301C172.133 257.265 172.151 257.229 172.169 257.193C172.236 257.067 172.303 256.937 172.366 256.807C172.433 256.681 172.5 256.55 172.568 256.42C172.631 256.294 172.698 256.164 172.761 256.034C172.81 255.935 172.855 255.836 172.904 255.737C172.908 255.729 172.912 255.722 172.918 255.715C172.94 255.665 172.962 255.62 172.98 255.575C172.986 255.569 172.99 255.561 172.994 255.553C173.043 255.454 173.088 255.351 173.137 255.252C173.2 255.122 173.258 254.987 173.321 254.857C173.362 254.767 173.406 254.672 173.447 254.578C173.505 254.448 173.568 254.317 173.622 254.183C173.685 254.048 173.743 253.913 173.801 253.774C173.818 253.74 173.833 253.706 173.846 253.67C173.877 253.608 173.9 253.545 173.927 253.482C173.999 253.315 174.07 253.145 174.138 252.979C174.218 252.79 174.295 252.597 174.366 252.408C174.438 252.233 174.505 252.053 174.573 251.873L174.6 251.81C175.645 249.053 176.437 246.206 176.968 243.305V243.301C177.267 241.644 177.481 239.974 177.609 238.296C177.614 238.201 177.623 238.111 177.627 238.021C177.708 236.885 177.744 235.744 177.744 234.598C177.744 234.09 177.735 233.587 177.721 233.084C177.408 222.56 173.662 212.428 167.056 204.239C166.912 204.059 166.768 203.88 166.62 203.7C166.472 203.52 166.32 203.345 166.172 203.17C161.255 197.402 155.054 192.872 148.069 189.945C141.084 187.018 133.51 185.776 125.958 186.32C118.406 186.863 111.087 189.177 104.591 193.073C98.0955 196.97 92.6047 202.342 88.5614 208.754C88.3416 209.105 88.1218 209.46 87.911 209.815C87.6957 210.174 87.4894 210.534 87.2831 210.898C83.2199 218.133 81.0909 226.296 81.1026 234.598Z" fill="#F2F2F2"/>
<path d="M127.504 202.937C135.45 204.979 143.593 206.157 151.791 206.448C153.03 206.516 154.273 206.507 155.512 206.423C158.234 206.194 160.565 205.337 163.162 204.868C164.41 204.644 165.801 204.479 167.058 204.237C166.767 203.876 166.472 203.519 166.171 203.167C163.461 203.397 160.709 204.148 157.966 204.496C153.304 205.09 148.081 204.428 144.546 202.793C142.832 202 141.518 201.01 139.81 200.214C139.577 200.094 139.326 200.017 139.066 199.986C138.574 199.971 138.087 200.097 137.664 200.35C134.797 201.8 130.635 202.978 126.772 202.33C126.484 202.555 127.031 202.813 127.504 202.937Z" fill="white"/>
<path d="M110.41 208.036C110.374 208.029 110.339 208.024 110.304 208.018C110.452 207.926 110.592 207.821 110.721 207.703L110.41 208.036Z" fill="white"/>
<path d="M87.2842 210.897C88.8976 211.026 90.5195 211.122 92.1498 211.185C93.3895 211.253 94.6321 211.244 95.8708 211.16C98.5928 210.93 100.924 210.074 103.521 209.605C105.901 209.177 108.793 208.971 110.304 208.019C106.399 207.342 102.352 208.721 98.3253 209.234C95.0679 209.635 91.7659 209.472 88.5639 208.751C88.118 209.453 87.6915 210.169 87.2842 210.897Z" fill="white"/>
<path d="M106.802 277.374C107.188 277.585 107.578 277.788 107.968 277.981C108.107 278.048 108.251 278.116 108.39 278.188C108.507 278.241 108.623 278.3 108.74 278.354C108.776 278.372 108.807 278.385 108.838 278.403C108.937 278.448 109.031 278.493 109.13 278.538C109.238 278.587 109.345 278.637 109.448 278.686C109.57 278.74 109.686 278.794 109.807 278.843C110.256 279.046 110.709 279.239 111.162 279.423C112.785 280.09 114.444 280.666 116.131 281.148C116.208 281.171 116.288 281.193 116.369 281.216C117.091 281.418 117.818 281.602 118.549 281.768C119.827 282.065 121.117 282.308 122.419 282.496H122.428C122.585 282.519 122.738 282.541 122.895 282.564C122.908 282.564 122.922 282.568 122.94 282.568C122.94 282.573 122.94 282.573 122.944 282.568C123.115 282.591 123.29 282.613 123.46 282.636C123.472 282.639 123.484 282.641 123.496 282.64C123.657 282.662 123.823 282.68 123.985 282.698C124.16 282.716 124.335 282.734 124.51 282.752C124.644 282.766 124.779 282.779 124.913 282.793C124.925 282.797 124.937 282.798 124.949 282.797C125.07 282.806 125.191 282.82 125.312 282.829H125.33C125.433 282.838 125.541 282.847 125.644 282.856C126.896 282.955 128.151 282.999 129.425 282.999C130.802 282.999 132.17 282.946 133.52 282.829H133.534C133.825 282.802 134.112 282.775 134.399 282.748C134.475 282.739 134.547 282.734 134.624 282.725C134.637 282.725 134.655 282.721 134.668 282.721C134.691 282.716 134.713 282.716 134.74 282.712C134.752 282.712 134.764 282.711 134.776 282.707C134.875 282.698 134.973 282.685 135.077 282.676L135.413 282.636C135.525 282.622 135.637 282.604 135.749 282.591C135.776 282.586 135.799 282.586 135.826 282.582C135.906 282.573 135.987 282.559 136.068 282.546C136.108 282.541 136.148 282.537 136.184 282.532C136.265 282.519 136.341 282.51 136.422 282.496H136.427C138.888 282.141 141.317 281.593 143.692 280.856C143.818 280.816 143.944 280.78 144.069 280.74C143.49 278.034 142.298 275.498 140.585 273.328C138.871 271.157 136.683 269.41 134.188 268.222C134.805 267.633 135.232 266.873 135.413 266.039C135.529 265.501 135.539 264.945 135.44 264.404C135.342 263.863 135.137 263.346 134.839 262.885C134.257 261.989 133.344 261.362 132.3 261.141L125.653 259.748C124.583 259.539 123.474 259.762 122.567 260.368C121.66 260.974 121.028 261.914 120.809 262.983C120.742 263.311 120.711 263.646 120.72 263.981C114.319 268.249 109.713 272.675 106.802 277.374Z" fill="#87C346"/>
<path d="M126.429 257.119C134.077 257.119 140.277 250.909 140.277 243.247C140.277 235.586 134.077 229.375 126.429 229.375C118.781 229.375 112.581 235.586 112.581 243.247C112.581 250.909 118.781 257.119 126.429 257.119Z" fill="#FFB8B8"/>
<path d="M117.797 255.204C116.32 254.194 114.812 252.252 113.805 250.797C112.471 248.884 111.553 246.711 111.111 244.42C110.669 242.129 110.712 239.77 111.238 237.497C111.406 236.588 111.818 235.742 112.43 235.051C113.082 234.404 114.147 234.097 114.943 234.555C114.726 233.972 114.63 233.351 114.662 232.729C114.694 232.108 114.852 231.5 115.128 230.942C115.687 229.829 116.498 228.862 117.496 228.117C119.404 226.646 121.674 225.719 124.065 225.435C126.457 225.151 128.88 225.522 131.078 226.506C131.943 226.908 130.523 223.807 131.428 224.106C132.327 224.455 133.327 224.437 134.214 224.057C135.066 223.628 137.888 226.179 137.562 225.282C138.208 225.575 138.769 226.028 139.194 226.598C139.618 227.168 139.892 227.836 139.989 228.541C140.086 229.245 140.004 229.962 139.75 230.626C139.496 231.29 139.078 231.878 138.536 232.337C137.821 232.941 136.929 233.289 136.146 233.803C134.775 234.769 133.804 236.204 133.418 237.838C133.031 239.473 133.255 241.192 134.047 242.672C133.224 242.142 132.321 241.749 131.372 241.507C130.896 241.391 130.4 241.39 129.923 241.505C129.447 241.62 129.005 241.847 128.634 242.167C128.324 242.522 128.09 242.937 127.946 243.387C127.802 243.836 127.751 244.31 127.797 244.78C127.828 245.721 128.051 246.649 128.076 247.59C128.15 250.353 129.627 255.606 127.489 257.074C125.801 258.233 119.813 256.584 117.797 255.204Z" fill="#2F2E41"/>
<path d="M362.545 16.7592H0.454508C0.333045 16.7565 0.217466 16.7062 0.132516 16.6192C0.0475657 16.5322 0 16.4153 0 16.2936C0 16.1719 0.0475657 16.0551 0.132516 15.9681C0.217466 15.8811 0.333045 15.8308 0.454508 15.8281H362.545C362.667 15.8308 362.782 15.8811 362.867 15.9681C362.952 16.0551 363 16.1719 363 16.2936C363 16.4153 362.952 16.5322 362.867 16.6192C362.782 16.7062 362.667 16.7565 362.545 16.7592Z" fill="#CACACA"/>
<path d="M10.6859 10.2414C13.4475 10.2414 15.6862 7.94877 15.6862 5.12069C15.6862 2.29261 13.4475 0 10.6859 0C7.92427 0 5.68555 2.29261 5.68555 5.12069C5.68555 7.94877 7.92427 10.2414 10.6859 10.2414Z" fill="#3F3D56"/>
<path d="M27.9598 10.2414C30.7214 10.2414 32.9601 7.94877 32.9601 5.12069C32.9601 2.29261 30.7214 0 27.9598 0C25.1982 0 22.9595 2.29261 22.9595 5.12069C22.9595 7.94877 25.1982 10.2414 27.9598 10.2414Z" fill="#3F3D56"/>
<path d="M45.2337 10.2414C47.9953 10.2414 50.2341 7.94877 50.2341 5.12069C50.2341 2.29261 47.9953 0 45.2337 0C42.4721 0 40.2334 2.29261 40.2334 5.12069C40.2334 7.94877 42.4721 10.2414 45.2337 10.2414Z" fill="#3F3D56"/>
<path d="M352.196 3.13551H339.922C339.679 3.13013 339.448 3.02968 339.278 2.85566C339.108 2.68165 339.013 2.4479 339.013 2.20447C339.013 1.96104 339.108 1.7273 339.278 1.55328C339.448 1.37926 339.679 1.27881 339.922 1.27344H352.196C352.439 1.27881 352.67 1.37926 352.84 1.55328C353.01 1.7273 353.105 1.96104 353.105 2.20447C353.105 2.4479 353.01 2.68165 352.84 2.85566C352.67 3.02968 352.439 3.13013 352.196 3.13551Z" fill="#3F3D56"/>
<path d="M352.196 6.61988H339.922C339.679 6.61454 339.448 6.51409 339.278 6.34007C339.108 6.16605 339.013 5.93229 339.013 5.68884C339.013 5.4454 339.108 5.21164 339.278 5.03762C339.448 4.8636 339.679 4.76316 339.922 4.75781H352.196C352.439 4.76316 352.67 4.8636 352.84 5.03762C353.01 5.21164 353.105 5.4454 353.105 5.68884C353.105 5.93229 353.01 6.16605 352.84 6.34007C352.67 6.51409 352.439 6.61454 352.196 6.61988Z" fill="#3F3D56"/>
<path d="M352.196 10.1121H339.922C339.679 10.1067 339.448 10.0063 339.278 9.83226C339.108 9.65824 339.013 9.42447 339.013 9.18103C339.013 8.93759 339.108 8.70383 339.278 8.52981C339.448 8.35579 339.679 8.25535 339.922 8.25H352.196C352.439 8.25535 352.67 8.35579 352.84 8.52981C353.01 8.70383 353.105 8.93759 353.105 9.18103C353.105 9.42447 353.01 9.65824 352.84 9.83226C352.67 10.0063 352.439 10.1067 352.196 10.1121Z" fill="#3F3D56"/>
<path d="M135.95 173.815C135.659 173.814 135.37 173.756 135.101 173.643C134.7 173.481 134.356 173.202 134.116 172.842C133.875 172.481 133.749 172.057 133.754 171.623V169.427C133.753 168.967 133.57 168.525 133.245 168.2C132.92 167.874 132.479 167.691 132.02 167.69C131.441 167.689 130.886 167.459 130.477 167.049C130.068 166.639 129.838 166.083 129.837 165.504V135.421C129.838 134.841 130.068 134.286 130.477 133.876C130.886 133.466 131.441 133.235 132.019 133.234H231.512C232.09 133.235 232.645 133.466 233.054 133.876C233.463 134.285 233.694 134.841 233.694 135.421V165.504C233.694 166.083 233.463 166.639 233.054 167.049C232.645 167.459 232.09 167.689 231.512 167.69H143.668C143.44 167.69 143.214 167.734 143.004 167.821C142.793 167.909 142.602 168.037 142.441 168.199L137.48 173.169C137.28 173.373 137.042 173.535 136.78 173.646C136.517 173.756 136.235 173.814 135.95 173.815Z" fill="white"/>
<path d="M135.951 174.26C135.6 174.26 135.253 174.19 134.929 174.054C134.445 173.859 134.032 173.523 133.742 173.088C133.452 172.654 133.3 172.142 133.306 171.619V169.424C133.305 169.082 133.17 168.755 132.929 168.513C132.688 168.272 132.361 168.136 132.02 168.136C131.322 168.135 130.653 167.857 130.16 167.363C129.667 166.868 129.389 166.198 129.389 165.499V135.417C129.389 134.718 129.667 134.048 130.16 133.554C130.653 133.06 131.322 132.782 132.02 132.781H231.512C232.209 132.782 232.878 133.06 233.372 133.554C233.865 134.048 234.142 134.718 234.143 135.417V165.499C234.142 166.198 233.865 166.868 233.372 167.363C232.878 167.857 232.209 168.135 231.512 168.136H143.668C143.499 168.135 143.332 168.168 143.176 168.233C143.02 168.298 142.878 168.393 142.759 168.513L137.797 173.483C137.556 173.728 137.269 173.924 136.952 174.057C136.635 174.19 136.294 174.26 135.951 174.26ZM132.02 133.68C131.56 133.68 131.119 133.864 130.794 134.189C130.469 134.515 130.286 134.957 130.286 135.417V165.5C130.286 165.96 130.469 166.402 130.794 166.728C131.119 167.053 131.56 167.237 132.02 167.237C132.599 167.238 133.153 167.468 133.563 167.878C133.972 168.288 134.202 168.844 134.203 169.424V171.619C134.203 171.963 134.304 172.299 134.495 172.584C134.686 172.87 134.956 173.093 135.273 173.224C135.59 173.356 135.939 173.39 136.275 173.323C136.611 173.256 136.92 173.09 137.163 172.848L142.125 167.878C142.327 167.674 142.567 167.512 142.832 167.402C143.097 167.292 143.381 167.236 143.668 167.237H231.512C231.972 167.237 232.413 167.053 232.738 166.728C233.063 166.402 233.246 165.96 233.246 165.5V135.417C233.246 134.957 233.063 134.515 232.738 134.189C232.412 133.864 231.972 133.68 231.512 133.68L132.02 133.68Z" fill="#3F3D56"/>
<path d="M222.962 146.852H142.284C141.976 146.852 141.68 146.729 141.462 146.511C141.244 146.292 141.122 145.996 141.122 145.687C141.122 145.379 141.244 145.083 141.462 144.864C141.68 144.646 141.976 144.523 142.284 144.523H222.962C223.27 144.523 223.566 144.646 223.783 144.864C224.001 145.083 224.124 145.379 224.124 145.687C224.124 145.996 224.001 146.292 223.783 146.511C223.566 146.729 223.27 146.852 222.962 146.852Z" fill="#87C346"/>
<path d="M222.814 151.797H142.284C141.976 151.797 141.68 151.674 141.462 151.456C141.244 151.238 141.122 150.942 141.122 150.633C141.122 150.324 141.244 150.028 141.462 149.81C141.68 149.591 141.976 149.469 142.284 149.469H222.814C223.122 149.469 223.417 149.591 223.635 149.81C223.853 150.028 223.976 150.324 223.976 150.633C223.976 150.942 223.853 151.238 223.635 151.456C223.417 151.674 223.122 151.797 222.814 151.797Z" fill="#E6E6E6"/>
<path d="M222.733 156.742H142.284C141.976 156.742 141.68 156.62 141.462 156.401C141.244 156.183 141.122 155.887 141.122 155.578C141.122 155.269 141.244 154.973 141.462 154.755C141.68 154.537 141.976 154.414 142.284 154.414H222.733C223.042 154.414 223.337 154.537 223.555 154.755C223.773 154.973 223.895 155.269 223.895 155.578C223.895 155.887 223.773 156.183 223.555 156.401C223.337 156.62 223.042 156.742 222.733 156.742Z" fill="#E6E6E6"/>
<path d="M350.013 128.567C350.013 129.658 349.977 130.75 349.9 131.833C349.82 133.127 349.681 134.412 349.492 135.688C348.859 139.984 347.649 144.175 345.895 148.147C345.806 148.345 345.716 148.542 345.626 148.74L345.492 149.036C345.447 149.135 345.397 149.234 345.353 149.329C345.29 149.459 345.231 149.585 345.169 149.71C345.092 149.868 345.016 150.025 344.935 150.182C344.926 150.2 344.918 150.223 344.904 150.245C344.837 150.38 344.774 150.51 344.702 150.645C344.689 150.674 344.674 150.703 344.657 150.73C344.581 150.883 344.5 151.04 344.42 151.193C344.33 151.355 344.245 151.521 344.155 151.683C343.94 152.083 343.716 152.478 343.487 152.873C343.419 152.99 343.352 153.107 343.28 153.224C343.218 153.332 343.155 153.44 343.088 153.547C343.043 153.619 342.998 153.696 342.953 153.768C342.881 153.889 342.809 154.006 342.733 154.127C342.567 154.392 342.397 154.657 342.231 154.922H342.226C342.15 155.044 342.069 155.165 341.989 155.282V155.286C341.751 155.646 341.504 156.005 341.258 156.36C341.257 156.36 341.256 156.36 341.256 156.36C341.255 156.36 341.255 156.361 341.254 156.361C341.254 156.362 341.254 156.362 341.253 156.363C341.253 156.363 341.253 156.364 341.253 156.364C341.056 156.652 340.849 156.931 340.648 157.209V157.214C340.513 157.389 340.383 157.569 340.248 157.744C340.141 157.888 340.029 158.036 339.917 158.18C339.894 158.211 339.867 158.238 339.845 158.269V158.274C339.813 158.314 339.782 158.35 339.751 158.391C339.275 159.002 338.785 159.599 338.28 160.183L338.199 160.278C338.172 160.309 338.14 160.341 338.114 160.377C338.069 160.426 338.028 160.475 337.983 160.525C337.943 160.574 337.898 160.624 337.853 160.673C335.219 163.646 332.232 166.285 328.959 168.531C328.524 168.832 328.08 169.124 327.636 169.407C327.524 169.479 327.412 169.551 327.3 169.619C327.269 169.641 327.233 169.664 327.201 169.686C327.138 169.722 327.08 169.758 327.017 169.798C326.959 169.834 326.901 169.87 326.838 169.906C326.6 170.054 326.358 170.198 326.116 170.342C326.058 170.378 325.995 170.414 325.932 170.45C325.874 170.481 325.811 170.517 325.748 170.553C325.748 170.558 325.748 170.558 325.744 170.558H325.739V170.562H325.735C325.434 170.737 325.129 170.908 324.82 171.074C324.654 171.164 324.483 171.259 324.313 171.344C323.927 171.555 323.537 171.757 323.147 171.95C323.008 172.018 322.864 172.085 322.725 172.157C322.608 172.211 322.492 172.269 322.375 172.323C322.339 172.341 322.308 172.355 322.277 172.373C322.178 172.418 322.084 172.463 321.985 172.508C321.877 172.557 321.77 172.606 321.667 172.656C321.546 172.71 321.429 172.764 321.308 172.813C320.859 173.015 320.406 173.209 319.953 173.393C318.33 174.059 316.671 174.635 314.984 175.118C314.908 175.141 314.827 175.163 314.746 175.185C314.024 175.388 313.297 175.572 312.566 175.738C311.288 176.035 309.998 176.277 308.696 176.466H308.687C308.53 176.488 308.377 176.511 308.22 176.533C308.207 176.533 308.193 176.538 308.175 176.538C308.175 176.542 308.175 176.542 308.171 176.538C308 176.56 307.826 176.583 307.655 176.605C307.643 176.609 307.631 176.61 307.619 176.61C307.458 176.632 307.292 176.65 307.13 176.668C306.955 176.686 306.78 176.704 306.606 176.722C306.471 176.735 306.336 176.749 306.202 176.762C306.19 176.766 306.178 176.768 306.166 176.767C306.045 176.776 305.924 176.789 305.803 176.798H305.785C305.682 176.807 305.574 176.816 305.471 176.825C304.219 176.924 302.964 176.969 301.69 176.969C300.313 176.969 298.945 176.915 297.595 176.798H297.581C297.29 176.771 297.003 176.744 296.716 176.718C296.64 176.709 296.568 176.704 296.492 176.695C296.478 176.695 296.46 176.691 296.447 176.691C296.424 176.686 296.402 176.686 296.375 176.682C296.363 176.682 296.351 176.681 296.339 176.677C296.24 176.668 296.142 176.655 296.039 176.646L295.702 176.605C295.59 176.592 295.478 176.574 295.366 176.56C295.339 176.556 295.316 176.556 295.29 176.551C295.209 176.542 295.128 176.529 295.047 176.515C295.007 176.511 294.967 176.506 294.931 176.502C294.85 176.488 294.774 176.479 294.693 176.466H294.689C292.227 176.111 289.798 175.563 287.423 174.826C287.297 174.786 287.171 174.75 287.046 174.709C287.041 174.709 287.037 174.705 287.032 174.705C286.997 174.691 286.956 174.682 286.92 174.669C286.584 174.561 286.252 174.449 285.92 174.332C285.463 174.179 285.01 174.013 284.557 173.842C284.436 173.793 284.314 173.748 284.193 173.698C283.947 173.604 283.704 173.505 283.462 173.406C283.05 173.24 282.637 173.065 282.229 172.885C281.848 172.714 281.471 172.544 281.094 172.364C281.085 172.359 281.072 172.359 281.063 172.35C280.978 172.31 280.892 172.27 280.812 172.229H280.807C278.742 171.236 276.75 170.096 274.846 168.819C274.236 168.41 273.635 167.988 273.043 167.552C272.568 167.197 272.101 166.838 271.635 166.469C269.334 164.635 267.204 162.596 265.271 160.377V160.372C265.132 160.219 265.002 160.062 264.867 159.905C264.845 159.882 264.827 159.86 264.809 159.842C264.723 159.739 264.643 159.64 264.557 159.541V159.536C264.445 159.406 264.333 159.271 264.226 159.137C264.199 159.105 264.176 159.078 264.154 159.051V159.047C264.064 158.939 263.979 158.831 263.889 158.719C263.844 158.665 263.804 158.611 263.759 158.557V158.553C263.494 158.22 263.239 157.888 262.983 157.546C262.916 157.456 262.849 157.362 262.777 157.268C262.454 156.832 262.14 156.387 261.835 155.942V155.938C261.718 155.771 261.606 155.601 261.49 155.434C261.378 155.264 261.265 155.093 261.153 154.922C261.041 154.743 260.925 154.567 260.812 154.388L260.799 154.361C260.687 154.19 260.575 154.01 260.467 153.835C260.382 153.691 260.297 153.552 260.211 153.413C260.158 153.318 260.099 153.224 260.045 153.125C260.024 153.095 260.005 153.063 259.987 153.031C259.862 152.811 259.736 152.59 259.61 152.37C259.462 152.114 259.319 151.854 259.175 151.593C259.122 151.485 259.063 151.377 259.005 151.269C258.982 151.234 258.965 151.198 258.947 151.162C258.879 151.036 258.812 150.906 258.749 150.775C258.682 150.649 258.615 150.519 258.547 150.389C258.485 150.263 258.417 150.133 258.355 150.002C258.305 149.904 258.26 149.805 258.211 149.706C258.208 149.698 258.203 149.69 258.198 149.683C258.175 149.634 258.153 149.589 258.135 149.544C258.129 149.537 258.125 149.53 258.121 149.522C258.072 149.423 258.027 149.32 257.978 149.221C257.915 149.09 257.857 148.956 257.794 148.825C257.754 148.735 257.709 148.641 257.668 148.547C257.61 148.416 257.547 148.286 257.493 148.151C257.431 148.017 257.372 147.882 257.314 147.743C257.297 147.709 257.282 147.674 257.269 147.639C257.238 147.576 257.215 147.513 257.188 147.45C257.117 147.284 257.045 147.114 256.978 146.947C256.897 146.759 256.821 146.565 256.749 146.377C256.677 146.201 256.61 146.022 256.543 145.842L256.516 145.779C255.471 143.022 254.678 140.175 254.147 137.274V137.269C253.848 135.613 253.634 133.943 253.506 132.264C253.502 132.17 253.493 132.08 253.488 131.99C253.407 130.854 253.372 129.712 253.372 128.567C253.372 128.059 253.381 127.556 253.394 127.052C253.707 116.528 257.453 106.397 264.06 98.2077C264.203 98.028 264.347 97.8483 264.495 97.6686C264.643 97.4889 264.795 97.3136 264.943 97.1384C269.86 91.3704 276.061 86.8404 283.046 83.9136C290.031 80.9868 297.605 79.7451 305.157 80.2885C312.709 80.8319 320.028 83.1453 326.524 87.0422C333.02 90.9391 338.511 96.3104 342.554 102.723C342.774 103.074 342.993 103.429 343.204 103.784C343.419 104.143 343.626 104.502 343.832 104.866C347.895 112.101 350.024 120.265 350.013 128.567Z" fill="#F2F2F2"/>
<path d="M303.611 96.9056C295.665 98.948 287.523 100.125 279.325 100.417C278.085 100.485 276.842 100.476 275.604 100.392C272.882 100.162 270.55 99.3052 267.953 98.8369C266.705 98.6124 265.314 98.4482 264.058 98.2056C264.348 97.8447 264.644 97.4882 264.944 97.1361C267.654 97.3655 270.407 98.1163 273.149 98.4651C277.811 99.059 283.035 98.3963 286.569 96.7619C288.284 95.9689 289.597 94.9791 291.306 94.1824C291.538 94.0629 291.79 93.9857 292.049 93.9543C292.542 93.9395 293.028 94.0659 293.452 94.3188C296.318 95.7685 300.48 96.9466 304.343 96.2984C304.631 96.5241 304.084 96.7812 303.611 96.9056Z" fill="white"/>
<path d="M320.706 102.005C320.741 101.998 320.776 101.993 320.812 101.987C320.663 101.895 320.523 101.789 320.394 101.672L320.706 102.005Z" fill="white"/>
<path d="M343.831 104.866C342.218 104.995 340.596 105.091 338.966 105.154C337.726 105.221 336.483 105.213 335.245 105.129C332.523 104.898 330.191 104.043 327.594 103.574C325.215 103.146 322.323 102.939 320.812 101.988C324.717 101.311 328.763 102.689 332.79 103.202C336.048 103.604 339.35 103.44 342.552 102.72C342.997 103.422 343.424 104.137 343.831 104.866Z" fill="white"/>
<path d="M296.243 149.741C304.258 149.741 310.756 143.086 310.756 134.878C310.756 126.67 304.258 120.016 296.243 120.016C288.227 120.016 281.729 126.67 281.729 134.878C281.729 143.086 288.227 149.741 296.243 149.741Z" fill="#FFB6B6"/>
<path d="M324.313 171.343C323.927 171.554 323.537 171.756 323.147 171.95C323.008 172.017 322.864 172.084 322.725 172.156C322.608 172.21 322.492 172.269 322.375 172.322C322.339 172.34 322.308 172.354 322.277 172.372C322.178 172.417 322.084 172.462 321.985 172.507C321.877 172.556 321.77 172.606 321.667 172.655C321.546 172.709 321.429 172.763 321.308 172.812C320.859 173.014 320.406 173.208 319.953 173.392C318.33 174.058 316.671 174.634 314.984 175.117C314.908 175.14 314.827 175.162 314.746 175.185C314.024 175.387 313.297 175.571 312.566 175.737C311.288 176.034 309.998 176.276 308.696 176.465H308.687C308.53 176.487 308.377 176.51 308.22 176.532C308.207 176.532 308.193 176.537 308.175 176.537C308.175 176.541 308.175 176.541 308.171 176.537C308 176.559 307.825 176.582 307.655 176.604C307.643 176.608 307.631 176.609 307.619 176.609C307.458 176.631 307.292 176.649 307.13 176.667C306.955 176.685 306.78 176.703 306.606 176.721C306.471 176.735 306.336 176.748 306.202 176.762C306.19 176.766 306.178 176.767 306.166 176.766C306.045 176.775 305.924 176.789 305.803 176.797H305.785C305.682 176.806 305.574 176.815 305.471 176.824C304.219 176.923 302.964 176.968 301.69 176.968C300.313 176.968 298.945 176.914 297.595 176.797H297.581C297.29 176.771 297.003 176.744 296.716 176.717C296.64 176.708 296.568 176.703 296.492 176.694C296.478 176.694 296.46 176.69 296.447 176.69C296.424 176.685 296.402 176.685 296.375 176.681C296.363 176.681 296.351 176.68 296.339 176.676C296.24 176.667 296.142 176.654 296.039 176.645L295.702 176.604C295.59 176.591 295.478 176.573 295.366 176.559C295.339 176.555 295.316 176.555 295.29 176.55C295.209 176.541 295.128 176.528 295.047 176.514C295.007 176.51 294.967 176.505 294.931 176.501C294.85 176.487 294.774 176.478 294.693 176.465H294.689C292.227 176.11 289.798 175.562 287.423 174.825C287.297 174.785 287.171 174.749 287.046 174.708C287.625 172.003 288.817 169.467 290.53 167.296C292.244 165.126 294.432 163.379 296.927 162.191C296.31 161.602 295.883 160.841 295.702 160.007C295.586 159.47 295.577 158.914 295.675 158.373C295.774 157.832 295.978 157.315 296.276 156.853C296.858 155.958 297.771 155.331 298.815 155.11L305.462 153.717C306.532 153.508 307.641 153.731 308.548 154.337C309.455 154.942 310.087 155.882 310.306 156.952C310.374 157.28 310.404 157.615 310.395 157.95C316.796 162.218 321.402 166.643 324.313 171.343Z" fill="#87C346"/>
<path d="M335.078 128.438C332.611 125.556 331.439 121.733 329.466 118.46C327.494 115.188 324.062 112.259 320.437 113.02C317.937 113.545 316.006 115.755 315.028 118.218C314.051 120.681 313.867 123.397 313.696 126.058C313.756 120.589 310.16 115.288 305.206 113.543C300.252 111.798 294.323 113.745 291.21 118.138C289.851 116.877 288.078 116.158 286.226 116.119C284.374 116.08 282.573 116.723 281.162 117.927C278.378 120.42 277.762 125.165 279.809 128.345C281.857 131.524 286.292 132.709 289.547 130.945L290.697 132.006C290.049 134.275 291.305 136.955 293.416 137.809C295.128 138.502 297.545 138.386 298.186 140.186C298.633 141.444 297.797 142.786 296.907 143.752C296.017 144.718 294.96 145.716 294.853 147.053C294.692 149.071 296.773 150.484 298.665 150.91C303.227 151.936 308.289 149.82 310.918 145.787C310.969 145.709 311.024 145.631 311.083 145.553C312.559 143.663 313.634 141.492 314.243 139.172C314.852 136.852 314.983 134.432 314.627 132.059C314.479 131.127 314.628 130.434 315.27 130.213C318.043 129.259 325.812 131.262 328.163 133.072C330.514 134.881 332.397 137.277 334.662 139.203C336.927 141.13 339.813 142.616 342.688 142.092C344.992 141.671 346.951 139.997 348.269 137.976C349.586 135.956 350.345 133.601 351.024 131.26C345.931 134.208 338.961 132.974 335.078 128.438Z" fill="#2F2E41"/>
<path d="M37.1485 98.4572C37.1485 99.549 37.1844 100.641 37.2606 101.724C37.3413 103.018 37.4804 104.303 37.6688 105.579C38.3018 109.875 39.5118 114.066 41.2658 118.037C41.3555 118.235 41.4452 118.433 41.5349 118.631L41.6695 118.927C41.7143 119.026 41.7637 119.125 41.8085 119.219C41.8713 119.349 41.9296 119.475 41.9924 119.601C42.0687 119.758 42.1449 119.916 42.2256 120.073C42.2346 120.091 42.2436 120.113 42.257 120.136C42.3243 120.27 42.3871 120.401 42.4589 120.536C42.4721 120.565 42.487 120.593 42.5037 120.621C42.58 120.774 42.6607 120.931 42.7414 121.084C42.8311 121.245 42.9164 121.412 43.0061 121.573C43.2213 121.973 43.4456 122.369 43.6743 122.764C43.7416 122.881 43.8089 122.998 43.8806 123.115C43.9434 123.222 44.0062 123.33 44.0735 123.438C44.1184 123.51 44.1632 123.586 44.2081 123.658C44.2798 123.779 44.3516 123.896 44.4278 124.018C44.5938 124.283 44.7642 124.548 44.9302 124.813H44.9347C45.0109 124.934 45.0916 125.055 45.1724 125.172V125.177C45.4101 125.536 45.6568 125.896 45.9034 126.251C45.904 126.251 45.9046 126.251 45.9052 126.251C45.9057 126.251 45.9062 126.251 45.9066 126.252C45.9071 126.252 45.9074 126.253 45.9076 126.253C45.9078 126.254 45.9079 126.254 45.9079 126.255C46.1053 126.543 46.3116 126.821 46.5134 127.1V127.104C46.648 127.279 46.778 127.459 46.9126 127.634C47.0202 127.778 47.1324 127.926 47.2445 128.07C47.2669 128.102 47.2938 128.129 47.3163 128.16V128.165C47.3477 128.205 47.379 128.241 47.4104 128.281C47.8859 128.892 48.3763 129.49 48.8816 130.074L48.9623 130.168C48.9892 130.2 49.0206 130.231 49.0475 130.267C49.0924 130.317 49.1327 130.366 49.1776 130.416C49.2179 130.465 49.2628 130.514 49.3077 130.564C51.9418 133.536 54.9286 136.175 58.2017 138.422C58.6367 138.723 59.0807 139.015 59.5248 139.298C59.6369 139.37 59.749 139.442 59.8612 139.509C59.8926 139.532 59.9284 139.554 59.9598 139.577C60.0226 139.613 60.0809 139.649 60.1437 139.689C60.202 139.725 60.2603 139.761 60.3231 139.797C60.5608 139.945 60.803 140.089 61.0452 140.233C61.1035 140.269 61.1663 140.305 61.2291 140.34C61.2874 140.372 61.3502 140.408 61.413 140.444C61.413 140.448 61.413 140.448 61.4175 140.448H61.422V140.453H61.4265C61.727 140.628 62.032 140.799 62.3414 140.965C62.5074 141.055 62.6778 141.149 62.8483 141.235C63.234 141.446 63.6242 141.648 64.0144 141.841C64.1534 141.909 64.297 141.976 64.436 142.048C64.5526 142.102 64.6692 142.16 64.7858 142.214C64.8217 142.232 64.8531 142.245 64.8845 142.263C64.9832 142.308 65.0774 142.353 65.176 142.398C65.2837 142.448 65.3913 142.497 65.4945 142.546C65.6156 142.6 65.7322 142.654 65.8533 142.704C66.3018 142.906 66.7548 143.099 67.2078 143.283C68.8312 143.95 70.4903 144.526 72.1773 145.009C72.2536 145.031 72.3343 145.054 72.415 145.076C73.1371 145.278 73.8638 145.462 74.5948 145.629C75.8731 145.925 77.1633 146.168 78.4655 146.357H78.4745C78.6314 146.379 78.7839 146.401 78.9409 146.424C78.9544 146.424 78.9678 146.428 78.9858 146.428C78.9858 146.433 78.9858 146.433 78.9902 146.428C79.1607 146.451 79.3356 146.473 79.506 146.496C79.5177 146.499 79.5298 146.501 79.5419 146.5C79.7034 146.523 79.8693 146.541 80.0308 146.559C80.2057 146.577 80.3806 146.595 80.5555 146.613C80.6901 146.626 80.8247 146.64 80.9592 146.653C80.9707 146.657 80.983 146.659 80.9951 146.658C81.1162 146.667 81.2373 146.68 81.3584 146.689H81.3763C81.4795 146.698 81.5871 146.707 81.6903 146.716C82.9416 146.815 84.1975 146.86 85.4713 146.86C86.8482 146.86 88.2161 146.806 89.5662 146.689H89.5796C89.8712 146.662 90.1582 146.635 90.4453 146.608C90.5215 146.599 90.5933 146.595 90.6695 146.586C90.683 146.586 90.7009 146.581 90.7144 146.581C90.7368 146.577 90.7592 146.577 90.7861 146.572C90.7982 146.573 90.8104 146.571 90.822 146.568C90.9207 146.559 91.0193 146.545 91.1225 146.536L91.4589 146.496C91.571 146.482 91.6831 146.464 91.7953 146.451C91.8222 146.446 91.8446 146.446 91.8715 146.442C91.9523 146.433 92.033 146.419 92.1137 146.406C92.1541 146.401 92.1944 146.397 92.2303 146.392C92.3111 146.379 92.3873 146.37 92.468 146.357H92.4725C94.9337 146.002 97.3631 145.453 99.7384 144.717C99.864 144.676 99.9896 144.64 100.115 144.6C100.12 144.6 100.124 144.595 100.129 144.595C100.165 144.582 100.205 144.573 100.241 144.559C100.577 144.452 100.909 144.339 101.241 144.222C101.698 144.07 102.151 143.903 102.604 143.733C102.726 143.683 102.847 143.638 102.968 143.589C103.214 143.495 103.457 143.396 103.699 143.297C104.111 143.131 104.524 142.955 104.932 142.776C105.313 142.605 105.69 142.434 106.067 142.254C106.076 142.25 106.089 142.25 106.098 142.241C106.184 142.201 106.269 142.16 106.35 142.12H106.354C108.419 141.127 110.411 139.987 112.315 138.71C112.925 138.301 113.526 137.878 114.118 137.443C114.593 137.088 115.06 136.728 115.526 136.36C117.827 134.526 119.957 132.487 121.89 130.267V130.263C122.03 130.11 122.16 129.953 122.294 129.796C122.317 129.773 122.334 129.751 122.352 129.733C122.438 129.629 122.518 129.53 122.604 129.432V129.427C122.716 129.297 122.828 129.162 122.936 129.027C122.962 128.996 122.985 128.969 123.007 128.942V128.937C123.097 128.83 123.182 128.722 123.272 128.609C123.317 128.555 123.357 128.502 123.402 128.448V128.443C123.667 128.111 123.922 127.778 124.178 127.437C124.245 127.347 124.312 127.253 124.384 127.158C124.707 126.722 125.021 126.278 125.326 125.833V125.828C125.443 125.662 125.555 125.491 125.671 125.325C125.784 125.154 125.896 124.984 126.008 124.813C126.12 124.633 126.237 124.458 126.349 124.278L126.362 124.251C126.474 124.081 126.586 123.901 126.694 123.726C126.779 123.582 126.864 123.443 126.95 123.303C127.004 123.209 127.062 123.115 127.116 123.016C127.137 122.985 127.156 122.954 127.174 122.921C127.3 122.701 127.425 122.481 127.551 122.261C127.699 122.005 127.842 121.744 127.986 121.484C128.04 121.376 128.098 121.268 128.156 121.16C128.179 121.124 128.197 121.088 128.215 121.052C128.282 120.926 128.349 120.796 128.412 120.666C128.479 120.54 128.546 120.41 128.614 120.279C128.676 120.154 128.744 120.023 128.807 119.893C128.856 119.794 128.901 119.695 128.95 119.597C128.954 119.588 128.958 119.581 128.964 119.574C128.986 119.525 129.008 119.48 129.026 119.435C129.032 119.428 129.036 119.42 129.04 119.412C129.089 119.313 129.134 119.21 129.183 119.111C129.246 118.981 129.304 118.846 129.367 118.716C129.408 118.626 129.452 118.532 129.493 118.437C129.551 118.307 129.614 118.177 129.668 118.042C129.73 117.907 129.789 117.772 129.847 117.633C129.864 117.6 129.879 117.565 129.892 117.53C129.923 117.467 129.946 117.404 129.973 117.341C130.044 117.175 130.116 117.004 130.183 116.838C130.264 116.649 130.34 116.456 130.412 116.267C130.484 116.092 130.551 115.912 130.619 115.733L130.645 115.67C131.69 112.912 132.483 110.066 133.014 107.165V107.16C133.313 105.504 133.527 103.833 133.655 102.155C133.659 102.061 133.668 101.971 133.673 101.881C133.754 100.744 133.79 99.6029 133.79 98.4572C133.79 97.9495 133.781 97.4463 133.767 96.9431C133.454 86.419 129.708 76.2874 123.101 68.0984C122.958 67.9186 122.814 67.7389 122.666 67.5592C122.518 67.3795 122.366 67.2043 122.218 67.029C117.301 61.2611 111.1 56.7311 104.115 53.8042C97.13 50.8774 89.5561 49.6357 82.0041 50.1791C74.452 50.7226 67.133 53.036 60.6372 56.9328C54.1414 60.8297 48.6506 66.201 44.6073 72.6138C44.3875 72.9642 44.1677 73.3192 43.9569 73.6741C43.7416 74.0336 43.5353 74.393 43.329 74.7569C39.2658 81.992 37.1368 90.1558 37.1485 98.4572Z" fill="#F2F2F2"/>
<path d="M83.5504 66.804C91.4961 68.8464 99.6386 70.0237 107.837 70.3154C109.076 70.383 110.319 70.3746 111.557 70.29C114.28 70.0607 116.611 69.2037 119.208 68.7353C120.456 68.5108 121.847 68.3466 123.104 68.104C122.813 67.7431 122.517 67.3866 122.217 67.0346C119.507 67.2639 116.755 68.0147 114.012 68.3636C109.35 68.9574 104.126 68.2947 100.592 66.6604C98.8776 65.8673 97.5642 64.8775 95.8555 64.0809C95.6231 63.9613 95.3714 63.8841 95.1121 63.8527C94.6194 63.8379 94.1328 63.9644 93.7095 64.2173C90.8429 65.6669 86.6809 66.845 82.8178 66.1969C82.5298 66.4226 83.0768 66.6797 83.5504 66.804Z" fill="white"/>
<path d="M66.4556 71.903C66.4203 71.8966 66.3849 71.8915 66.3496 71.8854C66.498 71.7933 66.6378 71.6878 66.7671 71.5703L66.4556 71.903Z" fill="white"/>
<path d="M43.3296 74.7642C44.943 74.8933 46.5649 74.9895 48.1953 75.0527C49.4349 75.1197 50.6775 75.1112 51.9162 75.0273C54.6382 74.7968 56.9698 73.9409 59.5666 73.4726C61.9464 73.0441 64.8383 72.8377 66.3493 71.8865C62.444 71.2094 58.3977 72.5878 54.3707 73.1008C51.1133 73.5021 47.8113 73.3387 44.6093 72.618C44.1634 73.3205 43.7369 74.0359 43.3296 74.7642Z" fill="white"/>
<path d="M62.8481 141.241C63.2339 141.453 63.6241 141.655 64.0143 141.848C64.1533 141.915 64.2968 141.983 64.4359 142.055C64.5525 142.109 64.6691 142.167 64.7857 142.221C64.8216 142.239 64.853 142.252 64.8844 142.27C64.9831 142.315 65.0773 142.36 65.1759 142.405C65.2836 142.455 65.3912 142.504 65.4944 142.553C65.6155 142.607 65.7321 142.661 65.8532 142.711C66.3017 142.913 66.7547 143.106 67.2077 143.29C68.8311 143.957 70.4902 144.533 72.1772 145.016C72.2535 145.038 72.3342 145.06 72.4149 145.083C73.1371 145.285 73.8637 145.469 74.5947 145.636C75.873 145.932 77.1632 146.175 78.4654 146.363H78.4743C78.6313 146.386 78.7838 146.408 78.9408 146.431C78.9543 146.431 78.9677 146.435 78.9857 146.435C78.9857 146.44 78.9857 146.44 78.9901 146.435C79.1606 146.458 79.3355 146.48 79.5059 146.503C79.5176 146.506 79.5297 146.508 79.5418 146.507C79.7033 146.53 79.8692 146.548 80.0307 146.566C80.2056 146.584 80.3805 146.602 80.5555 146.62C80.69 146.633 80.8246 146.646 80.9591 146.66C80.9706 146.664 80.9828 146.666 80.995 146.664C81.1161 146.673 81.2372 146.687 81.3583 146.696H81.3762C81.4794 146.705 81.587 146.714 81.6902 146.723C82.9415 146.822 84.1974 146.867 85.4711 146.867C86.8481 146.867 88.216 146.813 89.5661 146.696H89.5795C89.8711 146.669 90.1581 146.642 90.4452 146.615C90.5214 146.606 90.5932 146.602 90.6694 146.593C90.6829 146.593 90.7008 146.588 90.7143 146.588C90.7367 146.584 90.7591 146.584 90.786 146.579C90.7981 146.58 90.8103 146.578 90.8219 146.575C90.9206 146.566 91.0193 146.552 91.1224 146.543L91.4588 146.503C91.5709 146.489 91.6831 146.471 91.7952 146.458C91.8221 146.453 91.8445 146.453 91.8714 146.449C91.9522 146.44 92.0329 146.426 92.1136 146.413C92.154 146.408 92.1944 146.404 92.2302 146.399C92.311 146.386 92.3872 146.377 92.4679 146.363H92.4724C94.9336 146.009 97.363 145.46 99.7383 144.724C99.8639 144.683 99.9895 144.647 100.115 144.607C99.536 141.901 98.3437 139.365 96.6305 137.195C94.9172 135.024 92.7288 133.278 90.2343 132.089C90.8513 131.501 91.2779 130.74 91.4588 129.906C91.5752 129.368 91.5845 128.813 91.4859 128.271C91.3874 127.73 91.1831 127.214 90.8847 126.752C90.3027 125.856 89.3896 125.229 88.3461 125.008L81.6992 123.616C80.6291 123.407 79.52 123.629 78.613 124.235C77.7059 124.841 77.0742 125.781 76.8552 126.851C76.7874 127.179 76.7573 127.513 76.7655 127.848C70.3652 132.116 65.759 136.542 62.8481 141.241Z" fill="#87C346"/>
<path d="M89.1436 119.118C98.0792 119.118 105.323 111.862 105.323 102.911C105.323 93.9595 98.0792 86.7031 89.1436 86.7031C80.2081 86.7031 72.9644 93.9595 72.9644 102.911C72.9644 111.862 80.2081 119.118 89.1436 119.118Z" fill="#9E616A"/>
<path d="M86.8446 118.251C82.7942 119.347 78.3286 117.89 75.1676 115.127C72.0067 112.363 70.0293 108.447 68.89 104.402C68.0556 101.439 67.6599 98.151 68.9767 95.3698C70.2935 92.5886 73.8373 90.7122 76.5714 92.1171C74.8847 90.1486 75.7274 86.8928 77.6972 85.2088C79.6671 83.5249 82.372 83.0421 84.9482 82.7781C88.6869 82.3951 92.5489 82.3523 96.1066 83.5656C99.6643 84.779 102.897 87.4317 104.01 91.0276C105.148 91.558 106.428 91.6956 107.652 91.4188C108.876 91.1421 109.973 90.4666 110.772 89.4982C110.979 90.6104 110.813 91.7597 110.301 92.7682C109.79 93.7767 108.961 94.5882 107.942 95.0771L113.393 93.3067C114.331 95.2946 112.688 97.7548 110.588 98.3913C108.487 99.0279 106.219 98.3321 104.226 97.4125C102.233 96.4928 100.301 95.3301 98.1356 94.9714C95.9703 94.6128 93.4269 95.3097 92.4254 97.2659C91.9008 98.2905 91.8735 99.4905 91.5689 100.601C91.2643 101.711 90.4928 102.862 89.3469 102.953C88.6229 103.011 87.9141 102.624 87.1922 102.703C86.7491 102.791 86.3411 103.006 86.0181 103.322C85.6952 103.638 85.4712 104.041 85.3737 104.483C85.194 105.369 85.1918 106.283 85.3673 107.17L86.7519 117.772L86.8446 118.251Z" fill="#2F2E41"/>
</g>
<defs>
<clipPath id="clip0_371_2150">
<rect width="363" height="283" fill="white"/>
</clipPath>
</defs>
</svg>
