<svg width="392" height="471" viewBox="0 0 392 471" fill="none" xmlns="http://www.w3.org/2000/svg">
<g clip-path="url(#clip0_365_2450)">
<path d="M147.429 0H312.246C337.88 0 358.66 20.779 358.66 46.4112V423.008C358.66 448.641 337.88 469.419 312.246 469.419H147.429C121.795 469.419 101.015 448.641 101.015 423.008V46.4112C101.015 20.779 121.795 0 147.429 0Z" fill="#3F3D56"/>
<path d="M105.361 46.4097V423.004C105.374 434.157 109.811 444.849 117.697 452.735C125.584 460.621 136.277 465.057 147.43 465.07H312.244C323.398 465.057 334.09 460.621 341.977 452.735C349.864 444.849 354.3 434.157 354.313 423.004V46.4097C354.3 35.2571 349.864 24.565 341.977 16.6789C334.09 8.79276 323.398 4.35666 312.244 4.34375H290.692V11.7881C290.692 15.1583 289.353 18.3904 286.97 20.7734C284.586 23.1565 281.354 24.4954 277.984 24.4956H181.691C178.32 24.4954 175.088 23.1565 172.705 20.7734C170.322 18.3904 168.983 15.1583 168.982 11.7881V4.34375H147.43C136.277 4.35666 125.584 8.79276 117.697 16.6789C109.811 24.565 105.374 35.2571 105.361 46.4097Z" fill="white"/>
<path d="M359.846 95.2302C360.684 95.2293 361.487 94.8959 362.08 94.3033C362.673 93.7107 363.006 92.9072 363.007 92.0692V85.747C363.007 84.9086 362.674 84.1046 362.081 83.5118C361.488 82.919 360.684 82.5859 359.846 82.5859C359.007 82.5859 358.203 82.919 357.61 83.5118C357.017 84.1046 356.684 84.9086 356.684 85.747V92.0692C356.685 92.9072 357.019 93.7107 357.611 94.3033C358.204 94.8959 359.007 95.2293 359.846 95.2302Z" fill="#3F3D56"/>
<path d="M359.846 127.647C360.684 127.646 361.487 127.313 362.08 126.72C362.673 126.127 363.006 125.324 363.007 124.486V107.083C363.007 106.245 362.674 105.441 362.081 104.848C361.488 104.255 360.684 103.922 359.846 103.922C359.007 103.922 358.203 104.255 357.61 104.848C357.017 105.441 356.684 106.245 356.684 107.083V124.486C356.685 125.324 357.019 126.127 357.611 126.72C358.204 127.313 359.007 127.646 359.846 127.647Z" fill="#3F3D56"/>
<path d="M359.846 153.709C360.684 153.708 361.487 153.375 362.08 152.782C362.673 152.19 363.006 151.386 363.007 150.548V133.145C363.007 132.307 362.674 131.503 362.081 130.91C361.488 130.317 360.684 129.984 359.846 129.984C359.007 129.984 358.203 130.317 357.61 130.91C357.017 131.503 356.684 132.307 356.684 133.145V150.548C356.685 151.386 357.019 152.19 357.611 152.782C358.204 153.375 359.007 153.708 359.846 153.709Z" fill="#3F3D56"/>
<path d="M100.62 139.481C101.459 139.48 102.262 139.147 102.855 138.554C103.447 137.962 103.781 137.158 103.782 136.32V93.8564C103.782 93.018 103.449 92.214 102.856 91.6212C102.263 91.0284 101.459 90.6953 100.62 90.6953C99.782 90.6953 98.9779 91.0284 98.3851 91.6212C97.7922 92.214 97.4592 93.018 97.4592 93.8564V136.32C97.4601 137.158 97.7935 137.962 98.3861 138.554C98.9788 139.147 99.7823 139.48 100.62 139.481Z" fill="#3F3D56"/>
<path d="M223.047 14.4982H247.547C248.071 14.4982 248.574 14.2901 248.944 13.9196C249.315 13.549 249.523 13.0465 249.523 12.5225C249.523 11.9986 249.315 11.4961 248.944 11.1255C248.574 10.755 248.071 10.5469 247.547 10.5469H223.047C222.523 10.5469 222.021 10.755 221.65 11.1255C221.279 11.4961 221.071 11.9986 221.071 12.5225C221.071 13.0465 221.279 13.549 221.65 13.9196C222.021 14.2901 222.523 14.4982 223.047 14.4982Z" fill="white"/>
<path d="M210.402 14.0986C209.529 14.0986 208.821 13.3909 208.821 12.518C208.821 11.6451 209.529 10.9375 210.402 10.9375C211.275 10.9375 211.982 11.6451 211.982 12.518C211.982 13.3909 211.275 14.0986 210.402 14.0986Z" fill="white"/>
<path d="M300.109 22.973H321.447C322.495 22.973 323.5 22.5567 324.242 21.8157C324.983 21.0747 325.399 20.0696 325.399 19.0217C325.399 17.9737 324.983 16.9687 324.242 16.2276C323.5 15.4866 322.495 15.0703 321.447 15.0703H300.109C299.061 15.0703 298.055 15.4866 297.314 16.2276C296.573 16.9687 296.157 17.9737 296.157 19.0217C296.157 20.0696 296.573 21.0747 297.314 21.8157C298.055 22.5567 299.061 22.973 300.109 22.973Z" fill="#E6E6E6"/>
<path d="M160.222 22.5812C158.258 22.5812 156.665 20.989 156.665 19.025C156.665 17.0609 158.258 15.4688 160.222 15.4688C162.186 15.4688 163.778 17.0609 163.778 19.025C163.778 20.989 162.186 22.5812 160.222 22.5812Z" fill="#E6E6E6"/>
<path d="M149.157 22.5812C147.193 22.5812 145.601 20.989 145.601 19.025C145.601 17.0609 147.193 15.4688 149.157 15.4688C151.122 15.4688 152.714 17.0609 152.714 19.025C152.714 20.989 151.122 22.5812 149.157 22.5812Z" fill="#E6E6E6"/>
<path d="M138.092 22.5812C136.128 22.5812 134.536 20.989 134.536 19.025C134.536 17.0609 136.128 15.4688 138.092 15.4688C140.057 15.4688 141.649 17.0609 141.649 19.025C141.649 20.989 140.057 22.5812 138.092 22.5812Z" fill="#E6E6E6"/>
<path d="M162.708 78.2031H296.826C299.424 78.2067 301.915 79.2403 303.752 81.0772C305.589 82.9142 306.622 85.4046 306.626 88.0025V175.177C306.622 177.775 305.589 180.265 303.752 182.102C301.915 183.939 299.424 184.973 296.826 184.976H162.708C160.11 184.974 157.618 183.941 155.781 182.104C153.944 180.266 152.91 177.775 152.908 175.177V88.0025C152.91 85.4042 153.944 82.913 155.781 81.0758C157.618 79.2385 160.11 78.2054 162.708 78.2031Z" fill="#F2F2F2"/>
<path d="M204.696 115.418C216.816 136.845 230.191 157.539 244.751 177.39H265.783C252.007 160.608 238.221 143.827 224.424 127.045C220.466 122.213 216.171 117.151 210.234 115.188L204.696 115.418Z" fill="#3F3D56"/>
<path d="M232.647 111.977C234.841 114.263 236.942 116.64 238.921 119.11C243.278 124.356 247.573 129.648 251.884 134.925C254.569 138.208 257.253 141.491 259.907 144.773C260.75 144.232 261.55 143.627 262.3 142.963C266.539 139.284 269.169 134.092 269.625 128.498C270.081 122.904 268.328 117.353 264.741 113.036C261.154 108.72 256.018 105.979 250.435 105.403C244.852 104.826 239.265 106.459 234.871 109.952C234.079 110.57 233.336 111.247 232.647 111.977Z" fill="#87C346"/>
<path d="M152.908 109.495V112.68L154.331 112.159L174.349 104.841C180.87 102.462 187.374 99.7435 194.107 98.0287C199.966 96.3529 206.187 96.4326 212 98.2578C217.182 100.175 221.924 103.118 225.942 106.911C227.72 108.555 229.443 110.238 231.11 111.985C231.656 112.562 232.201 113.139 232.738 113.715C234.351 115.47 235.908 117.264 237.386 119.121C241.74 124.368 246.04 129.663 250.347 134.934C253.034 138.222 255.721 141.501 258.376 144.781C267.244 155.631 276.059 166.503 284.821 177.395C286.001 177.382 287.175 177.234 288.322 176.953C279.383 165.849 270.403 154.775 261.38 143.73C261.174 143.477 260.969 143.224 260.763 142.971C259.704 141.651 258.622 140.324 257.547 139.004C253.05 133.496 248.55 127.993 244.048 122.495C240.776 118.497 237.528 114.482 234.003 110.689C233.79 110.444 233.568 110.207 233.339 109.962C232.999 109.598 232.659 109.243 232.312 108.871C224.653 100.961 215.098 93.9667 203.655 93.777C196.921 93.6743 190.417 95.808 184.157 98.0603C177.416 100.502 170.698 102.984 163.965 105.449L152.908 109.495Z" fill="#3F3D56"/>
<path d="M149.754 377.447H309.92C312.518 377.444 315.009 376.411 316.846 374.574C318.683 372.737 319.716 370.247 319.719 367.649V346.064C319.716 343.466 318.683 340.976 316.846 339.139C315.009 337.302 312.518 336.269 309.92 336.266H149.754C147.156 336.269 144.665 337.302 142.828 339.139C140.991 340.976 139.958 343.466 139.955 346.064V367.649C139.958 370.247 140.991 372.737 142.828 374.574C144.665 376.411 147.156 377.444 149.754 377.447Z" fill="#F2F2F2"/>
<path d="M149.754 266.807H309.92C312.518 266.804 315.009 265.77 316.846 263.934C318.683 262.097 319.716 259.606 319.719 257.008V235.424C319.716 232.826 318.683 230.335 316.846 228.498C315.009 226.661 312.518 225.628 309.92 225.625H149.754C147.156 225.628 144.665 226.661 142.828 228.498C140.991 230.335 139.958 232.826 139.955 235.424V257.008C139.958 259.606 140.991 262.097 142.828 263.934C144.665 265.77 147.156 266.804 149.754 266.807Z" fill="#F2F2F2"/>
<path d="M149.754 322.127H309.92C312.518 322.124 315.009 321.091 316.846 319.254C318.683 317.417 319.716 314.926 319.719 312.328V290.744C319.716 288.146 318.683 285.656 316.846 283.819C315.009 281.982 312.518 280.948 309.92 280.945H149.754C147.156 280.948 144.665 281.982 142.828 283.819C140.991 285.656 139.958 288.146 139.955 290.744V312.328C139.958 314.926 140.991 317.417 142.828 319.254C144.665 321.091 147.156 322.124 149.754 322.127Z" fill="#F2F2F2"/>
<path d="M210.379 353.159H257.57C258.13 353.159 258.667 352.937 259.063 352.541C259.459 352.145 259.681 351.608 259.681 351.048C259.681 350.489 259.459 349.952 259.063 349.556C258.667 349.16 258.13 348.937 257.57 348.938H210.379C209.819 348.937 209.282 349.16 208.886 349.556C208.49 349.952 208.267 350.489 208.267 351.048C208.267 351.608 208.49 352.145 208.886 352.541C209.282 352.937 209.819 353.159 210.379 353.159Z" fill="white"/>
<path d="M164.99 364.769H258.098C258.658 364.769 259.195 364.546 259.591 364.15C259.987 363.755 260.209 363.218 260.209 362.658C260.209 362.098 259.987 361.561 259.591 361.165C259.195 360.769 258.658 360.547 258.098 360.547H164.99C164.43 360.547 163.893 360.769 163.498 361.165C163.102 361.561 162.879 362.098 162.879 362.658C162.879 363.218 163.102 363.755 163.498 364.15C163.893 364.546 164.43 364.769 164.99 364.769Z" fill="white"/>
<path d="M282.641 371.01C274.824 371.01 268.487 364.673 268.487 356.856C268.487 349.04 274.824 342.703 282.641 342.703C290.458 342.703 296.795 349.04 296.795 356.856C296.795 364.673 290.458 371.01 282.641 371.01Z" fill="white"/>
<path d="M285.795 375.974C287.24 375.299 288.89 375.214 290.396 375.738C291.902 376.261 293.144 377.352 293.859 378.777C293.999 379.069 294.115 379.372 294.206 379.683L315.52 380.957L318.679 391.999L289.67 387.098C288.35 387.374 286.977 387.205 285.763 386.618C284.55 386.031 283.565 385.058 282.962 383.853C282.626 383.163 282.428 382.415 282.382 381.649C282.335 380.883 282.439 380.116 282.688 379.391C282.938 378.666 283.328 377.997 283.836 377.422C284.344 376.848 284.961 376.379 285.65 376.042C285.698 376.019 285.747 375.996 285.795 375.974Z" fill="#FFB6B6"/>
<path d="M332.842 321.506C334.247 320.931 335.759 320.666 337.275 320.728C338.791 320.789 340.276 321.177 341.629 321.864C342.983 322.551 344.172 323.521 345.116 324.709C346.061 325.896 346.739 327.274 347.103 328.747L352.963 352.41L351.861 393.807C351.861 393.807 321.274 399.676 316.139 395.903C311.004 392.131 311.487 389.322 311.004 392.131C310.522 394.939 308.318 396.117 308.288 395C308.257 393.883 308.008 394.074 306.728 393.737C305.449 393.401 299.801 391.32 299.801 391.32L299.548 379.517C299.548 379.517 308.885 375.977 311.15 377.033C313.415 378.089 310.668 379.842 313.415 378.089C316.162 376.337 316.463 370.806 316.932 375.791C317.402 380.775 318.777 381.703 320.837 379.487C322.896 377.271 332.439 378.686 332.439 378.686L326.367 332.669C326.061 330.355 326.531 328.004 327.703 325.984C328.874 323.965 330.681 322.39 332.842 321.506Z" fill="#87C346"/>
<path d="M126.857 444.27L126.536 435.553L160.007 430.164L160.481 443.029L126.857 444.27Z" fill="#FFB6B6"/>
<path d="M132.933 446.896L133.25 432.939L127.284 433.159L117.65 420.257C117.175 419.619 116.508 419.151 115.747 418.919C114.986 418.688 114.171 418.706 113.421 418.97C112.671 419.235 112.025 419.732 111.578 420.389C111.13 421.047 110.905 421.83 110.934 422.625L111.546 439.204L117.554 441.844L111.693 443.178L111.923 449.429L132.933 446.896Z" fill="#2F2E41"/>
<path d="M315.238 464.262L209.221 451.935C209.221 451.935 163.44 454.579 152.699 447.592L141.371 446.162L140.758 429.525C140.758 429.525 147.684 429.576 151.666 427.72C155.649 425.865 152.881 423.595 156.678 425.827C160.475 428.059 160.074 428.328 163.01 427.302C165.945 426.276 300.565 420.773 300.565 420.773L315.238 464.262Z" fill="#2F2E41"/>
<path d="M175.536 457.042L169.372 450.87L190.244 424.156L199.342 433.265L175.536 457.042Z" fill="#FFB6B6"/>
<path d="M181.775 454.83L172.515 444.383L168.29 448.602L152.453 445.695C151.67 445.551 150.863 445.661 150.147 446.009C149.432 446.357 148.847 446.924 148.477 447.628C148.107 448.332 147.972 449.136 148.091 449.922C148.21 450.708 148.578 451.436 149.14 451.998L160.865 463.737L167.065 461.586L163.675 466.55L168.096 470.976L181.775 454.83Z" fill="#2F2E41"/>
<path d="M357.064 406.205L356.01 430.703C354.769 459.543 323.007 476.998 298.377 461.94C297.923 461.662 297.468 461.375 297.011 461.078C297.011 461.078 287.674 458.57 287.957 454.6C288.241 450.629 285.96 448.696 283.941 449.779C281.922 450.862 255.492 413.355 255.492 413.355C255.492 413.355 200.58 440.745 188.465 447.193L175.683 443.71C175.683 443.71 170.872 445.982 172.605 442.696C174.338 439.411 174.649 440.984 175.181 437.404C175.714 433.824 177.076 429.386 177.901 429.572C178.727 429.759 245.835 382.792 245.835 382.792C245.835 382.792 256.768 371.729 270.329 379.034C270.612 380.107 270.37 380.144 270.37 380.144L315.169 416.645L321.499 404.625L357.064 406.205Z" fill="#2F2E41"/>
<path d="M326.954 316.189L346.161 307.188L351.912 317.193C351.912 317.193 367.356 339.231 367.58 355.129C367.804 371.028 365.063 375.756 365.063 375.756C365.063 375.756 371.722 380.734 368.393 383.777C365.063 386.82 357.692 388.133 363.354 389.452C369.015 390.771 367.58 404.126 361.258 406.497C354.935 408.868 320.98 408.847 320.98 408.847C321.285 407.811 321.307 406.713 321.045 405.666C320.782 404.619 320.244 403.662 319.486 402.893C316.854 400.254 314.483 402.148 316.854 398.04C319.225 393.932 323.176 396.303 320.015 390.771C316.854 385.239 316.855 383.586 316.855 383.586C316.855 383.586 310.41 371.322 320.117 358.017C320.709 357.206 320.212 357.175 320.212 357.175L328.05 330.91L326.954 316.189Z" fill="#87C346"/>
<path d="M357.908 278.34C357.746 282.398 360.302 288.145 361.562 291.611C362.908 295.317 357.073 300.235 353.339 301.312C353.144 300.029 352.504 298.855 351.53 297.996C351.799 299.219 351.822 300.484 351.599 301.717L320.027 308.904C314.347 302.327 308.636 292.872 309.882 281.468C309.584 279.303 309.932 277.097 310.882 275.129C311.833 273.161 313.344 271.517 315.225 270.404L331.186 260.976C337.975 259.431 346.525 258.497 351.429 262.698C353.62 264.647 355.341 267.067 356.463 269.776C357.585 272.485 358.079 275.413 357.908 278.34Z" fill="#2F2E41"/>
<path d="M329.688 305.43C319.649 305.43 311.51 297.293 311.51 287.254C311.51 277.216 319.649 269.078 329.688 269.078C339.727 269.078 347.865 277.216 347.865 287.254C347.865 297.293 339.727 305.43 329.688 305.43Z" fill="#FFB6B6"/>
<path d="M350.983 277.544L351.86 281.397L336.525 284.888C336.511 284.109 336.337 283.341 336.012 282.632C335.688 281.924 335.22 281.29 334.639 280.771C334.97 282.281 334.932 283.849 334.529 285.342C326.259 289.983 318.805 291.627 312.12 290.444C311.215 290.65 310.264 290.488 309.478 289.993C308.692 289.499 308.135 288.712 307.929 287.807C305.239 275.994 312.285 263.921 324.04 260.989C326.898 260.275 329.869 260.138 332.78 260.587C335.691 261.035 338.483 262.061 340.992 263.603C343.502 265.145 345.678 267.172 347.393 269.566C349.109 271.96 350.329 274.673 350.983 277.544Z" fill="#2F2E41"/>
<path d="M342.017 252.124C339.995 251.685 337.855 251.791 336.027 250.422L337.226 253.174C333.901 252.263 330.358 252.617 327.279 254.167C326.364 254.578 325.583 255.238 325.027 256.073C324.729 256.578 324.547 257.143 324.496 257.727C324.445 258.311 324.525 258.899 324.731 259.447C324.928 259.918 325.22 260.343 325.59 260.694C325.96 261.045 326.399 261.315 326.879 261.487C327.731 261.743 328.622 261.836 329.508 261.762C333.24 261.676 336.972 261.589 340.704 261.502C342.126 261.59 343.547 261.314 344.833 260.699C345.516 260.277 346.062 259.665 346.402 258.937C346.742 258.209 346.863 257.398 346.749 256.603C346.393 254.101 344.039 252.563 342.017 252.124Z" fill="#2F2E41"/>
<path d="M243.413 394.573C243.456 394.521 243.506 394.475 243.561 394.436C243.697 394.279 243.863 394.149 244.048 394.055L245.378 393.343L254.209 383.54C254.72 383.274 255.315 383.217 255.867 383.381L255.89 383.388L259.673 384.558L262.926 385.568L267.471 386.976L298.424 396.56L318.771 402.859C319.321 403.033 319.781 403.417 320.051 403.926C320.322 404.436 320.381 405.031 320.217 405.584C320.121 405.889 319.963 406.17 319.752 406.41L319.105 407.13L317.747 408.643L314.601 415.163L313.728 416.137C313.449 416.447 313.089 416.672 312.688 416.784C312.286 416.897 311.862 416.893 311.463 416.773L244.432 398.135C244.083 398.022 243.768 397.825 243.514 397.562C243.26 397.299 243.074 396.977 242.973 396.625C242.873 396.273 242.86 395.902 242.937 395.544C243.013 395.186 243.177 394.853 243.413 394.573Z" fill="#CCCCCC"/>
<path d="M247.392 297.605L248.69 297.816C249.046 297.875 249.364 298.072 249.575 298.365L250.147 299.164L255.305 312.063C255.515 312.358 255.6 312.724 255.54 313.081L254.935 316.756L257.22 382.353C257.162 382.692 256.98 382.997 256.709 383.209L246.693 396.606L246.459 396.792L245.955 397.187C245.696 397.387 245.375 397.489 245.049 397.475L244.197 397.434C244.004 397.425 243.815 397.375 243.643 397.287C243.47 397.199 243.318 397.075 243.197 396.925C243.075 396.775 242.986 396.601 242.937 396.414C242.888 396.227 242.88 396.032 242.913 395.842L245.819 298.727C245.878 298.371 246.076 298.052 246.369 297.841C246.663 297.631 247.029 297.545 247.385 297.604L247.392 297.605Z" fill="#CCCCCC"/>
<path d="M249.566 302.703L254.135 316.622L255.903 372.221L248.79 378.543L249.566 302.703Z" fill="#87C346"/>
<path d="M284.904 387.513C286.348 386.838 287.999 386.753 289.505 387.277C291.011 387.8 292.253 388.891 292.967 390.316C293.108 390.608 293.224 390.911 293.314 391.223L314.629 392.496L317.788 403.538L288.778 398.637C287.459 398.913 286.085 398.744 284.872 398.157C283.658 397.57 282.673 396.597 282.071 395.392C281.391 394 281.293 392.395 281.797 390.93C282.301 389.465 283.366 388.261 284.758 387.581C284.807 387.558 284.855 387.535 284.904 387.513Z" fill="#FFB6B6"/>
<path d="M331.951 333.045C333.355 332.47 334.867 332.205 336.383 332.267C337.899 332.328 339.385 332.716 340.738 333.403C342.091 334.09 343.28 335.06 344.225 336.248C345.169 337.436 345.847 338.813 346.212 340.286L352.072 363.949L350.97 405.346C350.97 405.346 320.382 411.215 315.248 407.442C310.113 403.67 310.595 400.862 310.113 403.67C309.631 406.478 307.427 407.656 307.396 406.539C307.366 405.422 307.116 405.613 305.837 405.276C304.557 404.94 298.91 402.859 298.91 402.859L298.657 391.056C298.657 391.056 307.993 387.516 310.258 388.572C312.523 389.628 309.776 391.381 312.523 389.628C315.271 387.876 315.571 382.346 316.041 387.33C316.51 392.314 317.885 393.242 319.945 391.026C322.005 388.81 331.548 390.225 331.548 390.225L325.475 344.208C325.17 341.894 325.639 339.543 326.811 337.523C327.982 335.504 329.79 333.929 331.951 333.045Z" fill="#87C346"/>
<path d="M520.562 470.323C520.562 470.447 520.538 470.569 520.491 470.684C520.444 470.798 520.374 470.902 520.287 470.989C520.199 471.076 520.096 471.146 519.981 471.193C519.867 471.24 519.745 471.264 519.621 471.264H-45.6889C-45.9384 471.264 -46.1776 471.165 -46.3539 470.988C-46.5303 470.812 -46.6294 470.573 -46.6294 470.323C-46.6294 470.074 -46.5303 469.835 -46.3539 469.658C-46.1776 469.482 -45.9384 469.383 -45.6889 469.383H519.621C519.745 469.382 519.867 469.407 519.981 469.454C520.096 469.501 520.199 469.57 520.287 469.657C520.374 469.745 520.444 469.849 520.491 469.963C520.538 470.077 520.562 470.2 520.562 470.323Z" fill="#CCCCCC"/>
<path d="M21.722 266.807H181.888C184.486 266.804 186.977 265.77 188.814 263.934C190.651 262.097 191.684 259.606 191.687 257.008V235.424C191.684 232.826 190.651 230.335 188.814 228.498C186.977 226.661 184.486 225.628 181.888 225.625H21.722C19.124 225.628 16.6332 226.661 14.7961 228.498C12.959 230.335 11.9257 232.826 11.9227 235.424V257.008C11.9257 259.606 12.959 262.097 14.7961 263.934C16.6332 265.77 19.124 266.804 21.722 266.807Z" fill="#E6E6E6"/>
<path d="M82.3464 242.527H129.538C130.098 242.527 130.635 242.304 131.031 241.908C131.427 241.512 131.649 240.975 131.649 240.416C131.649 239.856 131.427 239.319 131.031 238.923C130.635 238.527 130.098 238.305 129.538 238.305H82.3464C81.7865 238.305 81.2495 238.527 80.8536 238.923C80.4577 239.319 80.2353 239.856 80.2353 240.416C80.2353 240.975 80.4577 241.512 80.8536 241.908C81.2495 242.304 81.7865 242.527 82.3464 242.527Z" fill="white"/>
<path d="M36.9581 254.128H130.066C130.626 254.128 131.163 253.906 131.558 253.51C131.954 253.114 132.177 252.577 132.177 252.017C132.177 251.457 131.954 250.92 131.558 250.525C131.163 250.129 130.626 249.906 130.066 249.906H36.9581C36.3982 249.906 35.8612 250.129 35.4653 250.525C35.0694 250.92 34.847 251.457 34.847 252.017C34.847 252.577 35.0694 253.114 35.4653 253.51C35.8612 253.906 36.3982 254.128 36.9581 254.128Z" fill="white"/>
<path d="M154.609 260.377C146.792 260.377 140.455 254.04 140.455 246.224C140.455 238.407 146.792 232.07 154.609 232.07C162.426 232.07 168.763 238.407 168.763 246.224C168.763 254.04 162.426 260.377 154.609 260.377Z" fill="white"/>
<path d="M73.0931 322.127H233.259C235.857 322.124 238.348 321.091 240.185 319.254C242.022 317.417 243.055 314.926 243.058 312.328V290.744C243.055 288.146 242.022 285.656 240.185 283.819C238.348 281.982 235.857 280.948 233.259 280.945H73.0931C70.4951 280.948 68.0043 281.982 66.1672 283.819C64.3301 285.656 63.2968 288.146 63.2938 290.744V312.328C63.2968 314.926 64.3301 317.417 66.1672 319.254C68.0043 321.091 70.4951 322.124 73.0931 322.127Z" fill="#E6E6E6"/>
<path d="M133.717 297.847H180.909C181.469 297.847 182.006 297.625 182.402 297.229C182.798 296.833 183.02 296.296 183.02 295.736C183.02 295.176 182.798 294.639 182.402 294.243C182.006 293.847 181.469 293.625 180.909 293.625H133.717C133.158 293.625 132.621 293.847 132.225 294.243C131.829 294.639 131.606 295.176 131.606 295.736C131.606 296.296 131.829 296.833 132.225 297.229C132.621 297.625 133.158 297.847 133.717 297.847Z" fill="white"/>
<path d="M88.3292 309.448H181.437C181.997 309.448 182.534 309.226 182.93 308.83C183.325 308.434 183.548 307.897 183.548 307.338C183.548 306.778 183.325 306.241 182.93 305.845C182.534 305.449 181.997 305.227 181.437 305.227H88.3292C87.7693 305.227 87.2323 305.449 86.8364 305.845C86.4405 306.241 86.2181 306.778 86.2181 307.338C86.2181 307.897 86.4405 308.434 86.8364 308.83C87.2323 309.226 87.7693 309.448 88.3292 309.448Z" fill="white"/>
<path d="M205.98 315.689C198.163 315.689 191.826 309.353 191.826 301.536C191.826 293.719 198.163 287.383 205.98 287.383C213.797 287.383 220.134 293.719 220.134 301.536C220.134 309.353 213.797 315.689 205.98 315.689Z" fill="white"/>
</g>
<defs>
<clipPath id="clip0_365_2450">
<rect width="392" height="471" fill="white" transform="matrix(-1 0 0 1 392 0)"/>
</clipPath>
</defs>
</svg>
