<svg width="24" height="39" viewBox="0 0 24 39" fill="none" xmlns="http://www.w3.org/2000/svg">
<path d="M24 27C24 30.1826 22.7357 33.2348 20.4853 35.4853C18.2348 37.7357 15.1826 39 12 39C8.8174 39 5.76516 37.7357 3.51472 35.4853C1.26428 33.2348 4.80559e-07 30.1826 0 27L12 27H24Z" fill="#87C346"/>
<path d="M24 12C24 15.1826 22.7357 18.2348 20.4853 20.4853C18.2348 22.7357 15.1826 24 12 24C8.8174 24 5.76516 22.7357 3.51472 20.4853C1.26428 18.2348 4.80559e-07 15.1826 0 12L12 12H24Z" fill="#0093B4"/>
</svg>
