<svg width="24" height="31" viewBox="0 0 24 31" fill="none" xmlns="http://www.w3.org/2000/svg">
<path d="M12 7L14.6028 14.0339C15.0079 15.1288 15.8712 15.9921 16.9661 16.3972L24 19L16.9661 21.6028C15.8712 22.0079 15.0079 22.8712 14.6028 23.9661L12 31L9.39721 23.9661C8.99207 22.8712 8.12882 22.0079 7.03395 21.6028L0 19L7.03394 16.3972C8.12882 15.9921 8.99207 15.1288 9.39721 14.0339L12 7Z" fill="#FF666C"/>
<path d="M12 0L14.6028 7.03394C15.0079 8.12882 15.8712 8.99207 16.9661 9.39721L24 12L16.9661 14.6028C15.8712 15.0079 15.0079 15.8712 14.6028 16.9661L12 24L9.39721 16.9661C8.99207 15.8712 8.12882 15.0079 7.03395 14.6028L0 12L7.03394 9.39721C8.12882 8.99207 8.99207 8.12882 9.39721 7.03395L12 0Z" fill="#F3B04E"/>
</svg>
