<svg width="180" height="164" viewBox="0 0 180 164" fill="none" xmlns="http://www.w3.org/2000/svg">
<path d="M89.3194 62.2031H8.30502C4.27407 62.2031 1.00635 65.4757 1.00635 69.5126V155.686C1.00635 159.723 4.27407 162.995 8.30502 162.995H89.3194C93.3504 162.995 96.6181 159.723 96.6181 155.686V69.5126C96.6181 65.4757 93.3504 62.2031 89.3194 62.2031Z" fill="white"/>
<path d="M89.3195 164.003H8.30508C3.72548 164.003 0 160.272 0 155.686V69.5126C0 64.9268 3.72548 61.1953 8.30508 61.1953H89.3195C93.8991 61.1953 97.6246 64.9268 97.6246 69.5126V155.686C97.6246 160.272 93.8991 164.003 89.3195 164.003ZM8.30508 63.2112C4.83561 63.2112 2.01288 66.0381 2.01288 69.5126V155.686C2.01288 159.161 4.83562 161.988 8.30508 161.988H89.3195C92.789 161.988 95.6118 159.161 95.6118 155.686V69.5126C95.6118 66.0381 92.789 63.2112 89.3195 63.2112H8.30508Z" fill="#E6E6E6"/>
<path d="M51.3281 74.2969H14.0898V90.181H51.3281V74.2969Z" fill="#E6E6E6"/>
<path d="M78.9048 121.165H48.9131C46.6378 121.165 44.7866 119.311 44.7866 117.032V108.406C44.7866 106.127 46.6378 104.273 48.9131 104.273H78.9048C81.1801 104.273 83.0313 106.127 83.0313 108.406V117.032C83.0313 119.311 81.1801 121.165 78.9048 121.165Z" fill="#E6E6E6"/>
<path d="M53.7435 147.876H23.7518C21.1988 147.876 19.1221 145.796 19.1221 143.239V134.613C19.1221 132.056 21.1988 129.977 23.7518 129.977H53.7435C56.2964 129.977 58.3732 132.056 58.3732 134.613V143.239C58.3732 145.796 56.2964 147.876 53.7435 147.876ZM23.7518 131.992C22.309 131.992 21.1349 133.168 21.1349 134.613V143.239C21.1349 144.684 22.309 145.86 23.7518 145.86H53.7435C55.1863 145.86 56.3603 144.684 56.3603 143.239V134.613C56.3603 133.168 55.1863 131.992 53.7435 131.992H23.7518Z" fill="#E6E6E6"/>
<path d="M39.2514 84.8755H24.1548C22.7675 84.8755 21.6387 83.7456 21.6387 82.3557C21.6387 80.9659 22.7675 79.8359 24.1548 79.8359H39.2514C40.6387 79.8359 41.7675 80.9659 41.7675 82.3557C41.7675 83.7456 40.6387 84.8755 39.2514 84.8755Z" fill="white"/>
<path d="M72.4638 115.118H57.3672C55.9799 115.118 54.8511 113.988 54.8511 112.598C54.8511 111.208 55.9799 110.078 57.3672 110.078H72.4638C73.8511 110.078 74.9799 111.208 74.9799 112.598C74.9799 113.988 73.8511 115.118 72.4638 115.118Z" fill="white"/>
<path d="M45.2894 141.321H30.1929C28.8056 141.321 27.6768 140.191 27.6768 138.801C27.6768 137.411 28.8056 136.281 30.1929 136.281H45.2894C46.6767 136.281 47.8055 137.411 47.8055 138.801C47.8055 140.191 46.6767 141.321 45.2894 141.321Z" fill="#E6E6E6"/>
<path d="M103.172 112.216C119.571 110.487 135.123 103.193 147.147 91.9249C160.014 79.8665 168.066 63.2737 169.991 45.7579C171.114 35.5348 170.22 25.164 167.221 15.321C166.653 13.4592 163.795 14.4336 164.363 16.297C169.47 33.0565 168.176 51.5848 160.961 67.5365C154.301 82.2612 142.58 94.1955 128.275 101.597C120.406 105.669 111.772 108.27 102.965 109.198C101.039 109.401 101.232 112.42 103.172 112.216Z" fill="#3F3D56"/>
<path d="M151.312 25.1954L162.014 2.19752L159.662 2.64095L177.544 21.1967C178.896 22.6003 180.898 20.3346 179.556 18.9418L161.674 0.386009C161.005 -0.308127 159.711 -0.00916569 159.321 0.829436L148.619 23.8273C147.799 25.5902 150.491 26.9612 151.312 25.1954Z" fill="#3F3D56"/>
<path d="M81.5216 112.596C88.1917 112.596 93.5989 107.181 93.5989 100.501C93.5989 93.8214 88.1917 88.4062 81.5216 88.4062C74.8515 88.4062 69.4443 93.8214 69.4443 100.501C69.4443 107.181 74.8515 112.596 81.5216 112.596Z" fill="#87C346"/>
<path d="M85.7776 94.3844C85.2805 94.2476 84.8967 94.5554 84.7164 94.9878C83.6032 97.6571 82.49 100.326 81.3768 102.996C80.2132 101.298 79.0496 99.6011 77.886 97.9038C77.2614 96.9928 75.7655 97.856 76.3961 98.7759C77.8687 100.924 79.3413 103.072 80.8139 105.22C81.2643 105.876 82.1033 105.702 82.3906 105.013C83.7205 101.824 85.0503 98.6358 86.3801 95.4471C86.5597 95.0163 86.1863 94.4969 85.7776 94.3844Z" fill="white"/>
</svg>
