<svg width="593" height="492" viewBox="0 0 593 492" fill="none" xmlns="http://www.w3.org/2000/svg">
<g clip-path="url(#clip0_303_2754)" filter="url(#filter0_d_303_2754)">
<path d="M563 61.2409V406.759C563 430.643 541.225 450 514.357 450H78.643C51.7747 450 30 430.643 30 406.759V61.2409C30 37.3565 51.7747 18 78.643 18H514.357C541.225 18 563 37.3565 563 61.2409Z" fill="#F2F2F2"/>
<path d="M207.748 448.862L238.933 442.126L275.068 434.312C275.068 434.312 277.024 440.278 279.769 448.862H207.748Z" fill="#2F2E41"/>
<path d="M286.689 444.987C286.689 444.987 286.397 446.544 285.798 448.857H140.209C138.604 443.983 137.888 438.964 139.801 434.817C140.122 434.093 140.529 433.409 141.012 432.78C141.371 432.286 141.771 431.823 142.21 431.398C145.071 428.575 146.823 422.494 147.874 415.568C149.136 406.098 149.659 396.544 149.437 386.993C149.451 386.978 149.451 386.978 149.437 386.978C149.407 384.723 149.349 383.37 149.349 383.37C149.349 383.37 148.794 375.033 148.166 362.433C148.181 362.433 148.166 362.419 148.166 362.419C146.444 328.416 144.108 263.322 150.166 246.066C150.553 244.612 151.336 243.292 152.429 242.254C160.586 236.387 169.265 231.279 178.359 226.992C178.884 226.759 179.162 226.628 179.162 226.628L199.149 226.25L223.968 221.885L241.21 218.742C241.21 218.742 242.481 218.829 244.466 219.106C251.065 220.008 265.577 222.962 267.621 231.517C267.621 231.531 267.636 231.546 267.636 231.56C267.894 232.682 267.939 233.842 267.767 234.98C265.811 249.238 279.622 336.812 283.827 341.191C288.032 345.57 286.922 361.575 276.527 371.745C274.696 373.626 273.361 375.931 272.644 378.452C268.716 391.038 274.878 411.596 280.907 421.213C285.288 428.338 287.311 436.654 286.689 444.987Z" fill="#3F3D56"/>
<path d="M366.196 165.027L365.777 149.802L365.218 129.385L348.885 128.633L346.599 148.919L344.468 167.769L366.196 165.027Z" fill="#A0616A"/>
<path d="M198.901 229.489L221.815 253.995C221.815 253.995 318.9 269.621 319.55 261.416C320.199 253.212 313.804 250.835 324.287 251.564C334.77 252.293 337.289 259.715 338.887 252.617C340.484 245.519 331.695 245.344 341.872 244.338C352.049 243.332 374.277 154.781 374.277 154.781L338.82 160.48C338.82 160.48 331.928 203.295 327.607 208.767C323.285 214.238 318.949 218.164 316.283 218.401C313.617 218.638 198.901 229.489 198.901 229.489Z" fill="#3F3D56"/>
<path d="M212.042 197.809C230.632 197.809 245.702 182.79 245.702 164.264C245.702 145.737 230.632 130.719 212.042 130.719C193.451 130.719 178.381 145.737 178.381 164.264C178.381 182.79 193.451 197.809 212.042 197.809Z" fill="#A0616A"/>
<path d="M185.811 193.156L199.155 195.702C199.155 195.702 186.745 175.74 187.475 166.603C188.205 157.466 198.191 154.192 198.191 154.192C198.191 154.192 203.725 155.385 209.55 156.055C210.248 154.097 211.153 152.219 212.251 150.453C212.467 152.733 213.48 154.865 215.113 156.477C217.247 156.659 219.397 156.412 221.434 155.749C223.741 154.702 223.697 152.883 222.938 151.181C234.048 151.719 244.575 157.102 244.575 157.102C244.911 152.635 244.739 148.145 244.064 143.717C243.743 143.629 243.421 143.528 243.1 143.426C241.11 142.798 239.192 141.964 237.377 140.938C239.397 140.671 241.284 139.786 242.779 138.406C241.553 134.827 239.596 131.728 236.516 130.215C233.544 128.766 230.294 127.971 226.987 127.883C223.679 127.795 220.392 128.417 217.346 129.706C217.346 129.706 224.485 124.511 221.858 122.387C221.682 122.562 221.507 122.722 221.317 122.882C221.069 123.085 220.792 123.304 220.529 123.507C218.908 124.817 216.485 122.969 216.164 120.99C216.129 120.74 216.08 120.493 216.018 120.248C215.974 120.045 215.915 119.841 215.857 119.652C215.807 119.484 215.749 119.319 215.682 119.157C210.82 117.993 196.118 122.722 190.468 133.139C190.468 133.139 150.976 152.054 185.811 193.156Z" fill="#3F3D56"/>
<path d="M169.672 448.862H150.809L150.166 447.8L141.013 432.784L135.96 424.491L147.874 415.573L153.481 411.383L165.846 440.001L169.672 448.862Z" fill="#A0616A"/>
<path d="M178.365 226.996L225.434 335.376L244.472 219.111C242.487 218.834 241.217 218.747 241.217 218.747L233.114 203.062L186.701 205.463L179.168 226.633C179.168 226.633 178.89 226.764 178.365 226.996Z" fill="#87C346"/>
<path d="M240.29 448.858H203.222L226.889 381.93L238.933 442.121L240.29 448.858Z" fill="#87C346"/>
<path opacity="0.5" d="M465.669 243.477H359.115C342.221 243.477 328.526 257.125 328.526 273.961V312.35C328.526 329.186 342.221 342.834 359.115 342.834H465.669C482.563 342.834 496.258 329.186 496.258 312.35V273.961C496.258 257.125 482.563 243.477 465.669 243.477Z" fill="white"/>
<path d="M465.668 343.973H359.115C350.702 343.964 342.636 340.629 336.687 334.7C330.738 328.772 327.391 320.734 327.382 312.349V273.96C327.391 265.576 330.738 257.538 336.687 251.609C342.636 245.68 350.702 242.346 359.115 242.336H465.668C474.081 242.346 482.147 245.68 488.096 251.609C494.045 257.538 497.392 265.576 497.401 273.96V312.349C497.392 320.734 494.045 328.772 488.096 334.7C482.147 340.629 474.081 343.964 465.668 343.973ZM359.115 244.616C351.308 244.624 343.824 247.719 338.304 253.22C332.783 258.721 329.678 266.18 329.669 273.96V312.349C329.678 320.129 332.783 327.588 338.304 333.089C343.824 338.59 351.308 341.685 359.115 341.694H465.668C473.475 341.685 480.959 338.59 486.48 333.089C492 327.588 495.105 320.129 495.114 312.349V273.96C495.105 266.18 492 258.721 486.48 253.22C480.959 247.719 473.475 244.624 465.668 244.616L359.115 244.616Z" fill="white"/>
<path d="M412.254 321.303C425.747 321.303 436.685 310.402 436.685 296.956C436.685 283.51 425.747 272.609 412.254 272.609C398.762 272.609 387.824 283.51 387.824 296.956C387.824 310.402 398.762 321.303 412.254 321.303Z" fill="#A0616A"/>
<path d="M417.612 321.166C414.612 314.501 430.864 300.673 420.451 299.972C420.451 299.972 413.606 288.012 409.259 291.218C404.227 294.931 396.893 288.188 392.585 283.677C393.502 282.94 394.325 282.093 395.034 281.156C393.665 281.407 392.279 281.551 390.887 281.589C390.37 280.828 390.009 279.972 389.824 279.072C389.622 278.22 389.686 277.326 390.008 276.512C390.331 275.697 390.895 275.001 391.626 274.515C393.205 273.638 395.222 274.174 396.909 273.545C397.12 273.443 397.303 273.291 397.441 273.102C397.58 272.914 397.671 272.695 397.707 272.464C397.833 271.921 398.078 271.412 398.425 270.973C398.772 270.535 399.211 270.178 399.712 269.929C400.212 269.679 400.762 269.542 401.322 269.528C401.882 269.515 402.438 269.624 402.95 269.849C403.146 269.959 403.365 270.02 403.59 270.026C404.766 269.952 405.929 269.738 407.055 269.389C405.792 268.8 404.576 268.117 403.417 267.344C403.179 267.183 402.941 267.022 402.707 266.851C403.757 266.002 404.977 265.388 406.286 265.053C407.595 264.717 408.962 264.667 410.292 264.907C413.081 265.447 415.77 266.415 418.263 267.774C419.74 268.492 421.214 269.207 422.685 269.921C425.861 271.315 428.879 273.039 431.691 275.065C434.624 277.362 437.011 280.277 438.683 283.6C440.355 286.924 441.269 290.574 441.362 294.291C441.496 301.705 435.131 322.023 417.612 321.166Z" fill="#2F2E41"/>
<path opacity="0.5" d="M267.054 340.383H160.501C143.607 340.383 129.912 354.031 129.912 370.867V409.257C129.912 426.093 143.607 439.741 160.501 439.741H267.054C283.948 439.741 297.644 426.093 297.644 409.257V370.867C297.644 354.031 283.948 340.383 267.054 340.383Z" fill="white"/>
<path d="M267.054 440.88H160.501C152.088 440.87 144.022 437.535 138.073 431.607C132.124 425.678 128.778 417.64 128.768 409.256V370.866C128.778 362.482 132.124 354.444 138.073 348.515C144.022 342.587 152.088 339.252 160.501 339.242H267.054C275.468 339.252 283.534 342.587 289.483 348.515C295.432 354.444 298.778 362.482 298.788 370.866V409.256C298.778 417.64 295.432 425.678 289.483 431.607C283.534 437.535 275.468 440.87 267.054 440.88ZM160.501 341.522C152.694 341.531 145.21 344.625 139.69 350.126C134.17 355.628 131.064 363.086 131.056 370.866V409.256C131.064 417.036 134.17 424.494 139.69 429.995C145.21 435.497 152.694 438.591 160.501 438.6H267.054C274.861 438.591 282.346 435.497 287.866 429.995C293.386 424.494 296.491 417.036 296.5 409.256V370.866C296.491 363.086 293.386 355.628 287.866 350.126C282.346 344.625 274.861 341.531 267.054 341.522H160.501Z" fill="white"/>
<path d="M215.414 421.748C229.123 421.748 240.237 410.673 240.237 397.011C240.237 383.349 229.123 372.273 215.414 372.273C201.705 372.273 190.591 383.349 190.591 397.011C190.591 410.673 201.705 421.748 215.414 421.748Z" fill="#FFB6B6"/>
<path d="M199.244 403.367C198.935 403.263 198.607 403.227 198.283 403.261C197.959 403.294 197.646 403.397 197.365 403.561C197.085 403.725 196.842 403.948 196.655 404.213C196.468 404.479 196.34 404.782 196.28 405.101C196.198 405.756 196.252 406.421 196.437 407.055C196.622 407.689 196.935 408.278 197.357 408.787C198.204 409.799 198.964 410.88 199.627 412.02C199.951 412.597 200.102 413.254 200.064 413.913C200.026 414.573 199.8 415.208 199.412 415.744C198.989 416.154 198.457 416.436 197.88 416.558C197.302 416.679 196.702 416.635 196.149 416.43C195.048 416.001 194.074 415.3 193.32 414.392C188.574 409.261 183.624 400.743 186.05 394.198C186.251 393.498 186.331 392.769 186.286 392.043C186.333 391.21 186.488 389.955 185.7 389.672C183.504 388.882 189.668 376.085 199.181 373.301C198.718 368.932 221.606 362.647 220.356 368.132C220.132 369.117 222.342 368.582 223.354 368.636C231.12 369.055 239.89 371 239.183 379.969C238.909 383.443 240.351 382.642 241.508 385.929C239.705 387.001 239.113 389.35 237.723 387.782C236.333 386.214 235.146 384.251 233.153 383.592C231.031 382.891 228.729 383.94 226.919 385.248C225.109 386.556 223.449 388.18 221.322 388.865C218.936 389.634 216.335 389.099 213.847 389.41C210.298 390.017 207.093 391.893 204.833 394.687C202.606 397.465 200.726 400.502 199.235 403.732" fill="#2F2E41"/>
<path d="M185.285 241.984L151.705 243.439C151.705 243.439 102.066 327.826 107.906 333.646C113.746 339.466 119.712 336.162 112.349 343.634C104.986 351.106 97.6864 348.196 102.066 354.016C106.446 359.835 112.286 353.287 106.446 361.653C100.606 370.02 148.056 448.856 148.056 448.856L168.495 438.672C168.495 438.672 148.605 386.586 147.235 379.758C145.866 372.93 145.685 367.094 147.235 364.92C148.786 362.745 185.285 241.984 185.285 241.984Z" fill="#3F3D56"/>
<path d="M357.254 268.511C361.602 268.511 365.127 264.999 365.127 260.666C365.127 256.333 361.602 252.82 357.254 252.82C352.906 252.82 349.381 256.333 349.381 260.666C349.381 264.999 352.906 268.511 357.254 268.511Z" fill="#87C346"/>
<path d="M356.18 264.745C356.044 264.745 355.91 264.713 355.788 264.653C355.667 264.592 355.561 264.504 355.479 264.396L353.331 261.542C353.262 261.45 353.211 261.346 353.181 261.234C353.152 261.123 353.145 261.007 353.161 260.893C353.177 260.779 353.216 260.669 353.274 260.57C353.333 260.471 353.411 260.384 353.503 260.315C353.596 260.246 353.701 260.196 353.813 260.168C353.925 260.139 354.041 260.133 354.155 260.15C354.27 260.167 354.379 260.206 354.478 260.265C354.578 260.324 354.664 260.402 354.733 260.495L356.138 262.361L359.747 256.967C359.876 256.774 360.076 256.64 360.304 256.595C360.531 256.55 360.768 256.596 360.961 256.725C361.154 256.853 361.289 257.053 361.334 257.28C361.38 257.507 361.333 257.742 361.204 257.935L356.909 264.356C356.831 264.472 356.726 264.568 356.604 264.636C356.481 264.703 356.344 264.741 356.204 264.744L356.18 264.745Z" fill="white"/>
<path d="M165.099 366.535C169.447 366.535 172.972 363.022 172.972 358.689C172.972 354.356 169.447 350.844 165.099 350.844C160.751 350.844 157.227 354.356 157.227 358.689C157.227 363.022 160.751 366.535 165.099 366.535Z" fill="#87C346"/>
<path d="M164.025 362.776C163.89 362.776 163.755 362.744 163.634 362.684C163.512 362.623 163.407 362.535 163.325 362.427L161.177 359.573C161.107 359.481 161.056 359.377 161.027 359.266C160.998 359.154 160.991 359.038 161.007 358.924C161.023 358.81 161.061 358.7 161.12 358.601C161.179 358.502 161.256 358.416 161.349 358.347C161.441 358.278 161.546 358.227 161.658 358.199C161.77 358.171 161.887 358.165 162.001 358.181C162.115 358.198 162.225 358.237 162.324 358.296C162.423 358.355 162.51 358.433 162.578 358.526L163.983 360.393L167.592 354.998C167.656 354.903 167.738 354.821 167.834 354.757C167.929 354.693 168.037 354.649 168.149 354.626C168.262 354.604 168.378 354.604 168.491 354.626C168.604 354.648 168.711 354.692 168.807 354.756C168.903 354.82 168.985 354.901 169.049 354.997C169.113 355.092 169.157 355.199 169.18 355.311C169.202 355.423 169.202 355.539 169.18 355.652C169.158 355.764 169.114 355.871 169.05 355.966L164.754 362.387C164.676 362.504 164.572 362.599 164.449 362.667C164.327 362.735 164.19 362.772 164.05 362.776L164.025 362.776Z" fill="white"/>
<path d="M470.488 272.695C468.951 272.695 467.448 272.241 466.17 271.39C464.892 270.538 463.895 269.329 463.307 267.913C462.719 266.498 462.565 264.94 462.865 263.438C463.165 261.935 463.905 260.555 464.992 259.472C466.079 258.389 467.464 257.651 468.972 257.352C470.479 257.053 472.042 257.206 473.462 257.793C474.883 258.379 476.097 259.372 476.951 260.646C477.805 261.919 478.261 263.417 478.261 264.949C478.261 267.003 477.442 268.974 475.984 270.426C474.526 271.879 472.549 272.695 470.488 272.695Z" fill="#E6E6E6"/>
<path d="M473.199 266.573L471.572 264.952L473.199 263.331C473.271 263.26 473.328 263.176 473.367 263.083C473.406 262.99 473.426 262.891 473.427 262.79C473.427 262.689 473.407 262.589 473.369 262.496C473.33 262.403 473.274 262.318 473.202 262.247C473.131 262.176 473.046 262.12 472.952 262.081C472.859 262.043 472.759 262.023 472.658 262.023C472.556 262.024 472.456 262.044 472.363 262.083C472.27 262.122 472.185 262.179 472.114 262.251L470.488 263.871L468.862 262.251C468.718 262.108 468.523 262.028 468.32 262.028C468.117 262.029 467.922 262.109 467.779 262.252C467.635 262.395 467.554 262.589 467.554 262.791C467.554 262.994 467.634 263.188 467.777 263.331L469.404 264.952L467.777 266.573C467.705 266.644 467.648 266.728 467.609 266.821C467.57 266.914 467.55 267.013 467.549 267.114C467.549 267.215 467.569 267.315 467.607 267.408C467.646 267.501 467.702 267.586 467.774 267.657C467.845 267.728 467.93 267.784 468.024 267.823C468.117 267.861 468.217 267.881 468.318 267.881C468.42 267.88 468.52 267.86 468.613 267.821C468.706 267.782 468.791 267.725 468.862 267.653L470.488 266.033L472.114 267.653C472.186 267.725 472.27 267.781 472.363 267.82C472.456 267.859 472.556 267.879 472.657 267.879C472.758 267.879 472.858 267.859 472.951 267.821C473.044 267.782 473.129 267.726 473.2 267.655C473.272 267.584 473.328 267.5 473.367 267.407C473.405 267.314 473.425 267.214 473.425 267.114C473.425 267.013 473.405 266.914 473.366 266.821C473.327 266.728 473.27 266.644 473.199 266.573Z" fill="white"/>
<path d="M269.183 366.164C267.646 366.164 266.143 365.709 264.865 364.858C263.587 364.007 262.591 362.797 262.002 361.382C261.414 359.967 261.26 358.409 261.56 356.907C261.86 355.404 262.6 354.024 263.687 352.941C264.774 351.857 266.159 351.12 267.667 350.821C269.175 350.522 270.738 350.675 272.158 351.262C273.578 351.848 274.792 352.841 275.646 354.114C276.5 355.388 276.956 356.886 276.956 358.418C276.956 360.472 276.137 362.442 274.679 363.895C273.222 365.348 271.245 366.164 269.183 366.164Z" fill="#E6E6E6"/>
<path d="M271.894 360.037L270.268 358.416L271.894 356.795C272.036 356.651 272.116 356.457 272.115 356.256C272.115 356.054 272.034 355.86 271.891 355.718C271.747 355.575 271.553 355.495 271.351 355.494C271.148 355.493 270.954 355.573 270.81 355.714L269.183 357.335L267.557 355.714C267.413 355.572 267.218 355.492 267.015 355.492C266.812 355.492 266.618 355.573 266.474 355.716C266.331 355.859 266.25 356.053 266.25 356.255C266.249 356.457 266.329 356.652 266.473 356.795L268.099 358.416L266.473 360.037C266.401 360.107 266.344 360.192 266.304 360.285C266.265 360.378 266.245 360.477 266.245 360.578C266.244 360.679 266.264 360.779 266.303 360.872C266.341 360.965 266.398 361.049 266.469 361.121C266.541 361.192 266.626 361.248 266.719 361.287C266.813 361.325 266.913 361.345 267.014 361.344C267.115 361.344 267.215 361.324 267.308 361.285C267.401 361.246 267.486 361.189 267.557 361.117L269.183 359.496L270.81 361.117C270.954 361.26 271.148 361.34 271.351 361.34C271.554 361.339 271.749 361.259 271.893 361.116C272.036 360.973 272.117 360.779 272.117 360.577C272.117 360.374 272.037 360.18 271.894 360.037Z" fill="white"/>
<path d="M357.12 135.403C364.701 135.403 370.846 129.279 370.846 121.725C370.846 114.171 364.701 108.047 357.12 108.047C349.54 108.047 343.395 114.171 343.395 121.725C343.395 129.279 349.54 135.403 357.12 135.403Z" fill="#A0616A"/>
<path opacity="0.5" d="M465.298 118.078H358.745C341.851 118.078 328.155 131.726 328.155 148.562V186.952C328.155 203.788 341.851 217.436 358.745 217.436H465.298C482.192 217.436 495.887 203.788 495.887 186.952V148.562C495.887 131.726 482.192 118.078 465.298 118.078Z" fill="white"/>
<path d="M465.299 218.575H358.744C350.331 218.566 342.265 215.231 336.316 209.302C330.367 203.374 327.021 195.336 327.011 186.951V148.561C327.021 140.177 330.367 132.139 336.316 126.21C342.265 120.282 350.331 116.947 358.744 116.938H465.299C473.712 116.947 481.778 120.282 487.727 126.21C493.676 132.139 497.022 140.177 497.032 148.561V186.951C497.022 195.336 493.676 203.374 487.727 209.302C481.778 215.231 473.712 218.566 465.299 218.575ZM358.744 119.217C350.938 119.226 343.453 122.32 337.933 127.822C332.413 133.323 329.308 140.782 329.299 148.561V186.951C329.308 194.731 332.413 202.19 337.933 207.691C343.453 213.192 350.938 216.287 358.744 216.296H465.299C473.105 216.287 480.59 213.192 486.11 207.691C491.63 202.19 494.735 194.731 494.744 186.951V148.561C494.735 140.782 491.63 133.323 486.11 127.822C480.59 122.32 473.105 119.226 465.299 119.217H358.744Z" fill="white"/>
<path d="M443.857 170.608C443.927 176.988 445.965 190.27 444.504 196.519L444.268 195.996C443.054 196.956 441.764 197.815 440.411 198.568C439.435 196.202 437.976 194.065 436.126 192.292C436.37 195.225 436.022 198.177 435.103 200.973C429.637 202.934 420.043 196.755 414.095 196.624C404.528 196.406 395.205 194.035 386.066 191.525C382.821 190.636 379.253 189.477 377.783 186.793C376.314 184.108 378.944 181.211 378.772 178.182C377.546 156.606 387.859 152.989 397.671 147.224C399.83 145.955 400.89 143.223 403.33 142.16C406.714 140.687 410.746 141.393 414.428 142.134C413.513 141.834 412.692 141.304 412.042 140.596C411.393 139.888 410.938 139.025 410.72 138.09C410.566 137.174 410.669 136.233 411.018 135.372C411.367 134.511 411.948 133.762 412.696 133.209C413.813 132.481 415.076 132.006 416.397 131.818C417.717 131.63 419.063 131.733 420.34 132.12C422.841 132.899 425.207 134.057 427.354 135.554C428.812 136.351 430.116 137.402 431.202 138.657C431.714 139.25 432.032 139.986 432.113 140.765C432.194 141.543 432.035 142.328 431.657 143.014C431.19 143.602 430.596 144.078 429.919 144.406C429.242 144.733 428.5 144.904 427.748 144.906C426.588 144.939 425.429 144.819 424.302 144.548C429.471 145.819 434.129 148.628 437.656 152.601C442.038 157.683 443.778 164.228 443.857 170.608Z" fill="#2F2E41"/>
<path d="M409.536 191.378C421.246 191.378 430.739 181.917 430.739 170.247C430.739 158.577 421.246 149.117 409.536 149.117C397.826 149.117 388.333 158.577 388.333 170.247C388.333 181.917 397.826 191.378 409.536 191.378Z" fill="#FFB6B6"/>
<path d="M432.672 167.061C430.179 170.068 426.471 169.911 423.174 169.432C422.133 169.283 421.092 169.118 420.052 168.926C419.868 168.342 419.658 167.758 419.422 167.192C418.446 164.826 416.987 162.689 415.137 160.916C415.331 163.234 415.151 165.567 414.603 167.828C412.67 167.383 410.746 166.887 408.831 166.338C407.136 166.063 405.612 165.15 404.574 163.788C403.535 162.425 403.062 160.717 403.251 159.016C400.496 161.108 397.496 162.921 394.348 162.956C392.573 162.91 390.86 162.299 389.459 161.212C388.058 160.125 387.044 158.619 386.564 156.916C385.833 154.157 385.705 151.274 386.188 148.462C386.608 145.106 387.553 141.42 389.826 140.069C391.654 138.971 393.762 139.755 395.642 140.644C399.785 142.625 403.712 145.026 407.362 147.808L407.405 148.723C408.35 144.217 411.472 140.74 414.874 140.391C417.165 140.165 419.404 141.219 421.565 142.282C424.388 143.524 427.013 145.171 429.357 147.172C432.005 149.572 433.843 152.729 434.622 156.21C435.435 159.984 434.823 164.464 432.672 167.061Z" fill="#2F2E41"/>
<path d="M411.683 137.739C411.9 137.757 411.366 137.635 411.539 137.708C411.454 137.669 411.373 137.623 411.295 137.571C411.282 137.563 411.109 137.424 411.222 137.521C410.963 137.32 410.767 137.048 410.66 136.738C410.419 135.986 410.307 135.199 410.328 134.41C410.371 133.373 410.194 132.339 409.807 131.375C409.693 131.114 409.518 130.883 409.297 130.702C409.077 130.521 408.816 130.394 408.537 130.332C408.258 130.27 407.968 130.275 407.691 130.345C407.414 130.416 407.158 130.551 406.943 130.738C406.339 131.55 406.047 132.551 406.12 133.559C406.065 134.534 406.169 135.512 406.427 136.455C406.871 138.005 407.758 139.393 408.979 140.45C410.39 141.681 412.161 142.426 414.03 142.575C414.287 142.569 414.537 142.489 414.749 142.344C414.961 142.2 415.126 141.997 415.224 141.76C415.322 141.524 415.35 141.264 415.302 141.012C415.255 140.76 415.135 140.528 414.958 140.343L412.61 138.122C412.364 137.879 412.031 137.744 411.684 137.745C411.338 137.746 411.006 137.884 410.761 138.128C410.516 138.372 410.378 138.703 410.377 139.048C410.376 139.393 410.512 139.725 410.755 139.971L413.103 142.192L414.03 139.96C413.643 139.925 413.26 139.847 412.89 139.728C412.489 139.617 412.106 139.449 411.752 139.23C411.405 139.041 411.08 138.815 410.782 138.555C410.592 138.388 410.41 138.212 410.238 138.027C410.175 137.96 410.114 137.891 410.054 137.822C410.058 137.827 409.807 137.512 409.915 137.656C409.643 137.286 409.407 136.892 409.209 136.478C409.139 136.332 409.082 136.18 409.037 136.024C408.954 135.767 408.886 135.506 408.834 135.242C408.734 134.687 408.703 134.121 408.744 133.559C408.755 133.32 408.779 133.082 408.815 132.846C408.848 132.722 408.873 132.595 408.889 132.467C408.893 132.15 408.845 132.637 408.679 132.711L408.017 132.889C407.909 132.88 407.805 132.847 407.711 132.793C407.618 132.739 407.538 132.664 407.477 132.574C407.45 132.465 407.458 132.485 407.501 132.632C407.551 132.806 407.589 132.982 407.616 133.161C407.667 133.575 407.696 133.992 407.704 134.41C407.713 135.295 407.816 136.176 408.012 137.039C408.196 137.907 408.65 138.694 409.309 139.289C409.968 139.884 410.799 140.257 411.683 140.354C412.03 140.351 412.362 140.212 412.607 139.968C412.853 139.723 412.992 139.392 412.995 139.046C412.988 138.702 412.847 138.373 412.603 138.129C412.358 137.886 412.028 137.746 411.683 137.739Z" fill="#2F2E41"/>
<path d="M359.542 143.129C363.89 143.129 367.414 139.616 367.414 135.283C367.414 130.95 363.89 127.438 359.542 127.438C355.194 127.438 351.669 130.95 351.669 135.283C351.669 139.616 355.194 143.129 359.542 143.129Z" fill="#87C346"/>
<path d="M358.467 139.362C358.331 139.362 358.197 139.33 358.076 139.27C357.954 139.209 357.848 139.121 357.767 139.013L355.619 136.159C355.549 136.067 355.498 135.963 355.469 135.851C355.44 135.74 355.433 135.624 355.449 135.51C355.465 135.396 355.503 135.286 355.562 135.187C355.621 135.088 355.698 135.002 355.791 134.933C355.883 134.863 355.988 134.813 356.1 134.785C356.212 134.757 356.329 134.751 356.443 134.767C356.557 134.784 356.667 134.823 356.766 134.882C356.865 134.941 356.952 135.019 357.02 135.112L358.425 136.979L362.034 131.584C362.163 131.391 362.363 131.258 362.591 131.212C362.819 131.167 363.056 131.213 363.249 131.342C363.442 131.47 363.576 131.67 363.622 131.897C363.667 132.124 363.62 132.36 363.492 132.552L359.196 138.973C359.118 139.089 359.014 139.185 358.891 139.253C358.769 139.32 358.632 139.358 358.492 139.362L358.467 139.362Z" fill="white"/>
<path d="M467.056 143.898C465.519 143.898 464.016 143.444 462.738 142.593C461.46 141.742 460.464 140.532 459.875 139.116C459.287 137.701 459.133 136.144 459.433 134.641C459.733 133.138 460.473 131.758 461.56 130.675C462.647 129.592 464.032 128.854 465.54 128.555C467.048 128.256 468.611 128.41 470.031 128.996C471.451 129.582 472.665 130.575 473.519 131.849C474.373 133.123 474.829 134.62 474.829 136.152C474.829 138.207 474.01 140.177 472.552 141.629C471.095 143.082 469.118 143.898 467.056 143.898Z" fill="#E6E6E6"/>
<path d="M469.767 137.768L468.141 136.147L469.767 134.526C469.839 134.456 469.896 134.371 469.935 134.279C469.974 134.186 469.995 134.086 469.995 133.985C469.995 133.884 469.976 133.785 469.937 133.692C469.899 133.598 469.842 133.514 469.77 133.443C469.699 133.371 469.614 133.315 469.521 133.276C469.427 133.238 469.327 133.218 469.226 133.219C469.125 133.219 469.025 133.239 468.932 133.278C468.838 133.317 468.754 133.374 468.683 133.446L467.056 135.067L465.43 133.446C465.286 133.303 465.091 133.223 464.888 133.224C464.685 133.224 464.491 133.304 464.347 133.447C464.204 133.59 464.123 133.784 464.123 133.987C464.122 134.189 464.203 134.383 464.346 134.526L465.972 136.147L464.346 137.768C464.274 137.839 464.217 137.923 464.177 138.016C464.138 138.109 464.118 138.209 464.118 138.309C464.117 138.41 464.137 138.51 464.176 138.603C464.214 138.696 464.271 138.781 464.342 138.852C464.414 138.923 464.499 138.98 464.592 139.018C464.686 139.057 464.786 139.076 464.887 139.076C464.988 139.076 465.088 139.055 465.181 139.016C465.274 138.977 465.359 138.92 465.43 138.849L467.056 137.228L468.683 138.849C468.754 138.92 468.838 138.977 468.932 139.015C469.025 139.054 469.125 139.074 469.225 139.074C469.326 139.074 469.426 139.055 469.519 139.016C469.613 138.978 469.697 138.921 469.769 138.85C469.84 138.779 469.897 138.695 469.935 138.602C469.974 138.509 469.993 138.409 469.993 138.309C469.993 138.208 469.973 138.109 469.934 138.016C469.895 137.923 469.839 137.839 469.767 137.768Z" fill="white"/>
<path d="M519.954 70.4359H60.4641C60.1607 70.4359 59.8698 70.3158 59.6553 70.1021C59.4408 69.8883 59.3203 69.5984 59.3203 69.2961C59.3203 68.9938 59.4408 68.7039 59.6553 68.4901C59.8698 68.2764 60.1607 68.1562 60.4641 68.1562H519.954C520.257 68.1562 520.548 68.2764 520.763 68.4901C520.977 68.7039 521.098 68.9938 521.098 69.2961C521.098 69.5984 520.977 69.8883 520.763 70.1021C520.548 70.3158 520.257 70.4359 519.954 70.4359Z" fill="white"/>
<path d="M111.957 52.1974C116.838 52.1974 120.796 48.1657 120.796 43.1924C120.796 38.2191 116.838 34.1875 111.957 34.1875C107.075 34.1875 103.118 38.2191 103.118 43.1924C103.118 48.1657 107.075 52.1974 111.957 52.1974Z" fill="white"/>
<path d="M142.491 52.1974C147.373 52.1974 151.33 48.1657 151.33 43.1924C151.33 38.2191 147.373 34.1875 142.491 34.1875C137.61 34.1875 133.652 38.2191 133.652 43.1924C133.652 48.1657 137.61 52.1974 142.491 52.1974Z" fill="white"/>
<path d="M173.027 52.1974C177.908 52.1974 181.866 48.1657 181.866 43.1924C181.866 38.2191 177.908 34.1875 173.027 34.1875C168.145 34.1875 164.188 38.2191 164.188 43.1924C164.188 48.1657 168.145 52.1974 173.027 52.1974Z" fill="white"/>
<path d="M207.844 50.3047C207.705 50.3049 207.567 50.2772 207.439 50.2234C207.311 50.1696 207.194 50.0907 207.097 49.9914L201.133 43.9156C200.942 43.721 200.835 43.4595 200.835 43.1873C200.835 42.915 200.942 42.6535 201.133 42.4589L207.097 36.3836C207.193 36.2858 207.308 36.2078 207.434 36.1541C207.56 36.1003 207.696 36.0719 207.833 36.0704C207.97 36.0689 208.106 36.0943 208.234 36.1453C208.361 36.1962 208.477 36.2717 208.575 36.3673C208.673 36.4629 208.752 36.5769 208.806 36.7027C208.86 36.8285 208.888 36.9636 208.889 37.1004C208.891 37.2372 208.866 37.3729 208.814 37.4998C208.763 37.6268 208.688 37.7424 208.592 37.8402L203.342 43.1872L208.592 48.5347C208.735 48.6813 208.833 48.8669 208.871 49.0683C208.91 49.2697 208.888 49.478 208.808 49.6669C208.728 49.8559 208.594 50.0173 208.423 50.1307C208.251 50.2441 208.05 50.3047 207.844 50.3047Z" fill="white"/>
<path d="M217.866 50.3047C217.661 50.3046 217.46 50.2441 217.288 50.1307C217.117 50.0173 216.983 49.8559 216.903 49.6669C216.823 49.478 216.801 49.2697 216.84 49.0683C216.878 48.8669 216.975 48.6813 217.119 48.5347L222.368 43.1872L217.119 37.8402C216.925 37.6427 216.818 37.3766 216.821 37.1004C216.824 36.8242 216.937 36.5605 217.136 36.3673C217.334 36.1741 217.601 36.0673 217.878 36.0704C218.155 36.0734 218.42 36.1861 218.614 36.3836L224.577 42.4589C224.768 42.6535 224.875 42.915 224.875 43.1873C224.875 43.4595 224.768 43.721 224.577 43.9156L218.614 49.9914C218.516 50.0907 218.4 50.1696 218.272 50.2234C218.144 50.2772 218.006 50.3048 217.866 50.3047Z" fill="white"/>
<path d="M449.393 35.2266H438.304C438.003 35.2265 437.705 35.2854 437.428 35.4C437.15 35.5146 436.897 35.6827 436.685 35.8945C436.472 36.1064 436.304 36.3579 436.189 36.6347C436.074 36.9115 436.015 37.2082 436.015 37.5077V48.5698C436.015 48.8694 436.074 49.1661 436.189 49.4429C436.304 49.7197 436.472 49.9712 436.685 50.183C436.897 50.3949 437.15 50.5629 437.428 50.6775C437.705 50.7921 438.003 50.8511 438.304 50.851H449.393C450.002 50.8516 450.585 50.6117 451.016 50.1841C451.447 49.7565 451.691 49.1759 451.693 48.5698V37.5077C451.691 36.9016 451.447 36.3211 451.016 35.8934C450.585 35.4658 450.002 35.226 449.393 35.2266Z" fill="white"/>
<path d="M422.218 35.2266H411.128C410.827 35.2265 410.53 35.2854 410.252 35.4C409.974 35.5146 409.722 35.6827 409.509 35.8945C409.297 36.1064 409.128 36.3579 409.013 36.6347C408.898 36.9115 408.839 37.2082 408.839 37.5077V48.5698C408.839 48.8694 408.898 49.1661 409.013 49.4429C409.128 49.7197 409.297 49.9712 409.509 50.183C409.722 50.3949 409.974 50.5629 410.252 50.6775C410.53 50.7921 410.827 50.8511 411.128 50.851H422.218C422.826 50.8516 423.41 50.6117 423.841 50.1841C424.272 49.7565 424.515 49.1759 424.517 48.5698V37.5077C424.515 36.9016 424.272 36.3211 423.841 35.8934C423.41 35.4658 422.826 35.226 422.218 35.2266Z" fill="white"/>
<path d="M475.001 35.75H463.912C463.611 35.7499 463.313 35.8089 463.036 35.9235C462.758 36.0381 462.505 36.2061 462.293 36.4179C462.08 36.6298 461.912 36.8813 461.797 37.1581C461.682 37.4349 461.622 37.7316 461.623 38.0312V49.0933C461.622 49.3929 461.682 49.6895 461.797 49.9663C461.912 50.2431 462.08 50.4946 462.293 50.7065C462.505 50.9183 462.758 51.0864 463.036 51.201C463.313 51.3156 463.611 51.3745 463.912 51.3744H475.001C475.61 51.375 476.193 51.1352 476.624 50.7076C477.055 50.2799 477.299 49.6994 477.301 49.0933V38.0312C477.299 37.425 477.055 36.8445 476.624 36.4169C476.193 35.9892 475.61 35.7494 475.001 35.75Z" fill="white"/>
<path d="M353.837 39.9532H265.192C264.824 39.9508 264.459 40.021 264.119 40.1597C263.778 40.2985 263.468 40.5029 263.207 40.7614C262.946 41.0199 262.739 41.3273 262.597 41.6659C262.456 42.0045 262.383 42.3676 262.383 42.7343C262.383 43.1011 262.456 43.4642 262.597 43.8028C262.739 44.1413 262.946 44.4488 263.207 44.7072C263.468 44.9657 263.778 45.1702 264.119 45.3089C264.459 45.4476 264.824 45.5178 265.192 45.5155H353.837C354.574 45.5108 355.28 45.2157 355.799 44.6946C356.319 44.1736 356.61 43.4689 356.61 42.7343C356.61 41.9998 356.319 41.2951 355.799 40.774C355.28 40.253 354.574 39.9579 353.837 39.9532Z" fill="white"/>
</g>
<defs>
<filter id="filter0_d_303_2754" x="0" y="0" width="593" height="492" filterUnits="userSpaceOnUse" color-interpolation-filters="sRGB">
<feFlood flood-opacity="0" result="BackgroundImageFix"/>
<feColorMatrix in="SourceAlpha" type="matrix" values="0 0 0 0 0 0 0 0 0 0 0 0 0 0 0 0 0 0 127 0" result="hardAlpha"/>
<feOffset dy="12"/>
<feGaussianBlur stdDeviation="15"/>
<feColorMatrix type="matrix" values="0 0 0 0 0.0313726 0 0 0 0 0.0392157 0 0 0 0 0.0392157 0 0 0 0.08 0"/>
<feBlend mode="normal" in2="BackgroundImageFix" result="effect1_dropShadow_303_2754"/>
<feBlend mode="normal" in="SourceGraphic" in2="effect1_dropShadow_303_2754" result="shape"/>
</filter>
<clipPath id="clip0_303_2754">
<rect width="533" height="432" fill="white" transform="translate(30 18)"/>
</clipPath>
</defs>
</svg>
