<svg width="248" height="282" viewBox="0 0 308 342" fill="none" xmlns="http://www.w3.org/2000/svg">
<g clip-path="url(#clip0_1007_115)" filter="url(#filter0_d_1007_115)">
<path d="M189.441 226.787C189.997 227.085 190.632 227.204 191.258 227.129C191.885 227.053 192.473 226.787 192.944 226.365C193.414 225.943 193.743 225.387 193.888 224.772C194.032 224.156 193.984 223.511 193.75 222.924C193.812 222.611 193.857 222.387 193.92 222.074C195.124 220.948 196.636 220.208 198.263 219.949C199.89 219.69 201.556 219.923 203.05 220.619C204.543 221.315 205.795 222.442 206.645 223.856C207.495 225.269 207.904 226.905 207.821 228.553C207.439 237.847 207.898 247.877 201.732 255.37C229.873 232.33 242.705 193.079 234.111 157.777C229.894 151.89 227.927 144.069 229.818 136.981C232.191 139.294 236.817 138.673 236.11 134.67C235.731 133.087 235.338 131.51 234.959 129.928C251.168 123.591 255.4 147.738 236.2 157.569C237.757 164.281 238.61 171.137 238.745 178.026C240.912 171.814 244.521 166.207 249.273 161.664C253.875 157.514 259.959 155.073 265.62 152.288C272.507 148.89 280.152 155.626 277.44 162.817C272.855 162.229 269.61 167.72 273.771 170.671C266.463 182.968 252.45 190.784 238.213 190.908C236.774 204.939 232.365 218.502 225.283 230.692C234.378 216.836 251.979 220.825 265.888 220.235C266.811 220.118 267.748 220.273 268.585 220.681C269.421 221.089 270.121 221.731 270.599 222.531C271.077 223.33 271.312 224.252 271.277 225.183C271.241 226.115 270.935 227.015 270.397 227.776C268.567 227.668 266.731 227.743 264.916 227.999C264.063 228.126 263.269 228.514 262.644 229.11C262.019 229.707 261.594 230.482 261.426 231.33C261.258 232.179 261.356 233.058 261.707 233.848C262.058 234.638 262.644 235.3 263.385 235.744C251.183 246.951 232.275 249.36 217.436 242.209C213.048 247.746 208.098 252.811 202.666 257.323L180.604 246.786C180.642 246.503 180.691 246.215 180.737 245.936C182.718 247.04 184.826 247.896 187.015 248.487C184.661 239.498 182.039 234.232 189.44 226.787H189.441Z" fill="#F2F2F2"/>
<path d="M150.457 205.517C150.054 206.003 149.511 206.354 148.902 206.521C148.294 206.687 147.648 206.663 147.054 206.45C146.46 206.237 145.945 205.847 145.58 205.331C145.215 204.816 145.016 204.2 145.012 203.568C144.836 203.302 144.71 203.111 144.534 202.846C142.995 202.258 141.316 202.144 139.712 202.518C138.108 202.893 136.652 203.739 135.531 204.948C134.41 206.157 133.675 207.674 133.42 209.304C133.165 210.935 133.402 212.604 134.1 214.099C137.952 222.563 141.304 232.024 149.835 236.634C115.098 225.931 88.4373 194.429 83.1059 158.487C84.7949 151.441 83.6722 143.454 79.2525 137.605C77.9254 140.644 73.4072 141.817 72.5547 137.842C72.3103 136.233 72.08 134.624 71.8355 133.016C54.4384 133.272 59.61 157.235 81.093 159.084C82.1773 165.888 83.9685 172.561 86.4376 178.992C82.0915 174.058 76.6384 170.228 70.5268 167.818C64.7025 165.712 58.1487 165.751 51.8579 165.311C44.1998 164.767 39.6562 173.895 44.875 179.53C48.9001 177.253 53.9721 181.112 51.2296 185.417C62.6272 194.044 78.5472 195.986 91.7793 190.721C98.3953 203.171 107.584 214.066 118.733 222.679C105.093 213.284 90.2942 223.63 77.1896 228.34C76.291 228.581 75.4818 229.079 74.8607 229.773C74.2395 230.466 73.8333 231.326 73.6916 232.247C73.5499 233.168 73.6788 234.111 74.0626 234.96C74.4464 235.809 75.0684 236.528 75.8529 237.028C77.5071 236.237 79.2357 235.613 81.0131 235.164C81.8515 234.958 82.7327 235.018 83.536 235.334C84.3393 235.65 85.0253 236.208 85.5 236.93C85.9747 237.652 86.2149 238.504 86.1876 239.368C86.1602 240.232 85.8668 241.067 85.3475 241.758C100.868 247.526 119.285 242.611 130.336 230.38C136.484 233.85 142.975 236.67 149.705 238.795L166.17 220.7C166.029 220.451 165.875 220.204 165.727 219.962C164.308 221.733 162.678 223.323 160.873 224.697C159.669 215.483 160.115 209.615 150.458 205.517L150.457 205.517Z" fill="#F2F2F2"/>
<path d="M154.694 129.054C155.322 128.99 155.915 128.735 156.394 128.322C156.872 127.91 157.212 127.36 157.367 126.747C157.523 126.134 157.487 125.489 157.264 124.897C157.042 124.305 156.643 123.797 156.122 123.44C156 123.146 155.912 122.934 155.791 122.64C156.163 121.032 157.007 119.573 158.213 118.449C159.419 117.325 160.933 116.588 162.56 116.332C164.187 116.075 165.853 116.311 167.345 117.01C168.837 117.709 170.087 118.838 170.935 120.253C175.791 128.181 181.752 136.251 180.804 145.916C191.344 111.069 180.154 71.3176 153.374 46.8127C146.597 44.2811 140.612 38.8873 138.238 31.9473C141.495 32.5414 144.989 29.4415 142.175 26.5131C140.979 25.4116 139.776 24.3215 138.581 23.2199C148.51 8.90482 165.46 26.5862 154.992 45.4731C160.02 50.1745 164.544 55.3897 168.489 61.0336C166.832 54.666 166.707 47.995 168.124 41.5695C169.634 35.5532 173.327 30.1281 176.476 24.6542C180.303 17.986 190.398 19.3076 192.148 26.7921C188.015 28.8654 188.377 35.2361 193.473 35.3614C194.249 49.6518 186.966 63.9678 175.217 72.024C181.83 84.4762 185.717 98.1976 186.621 112.274C186.461 95.6904 203.292 89.17 214.511 80.9096C215.212 80.2973 216.076 79.9027 216.997 79.7739C217.919 79.6451 218.857 79.7878 219.699 80.1845C220.541 80.5811 221.249 81.2147 221.738 82.0078C222.226 82.8009 222.474 83.7193 222.45 84.651C220.871 85.5839 219.389 86.6716 218.024 87.8982C217.386 88.4803 216.943 89.2459 216.756 90.0901C216.57 90.9343 216.648 91.8158 216.981 92.6136C217.313 93.4115 217.884 94.0867 218.615 94.5467C219.346 95.0067 220.201 95.229 221.063 95.1831C217.17 111.303 202.815 123.865 186.516 126.218C185.955 133.265 184.665 140.235 182.666 147.016L158.488 150.593C158.362 150.337 158.243 150.07 158.125 149.813C160.384 149.622 162.611 149.156 164.756 148.423C157.8 142.276 152.693 139.37 154.694 129.054L154.694 129.054Z" fill="#F2F2F2"/>
<path d="M179.012 121.284C168.004 121.284 162.034 119.936 159.949 117.059C158.109 114.521 159.342 111.172 160.771 107.294C161.797 104.507 162.961 101.348 162.961 98.2217C162.961 83.0152 170.656 75.3047 185.834 75.3047C193.385 75.3047 201.493 79.3238 207.523 86.056C213.005 92.1763 215.735 99.5012 215.015 106.152C214.424 111.607 211.89 115.194 207.04 117.442L206.756 117.574L206.676 117.271C206.257 115.706 205.548 114.233 204.586 112.93C204.493 114.975 203.978 116.979 203.074 118.816L203.023 118.921L202.911 118.953C197.421 120.52 190.906 120.944 185.844 121.138C183.38 121.235 181.102 121.283 179.012 121.284Z" fill="#2F2E41"/>
<path d="M182.011 142.471C181.59 141.229 180.878 140.105 179.936 139.193C178.994 138.281 177.848 137.608 176.594 137.228C175.34 136.849 174.014 136.775 172.725 137.012C171.437 137.249 170.223 137.79 169.186 138.591L132.98 160.279L121.65 132.582C122.607 131.176 123.095 129.501 123.044 127.8C122.992 126.098 122.404 124.456 121.364 123.11C120.324 121.764 118.885 120.782 117.254 120.306C115.622 119.83 113.882 119.884 112.283 120.459C110.684 121.035 109.308 122.104 108.353 123.512C107.397 124.919 106.911 126.594 106.964 128.296C107.018 129.998 107.607 131.639 108.649 132.984C109.691 134.329 111.131 135.309 112.763 135.783C113.461 143.77 117.342 179.468 130.842 178.171C142.19 177.08 170.371 158.276 179.124 151.756C180.524 150.714 181.559 149.253 182.077 147.585C182.596 145.916 182.573 144.126 182.011 142.471Z" fill="#FFB6B6"/>
<path d="M209.296 299.999H177.783L172.499 273.821L170.785 299.999H141.512C141.523 279.441 142.592 258.898 144.714 238.45L145.077 237.212L145.65 235.231L146.013 233.988L152.071 213.146L152.549 211.492H189.025C191.124 213.468 193.06 215.61 194.815 217.898C195.409 218.657 196.029 219.479 196.665 220.364C197.107 220.991 197.565 221.649 198.022 222.34C202.086 228.402 205.124 235.095 207.014 242.148V242.154C207.334 243.36 207.618 244.595 207.865 245.857V245.862C208.086 246.985 208.281 248.123 208.433 249.287C208.549 250.135 208.649 250.994 208.723 251.863C209.161 256.679 209.007 261.53 208.265 266.309L209.296 299.999Z" fill="#2F2E41"/>
<path d="M42.2168 60.6267C44.2633 59.8329 45.4756 58.0332 44.9245 56.6068C44.3734 55.1805 42.2676 54.6676 40.2211 55.4613C38.1746 56.255 36.9624 58.0547 37.5135 59.4811C38.0646 60.9075 40.1703 61.4204 42.2168 60.6267Z" fill="#E6E6E6"/>
<path d="M67.9839 57.3142C70.0304 56.5204 71.2427 54.7207 70.6916 53.2943C70.1405 51.868 68.0347 51.3551 65.9882 52.1488C63.9417 52.9425 62.7295 54.7422 63.2806 56.1686C63.8316 57.595 65.9374 58.1079 67.9839 57.3142Z" fill="#3F3D56"/>
<path d="M39.9824 82.6501C42.0289 81.8564 43.2412 80.0566 42.6901 78.6303C42.139 77.2039 40.0333 76.691 37.9868 77.4847C35.9403 78.2784 34.728 80.0782 35.2791 81.5046C35.8302 82.9309 37.9359 83.4438 39.9824 82.6501Z" fill="#FF6584"/>
<path d="M32.5277 92.3686C33.4665 92.146 33.9687 90.8693 33.6492 89.5171C33.3298 88.1649 32.3097 87.2492 31.3709 87.4719C30.432 87.6945 29.9299 88.9712 30.2493 90.3234C30.5687 91.6756 31.5888 92.5913 32.5277 92.3686Z" fill="#E6E6E6"/>
<path d="M32.3748 108.822C33.3137 108.599 33.8158 107.322 33.4964 105.97C33.1769 104.618 32.1569 103.702 31.218 103.925C30.2792 104.148 29.777 105.424 30.0965 106.777C30.4159 108.129 31.436 109.044 32.3748 108.822Z" fill="#3F3D56"/>
<path d="M54.9896 74.7514C55.9284 74.5288 56.4306 73.2521 56.1111 71.8999C55.7917 70.5477 54.7716 69.632 53.8328 69.8547C52.8939 70.0773 52.3918 71.354 52.7112 72.7062C53.0307 74.0584 54.0507 74.9741 54.9896 74.7514Z" fill="#E6E6E6"/>
<path d="M41.4188 71.4468C42.3576 71.2241 42.8598 69.9474 42.5403 68.5952C42.2209 67.243 41.2008 66.3273 40.262 66.55C39.3231 66.7726 38.821 68.0493 39.1404 69.4015C39.4599 70.7537 40.4799 71.6694 41.4188 71.4468Z" fill="#FF6584"/>
<path d="M55.8031 56.3061C56.7419 56.0835 57.2441 54.8068 56.9246 53.4546C56.6052 52.1024 55.5851 51.1867 54.6462 51.4094C53.7074 51.632 53.2052 52.9087 53.5247 54.2609C53.8441 55.6131 54.8642 56.5288 55.8031 56.3061Z" fill="#3F3D56"/>
<path d="M62.4925 170.146C63.482 168.981 62.9295 166.882 61.2585 165.456C59.5874 164.031 57.4306 163.82 56.4411 164.985C55.4516 166.15 56.0041 168.249 57.6751 169.674C59.3462 171.099 61.503 171.31 62.4925 170.146Z" fill="#E6E6E6"/>
<path d="M47.3172 149.021C48.3067 147.856 47.7542 145.757 46.0832 144.331C44.4121 142.906 42.2553 142.695 41.2658 143.86C40.2763 145.025 40.8288 147.124 42.4998 148.549C44.1709 149.974 46.3277 150.185 47.3172 149.021Z" fill="#3F3D56"/>
<path d="M82.888 161.63C83.8775 160.465 83.325 158.366 81.654 156.941C79.9829 155.516 77.8261 155.305 76.8366 156.469C75.8471 157.634 76.3996 159.733 78.0706 161.159C79.7417 162.584 81.8985 162.795 82.888 161.63Z" fill="#FF6584"/>
<path d="M93.0203 161.858C94.055 160.933 94.373 159.598 93.7306 158.877C93.0881 158.156 91.7285 158.321 90.6938 159.246C89.6591 160.172 89.3411 161.507 89.9836 162.228C90.626 162.949 91.9856 162.783 93.0203 161.858Z" fill="#E6E6E6"/>
<path d="M107.531 154.163C108.565 153.237 108.883 151.903 108.241 151.182C107.598 150.46 106.239 150.626 105.204 151.551C104.169 152.476 103.851 153.811 104.494 154.532C105.136 155.254 106.496 155.088 107.531 154.163Z" fill="#3F3D56"/>
<path d="M66.8602 150.467C67.8949 149.542 68.2129 148.207 67.5704 147.486C66.928 146.765 65.5684 146.931 64.5337 147.856C63.499 148.781 63.181 150.116 63.8234 150.837C64.4659 151.558 65.8255 151.393 66.8602 150.467Z" fill="#E6E6E6"/>
<path d="M70.4237 163.991C71.4584 163.066 71.7763 161.731 71.1339 161.01C70.4914 160.289 69.1318 160.454 68.0971 161.379C67.0624 162.305 66.7444 163.639 67.3869 164.36C68.0293 165.082 69.3889 164.916 70.4237 163.991Z" fill="#FF6584"/>
<path d="M50.2811 158.53C51.3158 157.605 51.6338 156.27 50.9913 155.549C50.3489 154.828 48.9893 154.993 47.9546 155.918C46.9199 156.844 46.6019 158.178 47.2443 158.9C47.8868 159.621 49.2464 159.455 50.2811 158.53Z" fill="#3F3D56"/>
<path d="M164.442 34.657C165.812 33.982 166.137 31.8354 165.169 29.8624C164.2 27.8894 162.305 26.8372 160.935 27.5122C159.565 28.1872 159.24 30.3338 160.208 32.3068C161.177 34.2798 163.072 35.332 164.442 34.657Z" fill="#E6E6E6"/>
<path d="M169.992 60.0867C171.362 59.4117 171.688 57.2651 170.719 55.2921C169.751 53.3191 167.855 52.2669 166.485 52.9419C165.115 53.6169 164.79 55.7635 165.758 57.7365C166.727 59.7095 168.622 60.7617 169.992 60.0867Z" fill="#3F3D56"/>
<path d="M142.347 34.3601C143.717 33.6851 144.043 31.5385 143.074 29.5655C142.106 27.5925 140.21 26.5403 138.84 27.2153C137.47 27.8903 137.145 30.0369 138.113 32.0099C139.082 33.9829 140.977 35.0351 142.347 34.3601Z" fill="#FF6584"/>
<path d="M130.734 26.2887C132.05 25.8514 132.871 24.7531 132.567 23.8356C132.264 22.918 130.951 22.5287 129.634 22.966C128.318 23.4033 127.497 24.5016 127.8 25.4192C128.104 26.3367 129.417 26.726 130.734 26.2887Z" fill="#E6E6E6"/>
<path d="M114.366 27.5778C115.682 27.1405 116.503 26.0422 116.2 25.1246C115.896 24.2071 114.583 23.8178 113.266 24.2551C111.95 24.6924 111.129 25.7907 111.433 26.7082C111.736 27.6258 113.05 28.0151 114.366 27.5778Z" fill="#3F3D56"/>
<path d="M150.221 47.1637C151.537 46.7264 152.358 45.6281 152.055 44.7106C151.751 43.793 150.438 43.4037 149.121 43.841C147.805 44.2783 146.984 45.3766 147.288 46.2942C147.591 47.2117 148.905 47.601 150.221 47.1637Z" fill="#E6E6E6"/>
<path d="M152.315 33.3278C153.631 32.8905 154.452 31.7921 154.149 30.8746C153.845 29.9571 152.532 29.5678 151.215 30.0051C149.899 30.4424 149.078 31.5407 149.381 32.4582C149.685 33.3758 150.998 33.7651 152.315 33.3278Z" fill="#FF6584"/>
<path d="M168.635 46.359C169.951 45.9217 170.772 44.8234 170.468 43.9059C170.165 42.9883 168.851 42.599 167.535 43.0363C166.219 43.4736 165.398 44.5719 165.701 45.4895C166.005 46.407 167.318 46.7963 168.635 46.359Z" fill="#3F3D56"/>
<path d="M173.688 125.521L191.048 124.625L199.112 137.391C199.112 137.391 214.283 139.932 213.232 157.844C212.18 175.756 194.772 191.474 194.772 191.474L195.517 200.802L194.224 204.502L194.39 206.579L196.153 208.78L196.334 211.055L194.772 214.655L196.897 218.102L152.237 213.767L150.604 207.806L152.986 204.605L151.655 200.43L153.656 196.415L154.699 183.66C154.699 183.66 143.286 166.481 156.388 153.543L161.646 144.587L167.529 137.395L173.688 125.521Z" fill="#87C346"/>
<path d="M182.318 121.916C192.478 121.916 200.714 113.664 200.714 103.485C200.714 93.3064 192.478 85.0547 182.318 85.0547C172.159 85.0547 163.923 93.3064 163.923 103.485C163.923 113.664 172.159 121.916 182.318 121.916Z" fill="#FFB6B6"/>
<path d="M179.855 102.369C178.27 102.369 176.686 102.324 175.103 102.235L174.82 102.219L174.857 101.938C175.09 100.178 174.959 98.3898 174.471 96.6837C173.643 98.6263 172.411 100.37 170.857 101.798L170.769 101.878L170.651 101.865C166.351 101.394 162.09 100.615 157.9 99.5352L157.739 99.494L157.707 99.3315C157.394 97.7919 157.232 96.2254 157.224 94.6543C157.224 89.7464 159 85.6157 162.225 83.0229C165.735 80.2008 170.766 79.3328 176.398 80.5776H194.404C196.384 80.5798 198.282 81.3687 199.682 82.7712C201.081 84.1737 201.869 86.0753 201.871 88.0587V99.4835L201.675 99.5349C194.552 101.41 187.22 102.363 179.855 102.369Z" fill="#2F2E41"/>
<path d="M54.3353 81.8651C53.5292 82.1605 52.873 82.7642 52.5106 83.5437C52.1482 84.3233 52.1092 85.215 52.4022 86.0233L71.8277 139.427C72.1225 140.235 72.725 140.892 73.5031 141.255C74.2811 141.619 75.1711 141.658 75.9779 141.364L151.372 113.835C152.178 113.539 152.834 112.936 153.196 112.156C153.559 111.377 153.598 110.485 153.305 109.677L133.879 56.2726C133.584 55.4649 132.982 54.8074 132.204 54.4443C131.426 54.0812 130.536 54.0421 129.729 54.3357L54.3353 81.8651Z" fill="#CCCCCC"/>
<path d="M123.311 121.135L77.1627 137.985C76.2944 138.301 75.3365 138.259 74.4991 137.868C73.6617 137.478 73.0133 136.77 72.696 135.901L55.0772 87.4638C54.7619 86.5939 54.8038 85.6341 55.1939 84.7951C55.5839 83.9561 56.2902 83.3063 57.1578 82.9884L128.291 57.0146C129.159 56.6987 130.117 56.7407 130.955 57.1315C131.792 57.5223 132.441 58.23 132.758 59.0993L141.271 82.5035C143.993 90.013 143.631 98.2975 140.264 105.54C136.897 112.782 130.8 118.39 123.311 121.135Z" fill="white"/>
<path d="M90.1049 86.1426L79.1384 90.1469C79.0009 90.1971 78.8548 90.2197 78.7086 90.2134C78.5623 90.2071 78.4188 90.1719 78.2861 90.11C78.1534 90.0481 78.0342 89.9606 77.9352 89.8525C77.8363 89.7444 77.7596 89.6179 77.7095 89.4801C77.6593 89.3423 77.6368 89.196 77.6431 89.0494C77.6495 88.9029 77.6845 88.7591 77.7463 88.6261C77.8081 88.4932 77.8955 88.3738 78.0033 88.2746C78.1112 88.1755 78.2375 88.0986 78.3751 88.0484L89.3416 84.0441C89.6193 83.9427 89.9259 83.9559 90.1939 84.081C90.4618 84.2061 90.6693 84.4327 90.7705 84.7109C90.8717 84.9892 90.8584 85.2964 90.7336 85.5649C90.6088 85.8334 90.3826 86.0412 90.1049 86.1426Z" fill="#87C346"/>
<path d="M116.25 81.4629L80.6997 94.4437C80.5622 94.4941 80.416 94.5168 80.2697 94.5106C80.1233 94.5044 79.9796 94.4694 79.8468 94.4075C79.7139 94.3456 79.5946 94.2581 79.4955 94.1499C79.3965 94.0418 79.3197 93.9152 79.2695 93.7773C79.2194 93.6394 79.1968 93.4929 79.2032 93.3463C79.2096 93.1996 79.2447 93.0557 79.3067 92.9227C79.3686 92.7897 79.4561 92.6702 79.5642 92.5711C79.6722 92.472 79.7987 92.3952 79.9364 92.3451L115.486 79.3644C115.624 79.3142 115.77 79.2916 115.916 79.2979C116.062 79.3043 116.206 79.3394 116.338 79.4013C116.471 79.4632 116.59 79.5507 116.689 79.6588C116.788 79.7669 116.865 79.8935 116.915 80.0312C116.965 80.169 116.988 80.3154 116.981 80.4619C116.975 80.6084 116.94 80.7522 116.878 80.8852C116.816 81.0181 116.729 81.1376 116.621 81.2367C116.513 81.3358 116.387 81.4127 116.25 81.4629Z" fill="#87C346"/>
<path d="M118.041 86.3843L82.4914 99.3651C82.3539 99.4153 82.2078 99.4379 82.0616 99.4315C81.9154 99.4252 81.7718 99.3901 81.6391 99.3281C81.5064 99.2662 81.3872 99.1787 81.2883 99.0706C81.1893 98.9625 81.1126 98.836 81.0625 98.6982C81.0124 98.5604 80.9898 98.4141 80.9962 98.2675C81.0025 98.121 81.0375 97.9772 81.0994 97.8443C81.1612 97.7113 81.2485 97.5919 81.3564 97.4927C81.4643 97.3936 81.5906 97.3167 81.7281 97.2665L117.278 84.2858C117.556 84.1848 117.862 84.1984 118.13 84.3235C118.397 84.4486 118.604 84.6751 118.706 84.9531C118.807 85.2312 118.794 85.5381 118.669 85.8065C118.544 86.0748 118.319 86.2826 118.041 86.3843Z" fill="#87C346"/>
<path d="M119.833 91.3145L84.2832 104.295C84.1457 104.346 83.9995 104.368 83.8532 104.362C83.7068 104.356 83.5631 104.321 83.4303 104.259C83.2974 104.197 83.1781 104.11 83.079 104.002C82.98 103.893 82.9032 103.767 82.853 103.629C82.8029 103.491 82.7803 103.344 82.7867 103.198C82.7931 103.051 82.8282 102.907 82.8902 102.774C82.9521 102.641 83.0396 102.522 83.1477 102.423C83.2557 102.324 83.3822 102.247 83.5199 102.197L119.07 89.216C119.207 89.1657 119.353 89.1431 119.5 89.1495C119.646 89.1558 119.789 89.191 119.922 89.2529C120.055 89.3148 120.174 89.4023 120.273 89.5104C120.372 89.6185 120.448 89.745 120.499 89.8828C120.549 90.0206 120.571 90.1669 120.565 90.3135C120.559 90.46 120.524 90.6038 120.462 90.7368C120.4 90.8697 120.313 90.9891 120.205 91.0883C120.097 91.1874 119.971 91.2643 119.833 91.3145Z" fill="#87C346"/>
<path d="M121.625 96.2364L86.0749 109.217C85.7972 109.319 85.4906 109.305 85.2226 109.18C84.9546 109.055 84.7472 108.829 84.646 108.55C84.5448 108.272 84.558 107.965 84.6829 107.696C84.8077 107.428 85.0338 107.22 85.3116 107.119L120.861 94.1378C120.999 94.0876 121.145 94.065 121.291 94.0714C121.437 94.0777 121.581 94.1128 121.714 94.1747C121.846 94.2367 121.966 94.3242 122.065 94.4323C122.163 94.5403 122.24 94.6669 122.29 94.8047C122.34 94.9425 122.363 95.0888 122.357 95.2353C122.35 95.3819 122.315 95.5257 122.253 95.6586C122.192 95.7916 122.104 95.911 121.996 96.0101C121.889 96.1093 121.762 96.1861 121.625 96.2364Z" fill="#87C346"/>
<path d="M234.425 109.921L214.961 156.587C214.13 158.562 212.558 160.13 210.584 160.954C208.61 161.777 206.391 161.79 204.407 160.989C203.381 160.575 202.45 159.956 201.67 159.169C200.891 158.383 200.279 157.445 199.873 156.414C199.467 155.383 199.275 154.28 199.308 153.172C199.341 152.064 199.599 150.974 200.067 149.969L221.768 102.115L233.731 72.4805C232.697 71.4475 232.006 70.1207 231.751 68.6803C231.496 67.2399 231.69 65.7559 232.306 64.4297C232.923 63.1036 233.931 61.9996 235.196 61.2679C236.46 60.5361 237.918 60.212 239.373 60.3397C240.827 60.4673 242.207 61.0404 243.325 61.9812C244.443 62.922 245.245 64.1848 245.622 65.5981C245.999 67.0114 245.932 68.5067 245.431 69.8807C244.93 71.2547 244.019 72.441 242.822 73.2782L234.425 109.921Z" fill="#FFB6B6"/>
</g>
<defs>
<filter id="filter0_d_1007_115" x="0" y="0" width="308" height="342" filterUnits="userSpaceOnUse" color-interpolation-filters="sRGB">
<feFlood flood-opacity="0" result="BackgroundImageFix"/>
<feColorMatrix in="SourceAlpha" type="matrix" values="0 0 0 0 0 0 0 0 0 0 0 0 0 0 0 0 0 0 127 0" result="hardAlpha"/>
<feOffset dy="12"/>
<feGaussianBlur stdDeviation="15"/>
<feColorMatrix type="matrix" values="0 0 0 0 0.0313726 0 0 0 0 0.0392157 0 0 0 0 0.0392157 0 0 0 0.08 0"/>
<feBlend mode="normal" in2="BackgroundImageFix" result="effect1_dropShadow_1007_115"/>
<feBlend mode="normal" in="SourceGraphic" in2="effect1_dropShadow_1007_115" result="shape"/>
</filter>
<clipPath id="clip0_1007_115">
<rect width="248" height="282" fill="white" transform="translate(30 18)"/>
</clipPath>
</defs>
</svg>
