<svg width="813" height="421" viewBox="0 0 813 421" fill="none" xmlns="http://www.w3.org/2000/svg">
<g clip-path="url(#clip0_319_2348)">
<path d="M694.276 404.473C704.047 404.473 712.066 402.454 718.334 398.416C724.602 394.195 729.488 388.505 732.99 381.347C736.677 374.006 739.166 365.472 740.457 355.744C741.932 345.833 742.669 335.28 742.669 324.085C742.669 313.623 741.932 303.437 740.457 293.526C739.166 283.615 736.585 274.805 732.714 267.097C729.027 259.389 723.773 253.24 716.952 248.652C710.131 243.88 701.189 241.494 690.128 241.494C679.989 241.494 671.877 243.696 665.793 248.101C659.71 252.506 655.009 258.471 651.69 265.996C648.556 273.337 646.436 281.872 645.33 291.599C644.408 301.143 643.948 311.237 643.948 321.882C643.948 333.445 644.685 344.273 646.16 354.368C647.635 364.462 650.216 373.272 653.903 380.797C657.774 388.138 662.936 393.919 669.388 398.141C675.841 402.362 684.137 404.473 694.276 404.473ZM789.956 321.882C789.956 337.483 787.467 351.248 782.489 363.177C777.512 375.107 770.599 385.202 761.75 393.461C753.085 401.536 742.761 407.685 730.778 411.906C718.98 416.127 706.075 418.238 692.064 418.238C678.79 418.238 666.347 416.494 654.732 413.007C643.118 409.336 632.978 403.739 624.314 396.214C615.649 388.505 608.828 378.686 603.851 366.756C598.873 354.827 596.384 340.603 596.384 324.085C596.384 307.383 598.781 293.067 603.574 281.137C608.367 269.024 615.004 259.113 623.484 251.405C632.149 243.513 642.288 237.731 653.903 234.061C665.701 230.39 678.422 228.555 692.064 228.555C705.522 228.555 718.15 230.574 729.949 234.611C741.932 238.466 752.348 244.339 761.197 252.231C770.046 259.939 777.051 269.666 782.213 281.413C787.375 292.975 789.956 306.465 789.956 321.882Z" fill="#87C346"/>
<path d="M240.702 140.811C221.691 140.811 206.775 147.491 195.954 160.852C185.132 173.922 176.358 195.27 169.631 224.895H138.921C138.921 180.747 144.185 146.184 154.714 121.205C168.168 124.981 178.551 132.533 185.863 143.86C189.958 139.504 194.93 135.873 200.779 132.969C206.629 129.774 212.771 127.305 219.205 125.562C225.64 123.529 232.074 122.077 238.509 121.205C244.943 120.334 250.939 119.898 256.496 119.898C268.487 119.898 280.333 121.351 292.032 124.255C303.731 126.869 314.114 130.935 323.18 136.454C332.247 141.972 339.559 149.088 345.116 157.802C350.673 166.225 353.452 176.245 353.452 187.863C353.452 198.9 351.989 208.34 349.064 216.182C346.14 224.024 341.899 230.704 336.342 236.223C331.077 241.741 324.643 246.243 317.038 249.729C309.434 253.214 300.952 255.973 291.593 258.007V259.314C300.66 259.894 309.726 261.492 318.793 264.106C327.86 266.72 335.903 270.932 342.922 276.74C350.234 282.259 356.084 289.52 360.471 298.524C364.858 307.528 367.052 318.71 367.052 332.071C367.052 345.141 363.981 357.049 357.839 367.796C351.697 378.543 342.922 387.837 331.516 395.679C320.109 403.231 306.217 409.185 289.838 413.542C273.46 417.898 255.034 420.077 234.56 420.077C217.304 420.077 202.388 418.334 189.812 414.849C177.235 411.363 166.706 406.716 158.224 400.907C150.035 394.808 143.893 387.837 139.798 379.995C135.704 372.153 133.656 363.875 133.656 355.161C133.656 348.191 135.704 342.237 139.798 337.299C144.185 332.361 151.059 329.892 160.418 329.892C166.56 329.892 171.824 331.78 176.211 335.556C180.891 339.042 183.231 344.996 183.231 353.419C183.231 357.485 182.061 361.261 179.721 364.746C177.381 367.941 174.749 370.265 171.824 371.717C172.409 374.041 174.164 376.8 177.089 379.995C180.014 382.899 183.962 385.804 188.934 388.708C193.906 391.322 199.609 393.646 206.044 395.679C212.478 397.422 219.498 398.293 227.102 398.293C236.169 398.293 244.797 396.986 252.986 394.372C261.176 391.758 268.341 387.692 274.483 382.173C280.625 376.655 285.451 369.829 288.961 361.697C292.47 353.564 294.225 343.834 294.225 332.507C294.225 311.594 289.838 296.636 281.064 287.632C272.582 278.338 257.812 273.691 236.754 273.691H217.45C215.111 273.691 213.063 272.674 211.308 270.641C209.554 268.317 208.676 265.558 208.676 262.363C208.676 258.587 209.554 255.538 211.308 253.214C213.063 250.891 215.111 249.729 217.45 249.729H236.754C247.283 249.729 255.765 248.422 262.199 245.808C268.634 243.194 273.752 239.418 277.554 234.48C281.356 229.543 283.842 223.588 285.012 216.618C286.475 209.647 287.206 201.805 287.206 193.091C287.206 185.83 286.328 179.15 284.574 173.05C282.819 166.661 280.04 161.142 276.238 156.495C272.436 151.557 267.61 147.781 261.76 145.167C255.911 142.263 248.892 140.811 240.702 140.811Z" fill="#87C346"/>
<path d="M375.783 408.708H366.117L361.518 371.461H375.785L375.783 408.708Z" fill="#FFB6B6"/>
<path d="M375.525 405.557L365.204 401.363L364.909 401.242L359.21 405.557C355.992 405.558 352.907 406.835 350.632 409.107C348.357 411.38 347.078 414.462 347.078 417.677V418.07H378.246V405.557H375.525Z" fill="#2F2E41"/>
<path d="M496.829 334.433L494.648 343.841L457.285 339.917L460.503 326.031L496.829 334.433Z" fill="#FFB6B6"/>
<path d="M494.309 331.312L493.748 333.716L493.691 333.963L487.291 343.056L487.096 343.327L490.015 349.845C489.655 351.395 489.605 353.001 489.867 354.571C490.129 356.141 490.699 357.644 491.542 358.994C492.386 360.344 493.488 361.515 494.785 362.439C496.082 363.363 497.549 364.023 499.101 364.381L499.481 364.468L506.514 334.14L494.309 331.312Z" fill="#2F2E41"/>
<path d="M369.227 208.516L422.531 210.379L422.902 209.84C422.902 209.84 427.449 220.438 427.449 229.522C427.449 232.542 425.346 252.296 426.415 256.033C426.548 256.498 425.634 257.637 425.934 259.802C426.128 261.206 427.202 260.126 427.449 262.073C427.626 263.47 425.736 264.241 425.934 265.858C426.15 267.623 428.75 273.344 428.984 275.308C431.476 296.221 427.42 301.655 427.42 301.655C427.42 301.655 473.009 320.738 475.829 321.317C480.561 322.29 483.756 330.885 481.133 332.672C479.885 333.524 475.729 349.378 475.729 349.378C474.842 349.539 472.068 348.149 473.835 344.862C474.161 344.257 472.22 345.796 471.898 345.072C471.555 344.302 466.698 347.682 466.305 346.827C462.778 339.148 418.648 328.508 413.517 323.044C405.934 314.971 401.133 304.69 399.812 293.699L395.416 253.364L391.382 271.647L388.044 274.942L388.959 282.624L388.801 290.082L380.466 321.118C380.466 321.118 379.216 379.08 381.223 380.921C382.311 381.918 386.926 394.197 378.192 395.304L362.325 394.081C362.325 394.081 360.187 389.581 361.256 387.979C362.325 386.377 362.261 386.814 360.957 384.193C359.653 381.572 360.187 377.13 360.187 377.13C358.109 356.257 357.289 335.277 357.732 314.305C358.527 279.86 363.347 240.289 363.347 239.482C363.388 238.658 363.236 237.836 362.903 237.08V234.906L364.951 227.202L369.227 208.516Z" fill="#2F2E41"/>
<path d="M427.306 220.972C413.847 223.298 404.822 222.412 399.268 214.16C392.022 204.943 378.844 215.826 367.726 219.872L366.408 218.449L364.165 216.034L366.226 213.703L364.165 209.206L365.885 203.657L368.082 203.256L367.491 198.48L366.567 195.686L369.28 192.711L371.583 185.285L369.924 169.744C367.653 148.442 372.053 126.96 382.518 108.261L388.816 102.614L391.43 100.267L394.939 93.7266L398.644 94.1581L408.678 95.3162L409.019 96.1338L411.481 102.069L420.428 111.669C421.694 113.027 422.655 114.638 423.249 116.396C423.843 118.154 424.055 120.018 423.871 121.864L423.614 124.453L423.424 126.315L422.53 135.278L418.885 171.894L418.612 173.839L415.68 194.891C420.446 199.494 420.736 198.49 422.76 206.59C422.987 207.49 425.624 209.496 425.791 210.375C426.026 211.616 427.306 220.972 427.306 220.972Z" fill="#3F3D56"/>
<path d="M399.979 89.8551C409.604 89.8551 417.406 82.0612 417.406 72.4471C417.406 62.8329 409.604 55.0391 399.979 55.0391C390.355 55.0391 382.553 62.8329 382.553 72.4471C382.553 82.0612 390.355 89.8551 399.979 89.8551Z" fill="#FFB6B6"/>
<path d="M418.211 59.3468C417.061 58.1046 415.582 57.2129 413.945 56.7744C412.309 56.3358 410.582 56.3684 408.963 56.8684C408.253 54.8403 407 53.0454 405.341 51.6794C403.681 50.3133 401.677 49.4284 399.549 49.1209C397.42 48.8134 395.248 49.0952 393.269 49.9355C391.289 50.7759 389.579 52.1426 388.323 53.8869C387.749 53.6293 387.118 53.5242 386.491 53.5818C385.864 53.6393 385.263 53.8575 384.746 54.2153C383.718 54.9452 382.89 55.9209 382.338 57.0531C380.913 59.757 380.249 62.7961 380.416 65.8471C380.584 68.898 381.576 71.8466 383.287 74.379C382.606 73.0034 384.523 75.3725 386.392 74.7518C387.997 74.3315 394.591 70.1078 396.237 70.3213C397.882 70.5349 398.416 69.2093 400.026 68.8074C401.602 68.3036 405.627 74.8144 406.434 79.1225C406.587 79.9389 406.958 80.9533 407.789 80.9719C408.813 80.9948 409.119 79.5302 409.983 78.9802C410.39 78.7734 410.861 78.7325 411.298 78.8662C411.734 78.9998 412.102 79.2975 412.323 79.6966C412.525 80.1068 412.626 80.5591 412.617 81.0161C412.609 81.473 412.491 81.9213 412.274 82.3236C411.833 83.1233 411.265 83.8467 410.593 84.4656L411.04 84.711C411.481 85.0261 412.017 85.1783 412.557 85.1417C413.098 85.105 413.609 84.8817 414.002 84.5101C415.667 85.2601 420.194 81.03 419.593 78.4707C420.857 75.3336 421.548 71.9957 421.633 68.6151C421.703 65.2052 420.481 61.8948 418.211 59.3468Z" fill="#2F2E41"/>
<path d="M283.903 118.006C284.548 118.611 285.318 119.068 286.159 119.344C286.999 119.62 287.89 119.708 288.769 119.603C289.648 119.498 290.493 119.202 291.244 118.735C291.996 118.268 292.636 117.643 293.119 116.902L330.369 125.807L326.65 115.276L291.022 108.247C289.723 107.519 288.201 107.291 286.746 107.608C285.29 107.925 284.001 108.765 283.124 109.968C282.246 111.171 281.841 112.653 281.984 114.135C282.128 115.616 282.811 116.993 283.903 118.006Z" fill="#FFB8B8"/>
<path d="M395.192 111.533L392.208 109.978L378.597 109.765L378.098 109.76L378.071 109.762L367.635 109.602L317.242 108.814L315.216 110.581L312.1 108.733L308.569 106.945L305.328 108.627L302.556 108.584L302.134 110.442L302.13 110.448L302.118 110.502L300.241 118.606L300.237 118.613L300.261 120.525L303.521 124.034L305.249 125.358L308.838 126.943L311.322 123.987L314.236 127.01L326.181 129.207C346.151 134.703 364.538 137.348 378.649 132.268L380.423 132.185L394.43 131.519C396.345 131.431 398.191 130.777 399.734 129.642C401.278 128.506 402.45 126.939 403.103 125.139L403.107 125.132C403.55 123.91 403.739 122.61 403.664 121.312C403.602 120.118 403.314 118.948 402.816 117.862C401.922 115.885 400.395 114.263 398.475 113.251L395.192 111.533Z" fill="#3F3D56"/>
<path d="M602.968 397.33C603.641 397.354 604.306 397.171 604.871 396.806C605.437 396.441 605.877 395.91 606.131 395.287C606.384 394.664 606.44 393.978 606.291 393.322C606.141 392.666 605.794 392.071 605.295 391.619C605.209 391.291 605.147 391.056 605.061 390.728C605.689 389.088 606.794 387.672 608.233 386.663C609.671 385.654 611.379 385.097 613.137 385.064C614.894 385.031 616.622 385.522 618.098 386.476C619.574 387.43 620.731 388.803 621.421 390.418C625.401 399.484 630.53 408.859 628.119 418.91C644.337 383.71 638.293 340.175 613.546 310.44C606.749 306.784 601.206 300.226 599.706 292.564C603.063 293.664 607.209 290.906 604.66 287.409C603.556 286.073 602.442 284.749 601.339 283.413C613.921 269.769 629.269 290.879 615.452 309.264C620.083 314.952 624.107 321.109 627.457 327.634C626.631 320.68 627.47 313.629 629.905 307.062C632.377 300.94 637.071 295.759 641.198 290.447C646.215 283.975 656.696 286.839 657.457 294.985C652.785 296.568 652.24 303.337 657.61 304.211C656.351 319.389 646.566 333.419 632.97 340.2C638.149 354.291 640.262 369.322 639.168 384.292C641.413 366.787 660.158 362.366 673.223 355.293C674.053 354.749 675.024 354.459 676.017 354.458C677.01 354.456 677.982 354.743 678.814 355.284C679.646 355.825 680.303 356.596 680.704 357.503C681.105 358.411 681.233 359.415 681.072 360.394C679.267 361.147 677.541 362.078 675.92 363.172C675.161 363.693 674.581 364.435 674.26 365.298C673.94 366.161 673.894 367.101 674.13 367.991C674.366 368.88 674.871 369.675 675.577 370.267C676.283 370.858 677.154 371.217 678.072 371.294C671.609 387.721 654.602 398.872 637.027 398.977C635.408 406.324 633.029 413.484 629.928 420.34L603.844 420.588C603.747 420.3 603.66 420.002 603.573 419.713C605.989 419.841 608.412 419.674 610.787 419.215C604.327 411.72 599.35 407.913 602.967 397.33L602.968 397.33Z" fill="#F2F2F2"/>
<path d="M94.7633 397.47C94.0902 397.495 93.4258 397.312 92.8601 396.947C92.2945 396.581 91.8549 396.051 91.601 395.428C91.3471 394.805 91.2911 394.119 91.4406 393.462C91.5901 392.806 91.9379 392.212 92.4368 391.76C92.5228 391.432 92.5845 391.196 92.6704 390.868C92.0421 389.228 90.9378 387.813 89.499 386.804C88.0602 385.795 86.3526 385.238 84.5949 385.205C82.8373 385.171 81.1097 385.663 79.6337 386.617C78.1577 387.571 77.0005 388.943 76.3104 390.558C72.3304 399.624 67.202 409 69.6122 419.05C53.3946 383.851 59.439 340.315 84.1857 310.581C90.9825 306.924 96.5257 300.366 98.0255 292.704C94.6684 293.805 90.5223 291.046 93.0718 287.549C94.1752 286.214 95.2891 284.889 96.3924 283.554C83.8101 269.91 68.4623 291.019 82.2797 309.404C77.6481 315.093 73.6245 321.25 70.2746 327.775C71.1001 320.82 70.2611 313.77 67.8267 307.203C65.3543 301.08 60.6601 295.899 56.5335 290.588C51.5163 284.116 41.0358 286.98 40.2747 295.125C44.9469 296.709 45.4913 303.477 40.1213 304.352C41.3809 319.53 51.1657 333.56 64.7618 340.341C59.5827 354.431 57.4695 369.463 58.5631 384.433C56.3186 366.928 37.5732 362.507 24.5089 355.433C23.6783 354.89 22.7074 354.6 21.7145 354.598C20.7217 354.597 19.7499 354.884 18.9176 355.425C18.0854 355.966 17.4287 356.737 17.0277 357.644C16.6266 358.551 16.4986 359.556 16.6591 360.534C18.4644 361.288 20.1903 362.218 21.8113 363.313C22.5709 363.833 23.1506 364.576 23.471 365.438C23.7915 366.301 23.837 367.242 23.6013 368.131C23.3657 369.021 22.8603 369.816 22.1546 370.407C21.4489 370.999 20.5773 371.358 19.6594 371.435C26.122 387.861 43.1291 399.012 60.7044 399.117C62.3235 406.465 64.7025 413.625 67.8033 420.481L93.8879 420.729C93.9842 420.44 94.0712 420.142 94.1581 419.853C91.7423 419.982 89.3197 419.815 86.9445 419.355C93.4044 411.861 98.3813 408.053 94.7641 397.471L94.7633 397.47Z" fill="#F2F2F2"/>
<path d="M190.689 94.5414C190.487 96.9723 190.29 99.4032 190.1 101.834C189.954 104.681 189.556 107.51 188.91 110.287C188.763 111.058 188.431 111.781 187.943 112.396C187.076 113.381 188.68 119.145 187.491 119.697C186.284 120.272 184.987 120.636 183.656 120.775C183.601 120.37 183.527 119.964 183.444 119.569C183.435 119.522 183.426 119.486 183.417 119.44C183.04 117.642 182.344 115.927 181.361 114.375C181.593 116.214 181.388 118.082 180.762 119.826C180.661 120.112 180.541 120.397 180.412 120.683C175.185 119.909 170.659 116.383 167.092 116.419C164.925 109.16 163.398 101.726 162.529 94.2007C162.299 92.1934 162.17 89.9651 163.405 88.3721C164.502 86.9541 166.373 86.4384 168.125 86.0609C173.846 84.826 179.694 84.2666 185.546 84.3943L175.416 82.037C178.261 81.8767 181.113 82.1468 183.878 82.8381C186.597 83.6576 189.169 85.4532 190.219 88.0958C191.021 90.1124 190.855 92.3775 190.689 94.5414Z" fill="#2F2E41"/>
<path d="M133.635 400.62H123.884L119.245 363.047L133.637 363.048L133.635 400.62Z" fill="#FFB6B6"/>
<path d="M104.203 414.99C104.208 416.081 104.643 417.127 105.415 417.899C106.187 418.671 107.232 419.108 108.325 419.115H126.681L127.25 417.938L129.847 412.586L130.852 417.938L131.075 419.115H137.999L137.9 417.93L136.053 395.813L133.638 395.665L123.203 395.047L120.639 394.891V401.494C118.694 403.561 103.428 411.375 104.203 414.99Z" fill="#2F2E41"/>
<path d="M247.877 390.023L239.396 394.83L216.799 364.438L229.317 357.344L247.877 390.023Z" fill="#FFB6B6"/>
<path d="M229.378 417.025C229.917 417.975 230.812 418.673 231.866 418.965C232.92 419.257 234.047 419.119 234.999 418.581L235.964 418.038H235.972L250.965 409.532L250.487 402.294L254.79 407.367L257.964 405.563L260.807 403.949L258.293 400.277L247.602 384.641L245.426 385.711L236.038 390.314L233.746 391.442L237.002 397.181C236.335 399.948 226.921 414.258 229.378 417.025Z" fill="#2F2E41"/>
<path d="M182.028 216.187C193.45 216.597 191.696 243.628 195.261 267.14C198.442 288.116 207.747 305.83 204.635 306.583L235.435 363.921C223.391 375.096 209.259 382.506 191.596 383.551C172.429 365.957 167.173 325.468 162.772 283.572L157.968 320.365L164.373 378.753L136.037 385.598L116.437 384.199C99.8249 317.264 131.253 241.565 144.784 212.805L182.028 216.187Z" fill="#2F2E41"/>
<path d="M194.144 202.2L199.333 186.651L203.039 181.468L204.522 166.66C204.522 126.676 195.594 133.334 195.594 133.334L183.948 119.272L170.699 118.858L160.229 118.531L151.524 132.97C147.689 134.322 144.275 136.653 141.621 139.732C138.968 142.811 137.167 146.531 136.398 150.52L133.989 163.024L143 190.353L142.603 188.323C138.361 196.145 139.44 197.322 142.953 203.195L143.127 205.316C143.289 207.224 144.047 209.033 145.292 210.488C146.538 211.943 148.209 212.972 150.07 213.428C187.6 222.771 191.5 239.115 196.325 232.368C197.446 230.8 192.688 212.087 194.311 212.249C198.756 212.693 194.144 202.2 194.144 202.2Z" fill="#E6E6E6"/>
<path d="M219.827 260.077C219.063 259.374 218.46 258.514 218.062 257.556C217.663 256.598 217.478 255.565 217.518 254.529C217.558 253.492 217.823 252.476 218.295 251.552C218.767 250.628 219.434 249.817 220.251 249.176L210.952 214.703L219.865 209.789L230.61 250.814C231.588 252.267 231.999 254.028 231.764 255.764C231.53 257.499 230.666 259.088 229.337 260.23C228.008 261.372 226.305 261.987 224.553 261.959C222.8 261.931 221.118 261.261 219.827 260.077Z" fill="#FFB6B6"/>
<path d="M194.222 132.328C194.222 132.328 210.771 137.362 212.227 146.151C213.683 154.94 216.227 162.694 215.569 166.29C214.912 169.885 223.121 193.948 221.521 196.716C219.921 199.483 224.225 200.083 222.739 204.62C221.253 209.157 220.424 210.098 221.367 210.926C222.309 211.754 226.376 229.746 226.376 229.746L213.977 233.344L191.142 176.821L194.222 132.328Z" fill="#E6E6E6"/>
<path d="M129.029 260.077C129.793 259.374 130.395 258.514 130.794 257.556C131.192 256.598 131.378 255.565 131.338 254.529C131.297 253.492 131.032 252.476 130.56 251.552C130.088 250.628 129.421 249.817 128.605 249.176L137.903 214.703L128.99 209.789L118.246 250.814C117.268 252.267 116.857 254.028 117.091 255.764C117.326 257.499 118.19 259.088 119.519 260.23C120.848 261.372 122.55 261.987 124.303 261.959C126.056 261.93 127.737 261.261 129.029 260.077Z" fill="#FFB6B6"/>
<path d="M154.634 132.328C154.634 132.328 138.085 137.362 136.629 146.151C135.173 154.94 132.629 162.694 133.287 166.29C133.944 169.885 125.735 193.948 127.335 196.716C128.935 199.483 124.631 200.083 126.117 204.62C127.603 209.157 128.432 210.098 127.489 210.926C126.547 211.754 122.48 229.746 122.48 229.746L134.879 233.344L157.714 176.821L154.634 132.328Z" fill="#E6E6E6"/>
<path d="M168.184 116.597C179.577 116.597 188.813 107.371 188.813 95.9901C188.813 84.609 179.577 75.3828 168.184 75.3828C156.791 75.3828 147.555 84.609 147.555 95.9901C147.555 107.371 156.791 116.597 168.184 116.597Z" fill="#FFB6B6"/>
<path d="M189.113 128.674C181.334 121.763 194.598 102.024 184.237 88.8514L182.993 87.921C182.055 89.7039 180.532 91.1104 178.679 91.9043C178.292 90.108 177.643 88.3784 176.753 86.771C176.976 88.7621 176.797 90.7779 176.227 92.6988C175.646 92.772 175.232 92.6884 175.084 92.427C175.268 94.0266 170.374 94.8211 171.397 92.3329C171.405 92.3079 171.414 92.2834 171.425 92.2597C170.162 94.8002 167.562 95.9816 165.304 97.393C163.046 98.7939 160.751 101.136 160.972 104.042C161.156 106.395 162.954 108.151 164.76 109.322C166.567 110.503 168.595 111.423 169.904 113.253C172.107 116.327 171.591 120.833 170.475 124.575C170.252 125.173 169.888 125.708 169.412 126.134C168.937 126.56 168.366 126.865 167.747 127.022C167.379 125.006 166.685 123.064 165.691 121.272C165.923 123.354 165.719 125.462 165.092 127.461C163.749 127.52 162.407 127.306 161.149 126.831C159.891 126.357 158.743 125.632 157.773 124.701L159.165 130.869C156.925 130.399 154.667 130.932 152.39 131.34C152.331 130.642 152.236 129.947 152.104 129.259C151.746 127.191 151.042 125.197 150.021 123.363C150.306 125.912 149.935 128.492 148.943 130.859C148.832 131.13 148.712 131.402 148.583 131.664C145.081 131.413 141.587 129.374 142.251 124.074C142.543 122.373 143.252 120.771 144.315 119.411C146.122 116.881 136.914 114.173 137.476 111.12C138.315 106.593 146.712 102.589 146.048 98.0203C145.458 93.8802 145.574 84.5347 147.855 81.3136C151.15 76.6602 147.495 67.0334 170.918 72.5003C179.631 74.534 182.652 65.9955 195.787 92.0696C198.039 96.5399 189.851 95.0032 194.662 104.586C199.474 114.169 185.694 121.763 189.113 128.674Z" fill="#2F2E41"/>
<path d="M8.60459e-06 419C-0.0031143 418.449 0.844218 418.002 1.89269 418H850.096C851.148 418 852 418.448 852 419C852 419.552 851.148 420 850.096 420H1.90402C0.855558 420.002 0.00310863 419.557 8.60459e-06 419.006V419Z" fill="#CCCCCC"/>
<path d="M351.151 222.971C351.987 222.681 352.749 222.211 353.384 221.595C354.019 220.979 354.511 220.232 354.825 219.406C355.139 218.579 355.268 217.694 355.203 216.812C355.138 215.931 354.88 215.074 354.448 214.303L379.624 185.469L368.56 183.875L345.799 212.144C344.55 212.956 343.643 214.197 343.249 215.632C342.855 217.068 343.002 218.597 343.661 219.932C344.321 221.267 345.448 222.313 346.828 222.873C348.209 223.433 349.747 223.468 351.151 222.971Z" fill="#FFB8B8"/>
<path d="M362.171 206.932L365.747 202.991L369.199 202.694L369.434 202.4L370.335 201.251L370.681 198.049L373.332 197.428L379.24 189.889L380.142 188.389L404.944 159.442L410.004 151.025L410.799 149.315L413.276 143.991L412.95 130.563C413.492 129.404 413.798 128.148 413.85 126.869C413.902 125.591 413.698 124.314 413.252 123.115C413.109 122.726 412.942 122.347 412.751 121.979L412.611 121.718C412.249 121.075 411.814 120.475 411.316 119.93L411.308 119.918C410.43 118.957 409.364 118.188 408.175 117.659C407.248 117.236 406.26 116.963 405.248 116.849C402.912 116.59 400.56 117.18 398.624 118.512L395.58 120.614L392.818 122.537L386.493 134.167L386.079 134.925L386.064 134.944L366.589 170.735L360.719 181.528L359.824 183.167L359.741 187.961L356.918 188.495L353.584 190.989L353.249 195.234L351.681 202.08L351.442 202.466L352.902 203.331L353.044 203.412L353.31 203.646L357.028 206.834L359.283 208.773L359.358 208.833L359.944 209.385L362.171 206.932Z" fill="#3F3D56"/>
<path d="M148.357 83.7688C148.404 83.7863 148.444 83.8038 148.491 83.8213C148.579 83.8604 148.67 83.8935 148.763 83.9204C149.355 84.1376 149.972 84.2792 150.599 84.342C150.867 84.3709 151.136 84.3851 151.405 84.3845C151.75 84.3857 152.095 84.3634 152.437 84.3177C152.817 84.271 153.193 84.1946 153.562 84.0889C153.737 84.0421 153.909 83.9865 154.078 83.9223C155.231 83.5134 156.272 82.8431 157.121 81.9641C157.97 81.0851 158.604 80.0213 158.972 78.8564V78.8506C159.011 78.7367 159.044 78.6208 159.071 78.5034C159.244 77.8517 159.331 77.1805 159.331 76.5064V76.4948C159.336 74.851 158.823 73.2474 157.865 71.9108C157.287 71.0929 156.62 70.9562 156.994 70.0209C158.188 67.0374 153.303 64.5986 150.42 65.9104C150.316 65.9005 150.211 65.8964 150.107 65.8981C148.165 65.8931 147.445 68.7576 146.287 70.3702L146.321 70.3811C146.614 70.4837 146.867 70.6751 147.046 70.9288C147.225 71.1825 147.32 71.4856 147.318 71.7959C147.316 72.1061 147.217 72.408 147.035 72.6592C146.852 72.9105 146.596 73.0985 146.302 73.1971C145.531 73.4479 144.752 73.6695 143.965 73.8618C141.371 76.9231 144.345 85.8792 148.357 83.7688Z" fill="#2F2E41"/>
<path d="M157.638 71.1357C157.743 73.8869 157.037 76.6084 155.607 78.9621C154.178 81.3157 152.087 83.1976 149.595 84.3739C148.583 84.8319 147.702 83.333 148.721 82.8717C150.947 81.8458 152.818 80.182 154.096 78.0916C155.374 76.0012 156.002 73.5786 155.899 71.1313C155.841 70.0141 157.58 70.0219 157.638 71.1357Z" fill="#87C346"/>
<path d="M678.256 300.869C680.084 300.015 682.172 299.908 684.078 300.57C685.983 301.233 687.555 302.612 688.459 304.416C688.636 304.786 688.783 305.169 688.898 305.563L715.867 307.175L719.864 321.147L683.158 314.945C681.489 315.294 679.751 315.08 678.216 314.337C676.68 313.594 675.434 312.364 674.671 310.839C674.246 309.966 673.996 309.019 673.937 308.05C673.877 307.081 674.009 306.11 674.325 305.193C674.641 304.275 675.134 303.428 675.777 302.701C676.42 301.974 677.2 301.381 678.072 300.955C678.133 300.926 678.194 300.897 678.256 300.869Z" fill="#FFB6B6"/>
<path d="M737.785 231.949C739.562 231.222 741.475 230.886 743.394 230.964C745.312 231.042 747.192 231.533 748.904 232.402C750.616 233.271 752.121 234.499 753.316 236.002C754.511 237.505 755.368 239.248 755.83 241.111L763.245 271.055L761.85 323.438C761.85 323.438 723.148 330.865 716.651 326.091C710.154 321.317 710.764 317.764 710.154 321.317C709.544 324.871 706.755 326.362 706.716 324.948C706.678 323.535 706.362 323.776 704.743 323.35C703.124 322.925 695.978 320.291 695.978 320.291L695.658 305.356C695.658 305.356 707.472 300.877 710.338 302.213C713.204 303.55 709.728 305.767 713.204 303.549C716.68 301.332 717.06 294.334 717.654 300.641C718.249 306.948 719.988 308.122 722.595 305.318C725.201 302.513 737.275 304.305 737.275 304.305L729.592 246.075C729.205 243.146 729.8 240.172 731.282 237.616C732.764 235.061 735.051 233.068 737.785 231.949Z" fill="#0688A6"/>
<path d="M477.151 387.294L476.744 376.264L519.096 369.445L519.696 385.724L477.151 387.294Z" fill="#FFB6B6"/>
<path d="M484.839 390.613L485.24 372.952L477.69 373.231L465.501 356.904C464.899 356.098 464.055 355.505 463.093 355.212C462.13 354.919 461.099 354.942 460.15 355.276C459.201 355.611 458.384 356.24 457.818 357.072C457.251 357.905 456.966 358.896 457.003 359.901L457.777 380.881L465.379 384.222L457.963 385.909L458.255 393.819L484.839 390.613Z" fill="#2F2E41"/>
<path d="M715.51 412.593L581.367 396.994C581.367 396.994 523.439 400.34 509.848 391.498L495.516 389.689L494.739 368.636C494.739 368.636 503.503 368.701 508.542 366.353C513.581 364.005 510.079 361.133 514.883 363.957C519.687 366.782 519.18 367.122 522.894 365.824C526.609 364.525 696.944 357.562 696.944 357.562L715.51 412.593Z" fill="#2F2E41"/>
<path d="M538.745 403.457L530.945 395.647L557.355 361.844L568.867 373.37L538.745 403.457Z" fill="#FFB6B6"/>
<path d="M546.639 400.658L534.922 387.438L529.577 392.777L509.537 389.098C508.547 388.916 507.525 389.055 506.62 389.495C505.715 389.935 504.975 390.653 504.506 391.544C504.038 392.435 503.867 393.452 504.018 394.447C504.169 395.442 504.634 396.362 505.345 397.074L520.182 411.928L528.026 409.207L523.737 415.488L529.331 421.088L546.639 400.658Z" fill="#2F2E41"/>
<path d="M768.433 339.125L767.1 370.125C765.53 406.619 725.34 428.706 694.176 409.652C693.602 409.3 693.026 408.937 692.448 408.56C692.448 408.56 680.633 405.388 680.992 400.363C681.351 395.339 678.464 392.893 675.91 394.263C673.356 395.634 639.914 348.173 639.914 348.173C639.914 348.173 570.432 382.832 555.104 390.991L538.931 386.584C538.931 386.584 532.844 389.459 535.036 385.301C537.229 381.143 537.622 383.134 538.296 378.604C538.97 374.074 540.693 368.458 541.738 368.694C542.783 368.93 627.695 309.499 627.695 309.499C627.695 309.499 641.528 295.499 658.687 304.743C659.045 306.1 658.739 306.148 658.739 306.148L715.424 352.336L723.433 337.125L768.433 339.125Z" fill="#2F2E41"/>
<path d="M730.334 225.219L754.638 213.828L761.914 226.489C761.914 226.489 781.456 254.375 781.739 274.494C782.023 294.612 778.555 300.594 778.555 300.594C778.555 300.594 786.981 306.893 782.768 310.744C778.555 314.594 769.228 316.256 776.391 317.925C783.555 319.594 781.739 336.494 773.739 339.494C765.739 342.494 722.775 342.467 722.775 342.467C723.162 341.157 723.19 339.767 722.858 338.442C722.525 337.117 721.844 335.906 720.886 334.933C717.555 331.594 714.555 333.99 717.555 328.792C720.555 323.594 725.555 326.594 721.555 319.594C717.555 312.594 717.556 310.502 717.556 310.502C717.556 310.502 709.402 294.983 721.684 278.148C722.433 277.121 721.804 277.082 721.804 277.082L731.722 243.846L730.334 225.219Z" fill="#0093B4"/>
<path d="M769.501 177.326C769.295 182.46 772.531 189.733 774.124 194.119C775.827 198.808 768.445 205.032 763.719 206.395C763.473 204.77 762.663 203.285 761.431 202.198C761.771 203.746 761.801 205.347 761.518 206.906L721.57 216.001C714.383 207.678 707.157 195.714 708.733 181.284C708.356 178.544 708.796 175.753 709.999 173.263C711.202 170.772 713.114 168.692 715.494 167.284L735.69 155.353C744.28 153.398 755.098 152.217 761.303 157.532C764.075 159.999 766.252 163.061 767.672 166.489C769.092 169.917 769.717 173.622 769.501 177.326Z" fill="#2F2E41"/>
<path d="M733.794 211.609C721.091 211.609 710.794 201.312 710.794 188.609C710.794 175.907 721.091 165.609 733.794 165.609C746.496 165.609 756.794 175.907 756.794 188.609C756.794 201.312 746.496 211.609 733.794 211.609Z" fill="#FFB6B6"/>
<path d="M760.738 176.317L761.848 181.192L742.445 185.609C742.427 184.623 742.207 183.651 741.796 182.755C741.385 181.858 740.794 181.056 740.059 180.399C740.477 182.311 740.429 184.295 739.919 186.184C729.455 192.056 720.023 194.137 711.566 192.639C710.42 192.9 709.217 192.695 708.223 192.069C707.228 191.443 706.523 190.448 706.262 189.302C702.859 174.355 711.774 159.078 726.648 155.367C730.263 154.463 734.023 154.29 737.706 154.858C741.389 155.426 744.922 156.724 748.097 158.675C751.272 160.626 754.026 163.192 756.197 166.221C758.367 169.251 759.911 172.683 760.738 176.317Z" fill="#2F2E41"/>
<path d="M749.394 144.154C746.835 143.599 744.128 143.733 741.814 142L743.332 145.482C739.125 144.33 734.641 144.778 730.746 146.739C729.588 147.259 728.6 148.095 727.897 149.152C727.519 149.79 727.289 150.505 727.224 151.244C727.16 151.982 727.261 152.726 727.522 153.421C727.771 154.016 728.141 154.554 728.609 154.998C729.077 155.443 729.633 155.784 730.24 156.002C731.317 156.326 732.446 156.444 733.566 156.35C738.288 156.24 743.01 156.13 747.732 156.02C749.532 156.132 751.33 155.783 752.957 155.005C753.822 154.471 754.512 153.696 754.943 152.775C755.373 151.854 755.526 150.828 755.381 149.822C754.931 146.656 751.952 144.709 749.394 144.154Z" fill="#2F2E41"/>
<path d="M624.629 324.411C624.684 324.346 624.747 324.288 624.817 324.238C624.989 324.039 625.198 323.875 625.433 323.756L627.116 322.855L638.29 310.45C638.936 310.113 639.689 310.041 640.388 310.25L640.417 310.258L645.203 311.739L649.319 313.016L655.07 314.799L694.236 326.926L719.981 334.897C720.677 335.117 721.258 335.602 721.6 336.247C721.943 336.892 722.018 337.645 721.81 338.345C721.689 338.73 721.489 339.086 721.222 339.39L720.403 340.301L718.685 342.215L714.703 350.466L713.599 351.699C713.247 352.091 712.79 352.375 712.283 352.518C711.775 352.66 711.238 352.655 710.733 352.503L625.918 328.918C625.478 328.776 625.079 328.527 624.757 328.194C624.435 327.861 624.201 327.453 624.073 327.008C623.946 326.563 623.93 326.093 624.027 325.64C624.124 325.187 624.33 324.765 624.629 324.411Z" fill="#CCCCCC"/>
<path d="M629.665 201.704L631.307 201.97C631.757 202.045 632.16 202.295 632.426 202.665L633.15 203.677L639.677 219.999C639.943 220.372 640.05 220.835 639.974 221.287L639.209 225.937L642.1 308.943C642.027 309.372 641.796 309.759 641.453 310.027L628.78 326.979L628.484 327.214L627.846 327.714C627.519 327.967 627.113 328.096 626.699 328.079L625.622 328.027C625.378 328.015 625.139 327.952 624.92 327.841C624.702 327.729 624.51 327.573 624.357 327.382C624.202 327.193 624.09 326.973 624.028 326.736C623.966 326.5 623.956 326.253 623.997 326.012L627.674 203.124C627.748 202.673 627.999 202.269 628.371 202.003C628.742 201.736 629.205 201.628 629.656 201.703L629.665 201.704Z" fill="#CCCCCC"/>
<path d="M632.415 208.156L638.197 225.769L640.434 296.123L631.434 304.123L632.415 208.156Z" fill="white"/>
<path d="M677.128 315.47C678.956 314.616 681.044 314.509 682.95 315.172C684.855 315.834 686.427 317.214 687.331 319.018C687.508 319.387 687.656 319.771 687.77 320.164L714.739 321.776L718.736 335.749L682.031 329.547C680.361 329.895 678.623 329.682 677.088 328.939C675.552 328.196 674.306 326.966 673.543 325.44C672.684 323.679 672.559 321.648 673.197 319.794C673.835 317.941 675.183 316.417 676.944 315.557C677.005 315.527 677.066 315.498 677.128 315.47Z" fill="#FFB6B6"/>
<path d="M736.657 246.551C738.434 245.824 740.347 245.488 742.265 245.566C744.184 245.644 746.063 246.134 747.775 247.004C749.487 247.873 750.992 249.101 752.187 250.604C753.383 252.107 754.24 253.849 754.702 255.713L762.116 285.656L760.721 338.04C760.721 338.04 722.019 345.466 715.522 340.693C709.025 335.919 709.635 332.365 709.025 335.919C708.415 339.472 705.627 340.964 705.588 339.55C705.549 338.136 705.234 338.378 703.615 337.952C701.996 337.526 694.85 334.892 694.85 334.892L694.53 319.957C694.53 319.957 706.343 315.479 709.209 316.815C712.075 318.151 708.599 320.368 712.075 318.151C715.551 315.934 715.931 308.935 716.526 315.243C717.12 321.55 718.86 322.724 721.466 319.92C724.072 317.115 736.147 318.906 736.147 318.906L728.463 260.677C728.077 257.748 728.671 254.773 730.153 252.218C731.636 249.662 733.923 247.67 736.657 246.551Z" fill="#0688A6"/>
<path d="M498.853 418.239V406.689C516.904 406.689 525.93 401.098 525.93 389.915V334.367C524.088 333.451 521.509 332.718 518.194 332.168C515.062 331.434 511.286 331.068 506.866 331.068H473.711C466.895 331.068 460.909 332.168 455.752 334.367V389.915C455.752 401.098 464.04 406.689 480.618 406.689V418.239H382.534V406.689C401.138 406.689 410.44 401.098 410.44 389.915V269.745C410.44 255.263 401.138 248.021 382.534 248.021V235.922H480.618V248.021C464.04 248.021 455.752 255.263 455.752 269.745V314.568C458.515 315.485 461.278 316.127 464.04 316.493C466.803 316.86 470.027 317.043 473.711 317.043H506.866C516.444 317.043 522.799 316.31 525.93 314.843V269.745C525.93 255.263 516.904 248.021 498.853 248.021V235.922H596.385V248.021C579.623 248.021 571.242 255.263 571.242 269.745V389.915C571.242 401.098 579.623 406.689 596.385 406.689V418.239H498.853Z" fill="#87C346"/>
</g>
<defs>
<clipPath id="clip0_319_2348">
<rect width="813" height="421" fill="white"/>
</clipPath>
</defs>
</svg>
